<svg width="100" height="114" viewBox="0 0 100 114" fill="none" xmlns="http://www.w3.org/2000/svg">
<g clip-path="url(#clip0_1_1199)">
<path d="M56.8274 11.0534C57.5053 10.6734 58.2491 10.4254 59.0194 10.3227C59.2244 10.2907 59.4295 10.2522 59.6347 10.2073C60.9085 9.8999 62.2095 9.71955 63.5189 9.66895C67.0338 9.66608 71.3024 11.1018 76.3248 13.9761C81.3168 16.8817 85.6368 21.5349 89.2848 27.9359C92.3015 33.0119 94.8748 38.3387 96.9761 43.8569C98.4607 48.0899 99.2042 51.3716 99.2065 53.7018C99.2065 57.291 97.6298 61.2521 94.4765 65.5849C91.4768 69.6869 88.3234 72.5071 85.0161 74.0454C80.9732 75.5048 77.1019 74.5947 73.4022 71.3149C72.8331 70.8057 72.3862 70.1748 72.0946 69.469C70.2821 64.968 69.0043 60.2698 68.2874 55.4708C66.903 52.6507 65.6083 49.7793 64.4033 46.8565C63.3356 44.2334 62.0357 41.7109 60.5192 39.319C60.0892 38.9921 59.724 38.5878 59.4425 38.1269C59.2886 37.8448 59.1219 37.55 58.9425 37.2424C58.8325 37.0738 58.7422 36.8931 58.6733 36.704C56.9832 33.4512 55.0551 30.3277 52.9048 27.359C52.5972 26.9744 52.3152 26.6027 52.0588 26.2438C49.2387 22.475 49.1746 18.8473 51.8665 15.3605C51.892 15.2836 51.9177 15.1939 51.9434 15.0913V14.5145C52.1935 13.5055 52.8469 12.6435 53.7509 12.1302C54.695 11.5712 55.7408 11.2052 56.8274 11.0534ZM59.6347 17.0526C59.099 17.1222 58.5597 17.1608 58.0196 17.168C57.9832 17.2085 57.9447 17.247 57.9042 17.2834V17.591C57.8786 17.6936 57.8529 17.7833 57.8273 17.8602C57.8002 17.9667 57.7615 18.0698 57.7119 18.1679C57.6863 18.2704 57.6606 18.3602 57.635 18.4371C57.4812 18.6422 57.3274 18.8473 57.1735 19.0524C57.0196 19.2319 56.8786 19.4114 56.7505 19.5908C56.5847 19.8079 56.3907 20.0019 56.1736 20.1676C56.3192 20.5617 56.5129 20.9363 56.7505 21.2829C57.285 21.9931 57.7006 22.7853 57.9811 23.6287C58.1606 24.1158 58.3657 24.6029 58.5964 25.0901C60.0877 26.7117 61.32 28.5536 62.2498 30.5509C62.9035 31.9373 63.6353 33.2854 64.4418 34.5889C66.6419 37.2984 68.4301 40.3177 69.7488 43.5492C70.8769 46.2413 71.9921 48.9332 73.0946 51.6251C73.1874 51.7147 73.2653 51.8186 73.3253 51.9328C74.424 54.5085 75.1492 57.2279 75.4788 60.0087C75.6839 61.9571 76.044 63.886 76.5556 65.7772C76.735 65.9567 76.9017 66.1362 77.0555 66.3156C77.4335 66.745 77.845 67.1436 78.2862 67.5077C78.7955 67.8649 79.3521 68.1497 79.9398 68.3538C81.2473 68.3538 82.5548 68.3538 83.8624 68.3538C84.03 68.3084 84.1869 68.23 84.3238 68.123C84.4353 68.0588 84.5386 67.9813 84.6315 67.8923C84.7564 67.6415 86.0254 66.0648 88.4387 63.1621C89.8563 61.5498 91.1062 59.7974 92.169 57.932C92.3256 57.6236 92.4543 57.3019 92.5536 56.9706C92.9492 55.3742 93.1175 53.73 93.0535 52.0866C93.0507 51.8776 93.0379 51.6597 93.0151 51.4329C92.6175 48.7207 91.8001 46.0869 90.5923 43.6262C88.9787 39.9876 87.5815 37.0393 86.4005 34.7811C85.3035 32.7307 84.0967 30.7409 82.7856 28.8204C81.5572 27.0748 79.4934 24.5366 76.5941 21.2059C74.7098 18.9759 72.1861 17.3785 69.3642 16.6296C68.1285 16.3435 66.8639 16.2016 65.5955 16.2065H65.4032L61.596 16.745C61.0009 16.8423 60.3472 16.9449 59.6348 17.0526L59.6347 17.0526Z" fill="#1C003F"/>
<path d="M78.8631 28.1666C76.1303 23.9837 72.9448 20.1146 69.3643 16.6296C72.1861 17.3785 74.7099 18.976 76.5942 21.206C79.4935 24.5367 81.5573 27.0748 82.7856 28.8204C84.0968 30.741 85.3035 32.7308 86.4006 34.7812C87.5815 37.0393 88.9788 39.9877 90.5924 43.6262C91.8002 46.0869 92.6175 48.7207 93.0151 51.4329C91.512 51.2248 89.9937 51.1476 88.4773 51.2022C88.4457 50.3811 88.2632 49.5728 87.9389 48.8178C87.8619 48.6384 87.785 48.4589 87.7081 48.2794C85.8906 41.1328 82.9018 34.3365 78.8631 28.1666Z" fill="#6B2FBB"/>
<path d="M58.0195 17.168C58.5597 17.1607 59.0989 17.1222 59.6347 17.0526C60.3471 16.9448 61.0009 16.8423 61.596 16.7449L65.4032 16.2064H65.5954C66.8638 16.2015 68.1285 16.3435 69.3642 16.6296C72.9447 20.1146 76.1302 23.9836 78.863 28.1666C82.9017 34.3364 85.8905 41.1327 87.708 48.2794C87.7849 48.4589 87.8618 48.6384 87.9387 48.8178C88.2631 49.5727 88.4456 50.381 88.4771 51.2021C89.9936 51.1476 91.5119 51.2248 93.015 51.4328C93.0378 51.6597 93.0506 51.8776 93.0534 52.0866C93.1174 53.73 92.9491 55.3742 92.5536 56.9706C92.4542 57.3018 92.3255 57.6236 92.169 57.932C91.1062 59.7974 89.8563 61.5498 88.4386 63.1621C86.0254 66.0648 84.7564 67.6415 84.6315 67.8923C84.5386 67.9813 84.4353 68.0587 84.3238 68.123C84.1869 68.2299 84.03 68.3084 83.8623 68.3538C82.5547 68.3538 81.2472 68.3538 79.9397 68.3538C79.352 68.1496 78.7955 67.8649 78.2861 67.5077C77.8449 67.1436 77.4334 66.7449 77.0555 66.3155C76.9017 66.1361 76.7351 65.9566 76.5556 65.7771C76.044 63.886 75.6839 61.957 75.4788 60.0087C75.1491 57.2279 74.424 54.5085 73.3253 51.9328C73.2653 51.8185 73.1874 51.7147 73.0945 51.6251C71.9921 48.9332 70.8769 46.2412 69.7488 43.5492C68.4301 40.3177 66.6418 37.2984 64.4418 34.5888C63.6353 33.2854 62.9034 31.9372 62.2497 30.5509C61.32 28.5536 60.0877 26.7117 58.5964 25.09C58.3656 24.6029 58.1605 24.1158 57.9811 23.6287C57.7005 22.7853 57.2849 21.993 56.7505 21.2828C56.5129 20.9363 56.3191 20.5617 56.1736 20.1676C56.3907 20.0018 56.5847 19.8078 56.7505 19.5907C56.8786 19.4113 57.0196 19.2318 57.1735 19.0523C57.3273 18.8473 57.4811 18.6422 57.6349 18.437C57.6605 18.3601 57.6861 18.2704 57.7119 18.1678C57.7614 18.0698 57.8001 17.9666 57.8272 17.8602C57.8528 17.7832 57.8784 17.6935 57.9041 17.591V17.2833C57.9446 17.247 57.9831 17.2085 58.0195 17.168Z" fill="#3B177C"/>
<path d="M48.8401 87.9319C48.2566 85.7573 48.943 83.4392 50.6165 81.933C54.1276 78.4257 57.6386 74.9185 61.1497 71.4113C61.1753 71.4557 61.1928 71.4604 61.2021 71.4254C61.3448 71.3135 61.5032 71.1776 61.6774 71.0179C62.8256 70.5028 63.9413 69.918 65.0181 69.2667C67.0263 67.9599 69.1752 66.8831 71.4242 66.0568C71.5948 65.9885 71.7699 65.9319 71.9482 65.8875C72.086 65.9035 72.2246 65.9124 72.3633 65.9142C72.483 65.9083 72.6024 65.9307 72.7118 65.9795C72.8553 65.9824 72.9988 65.9738 73.141 65.9538C73.2297 65.9815 73.3136 66.023 73.3896 66.0766C73.4717 66.1296 73.5501 66.1882 73.6241 66.2521C73.8093 66.3331 73.9792 66.4453 74.1264 66.5838L74.375 66.7067C74.4571 66.7597 74.5355 66.8183 74.6095 66.8821C74.6455 66.9928 74.6923 67.0996 74.7492 67.2011C74.8676 67.3534 74.9752 67.5139 75.0709 67.6814L75.2055 67.9146L75.3786 68.2143C75.3547 68.5829 75.3886 68.9529 75.4789 69.311C75.6334 70.4361 75.9135 71.5405 76.3139 72.6033C76.5396 73.3019 76.7875 73.9877 77.0576 74.6607C77.1046 74.7388 77.1388 74.824 77.1589 74.913L77.1974 74.9796C77.7375 76.3255 79.3489 77.9115 82.0314 79.7377C82.8924 80.3062 84.4532 81.2406 86.7136 82.5408C89.5009 83.6255 91.5843 84.4653 92.9639 85.0601C95.2296 85.9284 97.1393 87.5304 98.3885 89.6105C99.8754 92.186 100.329 95.5357 99.7496 99.6596C99.1701 103.783 96.2924 107.413 91.1165 110.55C85.9408 113.686 79.8058 113.853 72.7115 111.051C65.6266 108.214 60.4203 105.58 57.0928 103.15C54.1352 100.95 52.1821 99.0281 51.2336 97.385L50.5452 95.9618C49.9224 94.4225 49.4349 92.8319 49.0883 91.2079C48.9276 90.2563 48.8468 89.2929 48.8466 88.3278C48.8619 88.1962 48.8597 88.0631 48.8401 87.932M67.4336 75.0659C66.6121 75.5402 65.7889 75.9858 64.9639 76.4029C61.7603 79.6734 58.5853 82.9422 55.4389 86.2093C55.282 86.3855 55.1377 86.5727 55.0073 86.7693C55.0185 86.8341 55.0397 86.8968 55.0701 86.9551C55.0865 87.0757 55.111 87.1951 55.1433 87.3125C55.1629 87.4436 55.1651 87.5767 55.1499 87.7084C54.9461 89.0989 55.5947 91.5812 57.0956 95.1552C57.2751 95.466 58.6954 96.6443 61.3566 98.6899C62.8439 99.9293 64.4262 101.05 66.0891 102.041C66.9586 102.368 68.7801 102.959 71.5537 103.815C73.939 104.546 76.2848 105.4 78.5817 106.374C80.3752 107.212 82.3782 107.494 84.3331 107.183C85.9883 106.863 87.5692 106.236 88.9947 105.336C90.2198 104.416 91.2005 103.209 91.8506 101.822C92.2638 101.099 92.6332 100.352 92.9569 99.5848C92.9821 99.4876 93.0168 99.3932 93.0606 99.3029L93.7109 97.5065C94.2971 95.5991 94.321 94.1791 93.7826 93.2466C93.2442 92.314 92.0588 91.4146 90.2265 90.5483C89.1271 90.0284 87.1756 89.1864 84.3721 88.0223C82.3297 87.1391 80.3736 86.0683 78.529 84.8237C77.579 84.1614 76.6724 83.4389 75.8148 82.6607C74.2916 81.3189 72.9733 79.761 71.902 78.0368L71.652 77.6039C71.3468 76.9215 71.0498 76.2789 70.761 75.676C70.5093 75.0884 70.2947 74.4855 70.1186 73.871C69.1939 74.1988 68.2961 74.5983 67.4336 75.0659Z" fill="#1C003F"/>
<path d="M74.9064 90.7784C74.9215 90.6582 74.9257 90.5368 74.9191 90.4158C75.31 89.6573 75.6834 88.894 76.0394 88.126C76.4551 87.2052 76.8947 86.3001 77.3582 85.4108C77.7366 85.1924 78.1276 84.9964 78.529 84.8237C80.3736 86.0683 82.3297 87.1391 84.3721 88.0223C87.1757 89.1864 89.1271 90.0284 90.2265 90.5483C92.0588 91.4147 93.2442 92.3141 93.7826 93.2466C94.321 94.1791 94.297 95.5991 93.7109 97.5065C93.7671 97.2964 93.8188 97.1038 93.8657 96.9286C92.5104 97.9455 90.9886 98.7189 89.3682 99.2144C89.0977 99.3029 88.8179 99.3601 88.5343 99.385C87.022 99.5955 85.4809 99.3965 84.0718 98.8085C84.0092 98.793 83.9494 98.7675 83.8949 98.733C83.7022 98.551 83.4904 98.3904 83.2631 98.254C83.076 98.13 82.8793 98.0208 82.675 97.9275C82.5114 97.8464 82.3401 97.7817 82.1637 97.7342C81.382 97.1494 80.5735 96.5949 79.738 96.0707C78.7513 95.5009 77.8274 94.8287 76.9816 94.0653C76.4229 93.5589 75.8864 93.0398 75.3719 92.5079L75.295 92.3747L75.2181 92.2414L75.0835 92.0083C75.0812 91.9548 75.0662 91.9025 75.0399 91.8558C74.9835 91.6608 74.9427 91.4616 74.918 91.2601C74.8855 91.1015 74.8816 90.9384 74.9064 90.7784Z" fill="#6B2FBB"/>
<path d="M64.9639 76.4028C65.7889 75.9857 66.6122 75.54 67.4336 75.0658C68.2961 74.5982 69.1939 74.1987 70.1186 73.8708C70.2947 74.4854 70.5092 75.0882 70.761 75.6759C71.0498 76.2788 71.3468 76.9214 71.652 77.6037L71.9019 78.0367C72.9732 79.7609 74.2915 81.3187 75.8148 82.6605C76.6724 83.4388 77.5789 84.1613 78.529 84.8236C78.1276 84.9962 77.7366 85.1923 77.3582 85.4107C76.8947 86.3 76.4551 87.205 76.0394 88.1259C75.6835 88.8938 75.31 89.6571 74.9191 90.4157C74.9257 90.5367 74.9214 90.658 74.9064 90.7783C74.8816 90.9382 74.8855 91.1014 74.918 91.26C74.9427 91.4615 74.9835 91.6607 75.0399 91.8557C75.0662 91.9024 75.0811 91.9546 75.0835 92.0082L75.2181 92.2413L75.295 92.3745L75.3719 92.5077C75.8863 93.0397 76.4229 93.5588 76.9816 94.0651C77.8274 94.8286 78.7513 95.5008 79.738 96.0706C80.5735 96.5948 81.3821 97.1493 82.1637 97.7341C82.3401 97.7815 82.5114 97.8462 82.675 97.9274C82.8793 98.0206 83.0759 98.1298 83.2631 98.2539C83.4904 98.3903 83.7022 98.5509 83.8949 98.7329C83.9494 98.7674 84.0091 98.7929 84.0718 98.8084C85.4809 99.3963 87.022 99.5954 88.5343 99.3848C88.8178 99.36 89.0977 99.3027 89.3682 99.2142C90.9886 98.7188 92.5104 97.9454 93.8657 96.9285C93.8188 97.1036 93.7672 97.2962 93.7108 97.5063L93.0606 99.3028C93.0168 99.3931 92.9821 99.4875 92.9569 99.5846C92.6332 100.352 92.2637 101.099 91.8506 101.822C91.2005 103.209 90.2198 104.416 88.9947 105.336C87.5691 106.236 85.9883 106.863 84.3331 107.183C82.3782 107.494 80.3752 107.212 78.5817 106.374C76.2848 105.4 73.939 104.546 71.5537 103.815C68.7801 102.959 66.9585 102.368 66.089 102.041C64.4262 101.05 62.8439 99.9291 61.3566 98.6898C58.6955 96.6441 57.2751 95.4659 57.0956 95.1551C55.5947 91.581 54.9461 89.0988 55.1498 87.7082C55.1651 87.5766 55.1629 87.4435 55.1433 87.3124C55.111 87.195 55.0865 87.0756 55.0701 86.955C55.0397 86.8967 55.0185 86.834 55.0073 86.7692C55.1377 86.5725 55.282 86.3854 55.4389 86.2092C58.5853 82.9421 61.7603 79.6733 64.9639 76.4028Z" fill="#3B177C"/>
<path d="M29.7923 0.746978C37.1655 0.074695 42.9853 0.497718 47.2517 2.01605C50.6356 3.15839 53.9162 4.58643 57.0581 6.28473C59.3297 7.631 62.4062 10.1435 66.2877 13.8222C70.1776 17.5265 74.2797 24.4872 78.5939 34.7042C82.877 44.9567 85.0178 54.0837 85.0161 62.0853C85.0161 72.4429 81.9139 80.3009 75.7096 85.6592C73.1282 87.8232 70.2701 89.6337 67.2107 91.0432C65.2623 91.9917 62.4935 93.2351 58.9041 94.7734C52.7173 95.9358 48.7562 96.4742 47.021 96.3886C45.1301 96.2731 43.2777 95.8034 41.5601 95.0042C39.6842 94.1859 35.595 92.058 29.2925 88.6204C27.69 87.6124 26.3465 86.2426 25.3698 84.6209C24.6776 83.5953 23.8059 82.1084 22.7548 80.1599C20.6268 75.6733 18.6143 71.4431 16.7171 67.4692C12.9995 59.6497 10.3589 54.5093 8.79505 52.0481C7.28232 49.6894 5.85943 46.1386 4.52637 41.3956C3.50082 37.0885 2.9881 34.9093 2.9881 34.858C2.9881 25.0373 5.61644 17.0639 10.8717 10.938C16.1089 4.81415 22.4158 1.41715 29.7924 0.746978M39.022 6.36165C38.9439 6.35747 38.8665 6.34457 38.7913 6.32319C35.8403 6.19534 32.884 6.28532 29.9463 6.59239C25.8947 6.95362 21.4209 9.47894 16.5248 14.1683C15.0199 15.622 13.7255 17.2789 12.6792 19.0908C10.3442 23.1301 9.17767 28.0526 9.17967 33.8581C9.17967 34.858 10.2693 38.2294 12.4485 43.9722C14.9609 50.5868 17.2555 55.2528 19.3322 57.9705C19.8706 58.6883 21.0755 61.2264 22.9472 65.5849C25.434 71.3277 26.9594 74.776 27.5235 75.9297C30.0361 81.1342 32.9844 84.7619 36.3685 86.8129C39.5732 88.7358 43.9957 89.6972 49.6361 89.6972C50.7341 89.6553 51.8271 89.5267 52.9049 89.3126C53.0963 89.277 53.3014 89.2385 53.5202 89.1972C54.5859 88.9657 55.6647 88.7987 56.7505 88.6973C58.0072 88.6955 61.2889 87.1957 66.5954 84.1979C66.8111 84.0895 67.029 83.9742 67.2492 83.8518C72.159 81.0232 75.0817 78.5235 76.0173 76.3527C76.1958 75.9169 76.3753 75.4554 76.5557 74.9683C77.3485 72.9174 78.0289 70.8248 78.5939 68.6999C79.1271 66.7295 79.424 64.7027 79.4784 62.6622C79.4885 62.0689 79.4756 61.4793 79.44 60.8932C79.2665 58.776 78.9062 56.6784 78.3632 54.6247C77.6453 52.0866 77.1967 50.3432 77.0172 49.3946C76.4716 46.6396 75.6867 43.9374 74.6714 41.3187L73.0947 37.3961C70.9667 33.1916 69.1208 29.7561 67.5569 27.0898C65.5827 23.8594 64.4803 22.0776 64.2496 21.7443C62.1217 18.6934 60.4809 16.6937 59.3272 15.7451C57.5503 14.1945 55.6887 12.7438 53.751 11.3995C53.0455 10.9887 52.3405 10.5913 51.6359 10.2073C49.8168 9.40184 47.9553 8.69576 46.0597 8.0922C44.807 7.68007 43.6533 7.33396 42.5986 7.05387L39.022 6.36165Z" fill="#1C003F"/>
<path d="M42.637 7.20766C42.8288 7.22719 43.0221 7.22719 43.2139 7.20766C42.999 7.16386 42.7939 7.11259 42.5985 7.05383C43.6533 7.33395 44.807 7.68006 46.0596 8.09216C47.9553 8.69573 49.8168 9.4018 51.6358 10.2073C52.3405 10.5913 53.0455 10.9887 53.7509 11.3994C55.6886 12.7437 57.5502 14.1945 59.3272 15.745C60.4809 16.6936 62.1217 18.6934 64.2496 21.7443C64.4803 22.0776 65.5827 23.8594 67.5569 27.0897C69.1208 29.7561 70.9667 33.1915 73.0946 37.3961L74.6714 41.3187C75.6866 43.9373 76.4715 46.6395 77.0172 49.3946C77.1967 50.3432 77.6453 52.0866 78.3631 54.6247C78.9061 56.6783 79.2665 58.776 79.4399 60.8931C79.4756 61.4792 79.4884 62.0688 79.4784 62.6621C79.4649 62.7954 79.452 62.9236 79.4399 63.0467C79.4136 63.5879 79.2966 64.1209 79.0938 64.6234C77.8028 68.2239 75.7121 71.4847 72.9792 74.1607C72.3742 74.7673 71.718 75.3205 71.0179 75.8143C67.2663 78.5255 62.8584 80.1851 58.2502 80.6214C55.7556 80.8777 53.24 80.8518 50.7512 80.5445C49.4067 79.7443 47.957 79.1359 46.4441 78.737C43.5169 76.4061 41.1842 73.4144 39.6372 70.0073C39.5624 69.3998 39.4072 68.805 39.1758 68.2383C38.663 67.0334 38.1887 65.8028 37.7529 64.5465C37.2914 63.162 36.8684 61.8032 36.4838 60.4701C36.2122 59.4609 35.6345 58.5607 34.8302 57.8935C34.5995 57.5089 34.3815 57.1372 34.1764 56.7783C33.7148 56.0091 33.2662 55.2656 32.8304 54.5478C32.1382 53.3941 31.3947 52.266 30.5999 51.1636C30.0101 50.343 29.326 49.5944 28.5617 48.9331C28.4086 48.4982 28.1588 48.1038 27.8311 47.7794C27.3184 47.241 26.8312 46.6898 26.3697 46.1258C25.7315 45.3364 25.2723 44.418 25.0238 43.4338C24.7716 42.4179 24.342 41.4545 23.7547 40.588C23.7047 40.1817 23.574 39.7894 23.3701 39.4343C23.1158 38.8762 22.91 38.2972 22.7549 37.7038C22.5722 36.8995 22.3147 36.1142 21.9857 35.3579C21.6448 34.6204 21.3494 33.8627 21.1012 33.089C21.0243 32.8841 20.9209 32.6901 20.7936 32.5121C20.7934 32.4084 20.7805 32.3051 20.7551 32.2045C20.7279 31.9153 20.6633 31.6309 20.5628 31.3584L20.3322 30.7431C20.1759 30.3749 20.0723 29.9865 20.0245 29.5894C19.9679 29.2927 19.8641 29.0071 19.7169 28.7434C19.5435 28.4725 19.3893 28.1898 19.2554 27.8973V26.436C19.2554 25.9489 19.2426 25.4746 19.2169 25.0131C19.1913 24.7054 19.1656 24.4106 19.14 24.1286C19.1172 23.8295 19.025 23.5398 18.8708 23.2825V16.3219C18.8964 16.2449 18.9221 16.1552 18.9477 16.0527C18.9971 15.9576 19.0235 15.8522 19.0246 15.745C19.076 15.5656 19.1273 15.3861 19.1785 15.2066C19.2041 15.1041 19.2297 15.0016 19.2554 14.899C19.2781 14.8033 19.3171 14.7122 19.3708 14.6298C19.6043 14.3696 19.8105 14.0861 19.986 13.7837C20.0385 13.6538 20.1171 13.5361 20.2168 13.4376C20.3707 13.2582 20.5245 13.0659 20.6783 12.8608C20.8064 12.6813 20.9346 12.489 21.0628 12.2839C22.5546 11.0245 24.2794 10.0706 26.1391 9.4766C28.235 8.73314 29.7476 8.2332 30.677 7.97679C32.7496 7.57272 34.8419 7.27748 36.9454 7.09229C38.8429 6.98974 40.7453 7.0283 42.637 7.20766Z" fill="#6B2FBB"/>
<path d="M38.7913 6.32315C38.8665 6.34452 38.9438 6.35742 39.0219 6.3616L42.5984 7.05382C42.7938 7.1126 42.9989 7.16387 43.2137 7.20765C43.022 7.22718 42.8287 7.22718 42.6369 7.20765C40.7452 7.02829 38.8427 6.98972 36.9453 7.09228C34.8418 7.27747 32.7495 7.57271 30.6769 7.97678C29.7475 8.23316 28.2348 8.73309 26.139 9.47659C24.2793 10.0706 22.5545 11.0245 21.0627 12.2839C20.9345 12.489 20.8063 12.6813 20.6782 12.8608C20.5244 13.0659 20.3705 13.2582 20.2167 13.4376C20.117 13.536 20.0384 13.6538 19.9859 13.7837C19.8104 14.0861 19.6042 14.3696 19.3707 14.6298C19.317 14.7122 19.278 14.8033 19.2553 14.899C19.2297 15.0015 19.204 15.1041 19.1784 15.2066C19.1271 15.3861 19.0758 15.5656 19.0245 15.745C19.0234 15.8522 18.997 15.9576 18.9476 16.0527C18.9221 16.1552 18.8964 16.245 18.8707 16.3219V23.2825C19.0249 23.5398 19.1171 23.8295 19.1399 24.1286C19.1655 24.4106 19.1912 24.7054 19.2168 25.0131C19.2424 25.4745 19.2553 25.9488 19.2553 26.436V27.8973C19.3891 28.1898 19.5433 28.4725 19.7167 28.7434C19.8639 29.0071 19.9678 29.2927 20.0244 29.5894C20.0722 29.9865 20.1758 30.3749 20.332 30.7431L20.5627 31.3584C20.6632 31.6309 20.7278 31.9153 20.755 32.2045C20.7804 32.305 20.7933 32.4084 20.7935 32.5121C20.9208 32.6901 21.0242 32.8841 21.1011 33.089C21.3493 33.8626 21.6447 34.6204 21.9856 35.3579C22.3146 36.1141 22.5721 36.8995 22.7547 37.7038C22.9099 38.2972 23.1157 38.8762 23.37 39.4343C23.5738 39.7894 23.7046 40.1816 23.7546 40.588C24.3419 41.4545 24.7715 42.4179 25.0236 43.4338C25.2722 44.418 25.7314 45.3364 26.3696 46.1258C26.8311 46.6898 27.3182 47.241 27.831 47.7794C28.1586 48.1037 28.4085 48.4982 28.5616 48.9331C29.3259 49.5944 30.0099 50.343 30.5998 51.1636C31.3946 52.266 32.1381 53.3941 32.8303 54.5478C33.2661 55.2656 33.7148 56.0091 34.1763 56.7782C34.3813 57.1372 34.5993 57.5089 34.83 57.8935C35.6344 58.5607 36.2121 59.4609 36.4837 60.4701C36.8682 61.8032 37.2913 63.162 37.7527 64.5465C38.1886 65.8027 38.6629 67.0334 39.1756 68.2383C39.4071 68.805 39.5623 69.3998 39.6371 70.0073C41.1841 73.4144 43.5168 76.4061 46.4439 78.737C47.9569 79.1359 49.4066 79.7442 50.7511 80.5444C53.2399 80.8518 55.7555 80.8776 58.2501 80.6214C62.8583 80.1851 67.2662 78.5255 71.0178 75.8143C71.7179 75.3205 72.3741 74.7672 72.979 74.1606C75.712 71.4847 77.8027 68.2238 79.0937 64.6234C79.2965 64.1209 79.4135 63.5879 79.4398 63.0467C79.4519 62.9236 79.4648 62.7954 79.4783 62.6621C79.4238 64.7026 79.1269 66.7294 78.5938 68.6998C78.0287 70.8247 77.3483 72.9173 76.5556 74.9682C76.3751 75.4553 76.1956 75.9168 76.0172 76.3527C75.0816 78.5235 72.1589 81.0231 67.2491 83.8517C67.0289 83.9741 66.811 84.0895 66.5953 84.1978C61.2887 87.1956 58.0071 88.6954 56.7504 88.6973C55.6645 88.7987 54.5858 88.9656 53.52 89.1972C53.3013 89.2385 53.0962 89.2769 52.9047 89.3126C51.827 89.5266 50.734 89.6552 49.6359 89.6971C43.9956 89.6971 39.5731 88.7358 36.3684 86.8129C32.9842 84.7619 30.0359 81.1341 27.5234 75.9296C26.9594 74.776 25.4339 71.3277 22.947 65.5848C21.0755 61.2264 19.8705 58.6883 19.332 57.9704C17.2554 55.2528 14.9609 50.5867 12.4483 43.9722C10.2692 38.2293 9.17953 34.858 9.17953 33.8581C9.17755 28.0525 10.344 23.1301 12.679 19.0907C13.7254 17.2788 15.0198 15.622 16.5247 14.1683C21.4207 9.47891 25.8945 6.95359 29.9461 6.59234C32.8839 6.28527 35.8403 6.19529 38.7913 6.32315Z" fill="#3B177C"/>
<path d="M42.4062 75.8912C42.4372 75.9595 42.4759 76.024 42.5215 76.0835C42.4843 76.0379 42.4458 75.9866 42.4062 75.9297C42.4005 75.9303 42.4005 75.9175 42.4062 75.8912ZM30.5231 64.7004C31.2065 64.5698 32.1038 64.4288 33.2151 64.2773C38.4058 64.6301 43.4214 66.2976 47.7901 69.1229L47.8286 69.1613C49.5262 70.2468 51.3811 71.064 53.3279 71.5841C53.0909 72.4743 52.7954 73.3479 52.4434 74.1992C51.964 75.4016 51.6159 76.6523 51.405 77.9294C51.3031 78.71 51.0961 79.4732 50.7897 80.1984C50.8528 80.0308 50.9169 79.8513 50.982 79.66C50.8425 78.945 50.6887 78.2272 50.5205 77.5064C50.4192 77.1532 50.342 76.7934 50.2898 76.4296L50.0591 75.1221C50.0572 75.0392 50.0303 74.9588 49.9821 74.8914C49.9045 74.7614 49.8523 74.6178 49.8283 74.4684C49.8071 74.4026 49.7814 74.3383 49.7514 74.2761V74.1992C49.7287 74.1797 49.7148 74.152 49.7129 74.1222C49.7109 74.0925 49.6971 74.0648 49.6745 74.0453C49.6739 73.9917 49.6607 73.9391 49.636 73.8915L49.5591 73.8146C49.5606 73.804 49.557 73.7933 49.5495 73.7857C49.5419 73.7782 49.5312 73.7746 49.5206 73.7761C49.495 73.7248 49.4693 73.6991 49.4437 73.6992C49.4094 73.6678 49.3705 73.6418 49.3283 73.6223L49.2514 73.5454C49.2001 73.5454 49.1617 73.5454 49.136 73.5454C49.0824 73.5448 49.0298 73.5317 48.9822 73.5069C48.8758 73.534 48.7726 73.5727 48.6746 73.6223C48.5929 73.6503 48.5153 73.6891 48.4438 73.7377C48.244 74.0019 48.1482 74.3304 48.1746 74.6606C48.1237 74.7193 48.0724 74.7834 48.0209 74.8529C47.4632 75.6022 46.9248 76.3586 46.4057 77.1219C45.5058 76.0437 44.6469 74.9285 43.829 73.7761C43.2154 72.9197 42.7716 71.9537 42.5215 70.9303V70.7381C42.5268 70.6302 42.5 70.5231 42.4446 70.4304L42.3677 70.3535L42.2907 70.2766C42.2922 70.266 42.2886 70.2553 42.2811 70.2478C42.2735 70.2402 42.2629 70.2366 42.2523 70.2381L42.0984 70.1612L42.0215 70.0843C41.9959 70.0843 41.9575 70.0843 41.9061 70.0843C41.8525 70.0838 41.7998 70.0706 41.7523 70.0458C41.5138 70.1174 41.2917 70.235 41.0985 70.3919C41.0776 70.4219 41.0516 70.448 41.0216 70.4689C41.0126 70.4868 41.0126 70.4996 41.0216 70.5073C40.7992 70.7558 40.6524 71.0627 40.5986 71.3918C40.5914 71.4428 40.5914 71.4946 40.5986 71.5456C40.5833 71.57 40.5704 71.5957 40.5601 71.6226C40.432 72.0328 40.3038 72.4686 40.1756 72.9301C39.9702 74.2307 39.9832 75.5564 40.214 76.8527C40.2915 77.3933 40.4335 77.9226 40.637 78.4294C40.8511 79.0249 41.1351 79.5929 41.4831 80.1215C41.3905 79.9226 41.3134 79.7169 41.2523 79.5062C41.7724 80.98 42.5114 82.3671 43.4443 83.621C44.3384 84.8181 44.9199 86.2191 45.1365 87.6974C45.1889 88.189 45.3187 88.6692 45.521 89.1203V90.8509C44.5435 91.0793 43.5692 91.31 42.5983 91.5431H38.6757C37.3681 91.1329 36.0606 90.7483 34.7531 90.3894C32.4863 89.7165 30.4239 88.487 28.7539 86.8129C28.1129 85.8131 27.4592 84.8132 26.7926 83.8133C25.5804 82.0069 24.659 80.0215 24.0622 77.9294C23.7033 76.7501 23.3828 75.5836 23.1008 74.4299V72.9685C23.1027 72.8776 23.1157 72.7872 23.1393 72.6993C23.3187 72.1353 23.4853 71.5585 23.6391 70.9688C23.7861 70.3481 23.9921 69.7428 24.2544 69.1613C24.4596 68.6229 24.6519 68.0717 24.8313 67.5077C25.0199 67.3512 25.1996 67.1843 25.3697 67.0078C25.7091 66.6781 26.0688 66.3699 26.4465 66.0848C27.0097 65.6679 27.6503 65.3673 28.3309 65.2003C29.0816 65.0206 29.8124 64.854 30.5231 64.7004V64.7004Z" fill="#6B2FBB"/>
<path d="M41.0217 70.4688C41.0517 70.448 41.0778 70.4219 41.0987 70.3919C41.2919 70.235 41.514 70.1174 41.7524 70.0458C41.8 70.0706 41.8527 70.0837 41.9063 70.0843C41.9576 70.0843 41.9961 70.0843 42.0216 70.0843L42.0985 70.1612L42.2524 70.2381C42.263 70.2366 42.2737 70.2402 42.2812 70.2477C42.2888 70.2553 42.2923 70.266 42.2908 70.2766L42.3678 70.3535L42.4447 70.4304C42.5002 70.5231 42.5269 70.6301 42.5216 70.738V70.9303C42.7718 71.9537 43.2156 72.9197 43.8292 73.7761C44.647 74.9285 45.5059 76.0437 46.4058 77.1218C46.9249 76.3585 47.4633 75.6022 48.021 74.8529C48.0726 74.7834 48.1239 74.7193 48.1748 74.6606C48.1483 74.3304 48.2441 74.0019 48.444 73.7377C48.5154 73.6891 48.593 73.6503 48.6747 73.6223C48.7728 73.5727 48.8759 73.534 48.9824 73.5069C49.0299 73.5317 49.0826 73.5448 49.1362 73.5454C49.1618 73.5454 49.2003 73.5454 49.2515 73.5454L49.3285 73.6223C49.3707 73.6418 49.4096 73.6677 49.4438 73.6992C49.4695 73.6991 49.4952 73.7248 49.5207 73.7761C49.5313 73.7746 49.542 73.7781 49.5496 73.7857C49.5572 73.7933 49.5607 73.804 49.5592 73.8146L49.6361 73.8915C49.6609 73.939 49.674 73.9917 49.6746 74.0453C49.6972 74.0647 49.7111 74.0925 49.713 74.1222C49.715 74.152 49.7289 74.1797 49.7515 74.1991V74.276C49.7815 74.3383 49.8072 74.4026 49.8284 74.4683C49.8525 74.6178 49.9047 74.7613 49.9822 74.8914C50.0305 74.9588 50.0573 75.0392 50.0592 75.1221L50.2899 76.4296C50.3422 76.7934 50.4193 77.1532 50.5207 77.5064C50.6888 78.2272 50.8427 78.945 50.9822 79.66C50.9171 79.8512 50.853 80.0307 50.7899 80.1984L49.9054 81.5828C49.8922 81.5948 49.8794 81.6077 49.867 81.6213C49.8156 81.3649 49.7772 81.1213 49.7516 80.8906V80.4676L49.6747 80.3137C49.6741 80.2602 49.661 80.2075 49.6362 80.1599V77.1218C49.6379 76.9772 49.6118 76.8336 49.5593 76.6988L49.444 76.5834C49.4065 76.52 49.3536 76.467 49.2901 76.4296C49.183 76.344 49.0805 76.2543 48.9825 76.1604C48.9545 76.1529 48.9284 76.1398 48.9056 76.122C48.7774 76.0963 48.6364 76.0707 48.4826 76.0451C48.3677 76.068 48.2524 76.0937 48.1364 76.122C48.128 76.1386 48.1146 76.152 48.098 76.1604C48.0023 76.1831 47.9112 76.2221 47.8288 76.2758L47.6749 76.4296C47.5967 76.5084 47.5318 76.5993 47.4826 76.6988C47.413 76.8324 47.3612 76.9747 47.3288 77.1218C47.1759 77.3183 47.0349 77.5106 46.9058 77.6987C46.5949 78.1286 46.3123 78.5782 46.0597 79.0447C46.0024 79.1174 45.951 79.1945 45.9059 79.2754C45.8833 79.2948 45.8694 79.3226 45.8674 79.3523C45.3803 78.9678 44.9189 78.5704 44.4831 78.1602L42.5218 76.0835C42.4761 76.024 42.4374 75.9595 42.4064 75.8912C42.4008 75.9175 42.4008 75.9303 42.4064 75.9297C42.2919 75.7959 42.1765 75.6548 42.0603 75.5067C42.0183 75.5099 41.9767 75.496 41.945 75.4682C41.8792 75.4471 41.8149 75.4214 41.7527 75.3913C41.6531 75.4404 41.5622 75.5054 41.4835 75.5836C41.4322 75.6605 41.3681 75.7502 41.2912 75.8528C41.2365 75.9609 41.1721 76.0639 41.0989 76.1604C41.0421 76.2601 40.9907 76.3628 40.945 76.4681C40.903 76.5547 40.8645 76.6445 40.8297 76.7373C40.7504 76.9241 40.6861 77.117 40.6374 77.3141C40.6419 77.3431 40.6554 77.37 40.6758 77.391C40.6736 77.4572 40.6868 77.5231 40.7143 77.5833C40.7101 77.6374 40.7236 77.6914 40.7527 77.7371L41.2527 79.5062C41.3137 79.7169 41.3909 79.9226 41.4835 80.1215C41.1355 79.5929 40.8515 79.0249 40.6374 78.4294C40.4339 77.9226 40.2919 77.3932 40.2144 76.8526C39.9835 75.5564 39.9705 74.2306 40.1759 72.9301C40.3041 72.4686 40.4323 72.0327 40.5605 71.6225C40.5708 71.5957 40.5837 71.57 40.5989 71.5456C40.5918 71.4946 40.5918 71.4428 40.5989 71.3918C40.6528 71.0627 40.7996 70.7558 41.022 70.5073C41.013 70.4996 41.013 70.4868 41.022 70.4688M33.2153 64.2773C32.104 64.4288 31.2067 64.5698 30.5233 64.7003C29.8126 64.854 29.0819 65.0206 28.3313 65.2003C27.6507 65.3673 27.0101 65.6679 26.4469 66.0848C26.0692 66.3698 25.7095 66.6781 25.3701 67.0077C25.2 67.1842 25.0203 67.3511 24.8317 67.5077C24.6523 68.0718 24.46 68.623 24.2548 69.1613C23.9925 69.7428 23.7865 70.348 23.6395 70.9688C23.4857 71.5584 23.3191 72.1353 23.1397 72.6993C23.1161 72.7872 23.1031 72.8776 23.1012 72.9685V74.4299C23.3832 75.5836 23.7037 76.7501 24.0626 77.9294C24.6594 80.0215 25.5808 82.0069 26.793 83.8133C27.4596 84.8132 28.1133 85.813 28.7543 86.8129C30.4243 88.487 32.4867 89.7165 34.7535 90.3894C36.061 90.7483 37.3686 91.1329 38.6761 91.5431H42.5987C43.5696 91.31 44.5439 91.0793 45.5214 90.8509V91.1585C45.4175 91.4456 45.3403 91.7417 45.2907 92.043C45.223 92.386 45.1199 92.7211 44.983 93.0429C44.6119 93.8988 44.1476 94.7113 43.5986 95.4657C42.1629 96.6963 39.4966 97.3116 35.5997 97.3116C33.3755 97.3564 31.1901 96.7262 29.3312 95.5041C27.505 94.3286 25.5822 92.2006 23.5627 89.1203C23.4779 88.9443 23.3881 88.7649 23.2935 88.5819C22.7295 86.7873 22.2296 85.108 21.7937 83.5441C20.922 80.5188 20.5758 78.5575 20.7553 77.6602C20.7782 76.3554 20.9198 75.0553 21.1783 73.7761C21.7774 70.5269 23.284 67.5137 25.5239 65.0849C25.6777 65.0336 25.8444 64.9823 26.0239 64.9311C26.2289 64.8542 26.4468 64.7773 26.6776 64.7003C26.8571 64.649 27.0493 64.5849 27.2545 64.5081C27.3167 64.478 27.381 64.4523 27.4468 64.4312C29.362 64.2215 31.2913 64.17 33.215 64.2773L33.2153 64.2773Z" fill="#3B177C"/>
<path d="M27.4466 64.4311C27.3808 64.4522 27.3165 64.4779 27.2543 64.508C27.0491 64.5849 26.8568 64.649 26.6774 64.7003C26.4467 64.7772 26.2287 64.8541 26.0237 64.931C25.8442 64.9823 25.6775 65.0336 25.5237 65.0849C23.2838 67.5136 21.7772 70.5269 21.1781 73.7761C20.9196 75.0553 20.778 76.3553 20.7551 77.6602C20.5757 78.5575 20.9218 80.5188 21.7935 83.544C22.2294 85.1079 22.7293 86.7872 23.2933 88.5819C23.3879 88.7649 23.4776 88.9443 23.5625 89.1203C25.582 92.2006 27.5048 94.3285 29.331 95.5041C31.1898 96.7261 33.3753 97.3563 35.5994 97.3115C39.4964 97.3115 42.1627 96.6962 43.5984 95.4656C44.1474 94.7113 44.6116 93.8988 44.9828 93.0428C45.1197 92.7211 45.2228 92.386 45.2905 92.043C45.34 91.7417 45.4173 91.4456 45.5212 91.1585V90.8508V89.1203C45.3189 88.6692 45.1891 88.1889 45.1367 87.6974C44.9201 86.219 44.3386 84.818 43.4445 83.621C42.5116 82.3671 41.7726 80.9799 41.2525 79.5061L40.7526 77.7371C40.7234 77.6914 40.7099 77.6374 40.7142 77.5833C40.6866 77.523 40.6734 77.4572 40.6757 77.391C40.6552 77.37 40.6417 77.3431 40.6373 77.3141C40.6859 77.117 40.7502 76.9241 40.8295 76.7372C40.8644 76.6444 40.9028 76.5546 40.9448 76.468C40.9905 76.3628 41.0419 76.2601 41.0987 76.1604C41.1719 76.0638 41.2363 75.9608 41.291 75.8527C41.3679 75.7502 41.432 75.6604 41.4833 75.5835C41.562 75.5053 41.653 75.4404 41.7525 75.3912C41.8147 75.4213 41.879 75.447 41.9448 75.4681C41.9765 75.496 42.0181 75.5098 42.0601 75.5066C42.1764 75.6549 42.2917 75.7959 42.4062 75.9296C42.4458 75.9865 42.4843 76.0378 42.5216 76.0835L44.4829 78.1601C44.9187 78.5703 45.3802 78.9677 45.8673 79.3523C45.8692 79.3225 45.8831 79.2948 45.9057 79.2754C45.9508 79.1945 46.0022 79.1173 46.0595 79.0446C46.3121 78.5781 46.5947 78.1285 46.9056 77.6986C47.0348 77.5106 47.1758 77.3183 47.3286 77.1218C47.361 76.9746 47.4128 76.8324 47.4824 76.6988C47.5316 76.5992 47.5965 76.5083 47.6747 76.4296L47.8286 76.2757C47.911 76.2221 48.0021 76.183 48.0978 76.1604C48.1144 76.152 48.1279 76.1385 48.1363 76.1219C48.2521 76.0936 48.3675 76.0679 48.4824 76.045C48.6362 76.0706 48.7773 76.0963 48.9054 76.1219C48.9282 76.1397 48.9544 76.1528 48.9823 76.1604C49.0803 76.2543 49.1829 76.344 49.29 76.4296C49.3534 76.467 49.4064 76.5199 49.4438 76.5834L49.5592 76.6988C49.6116 76.8335 49.6377 76.9772 49.6361 77.1218V80.1599C49.6608 80.2074 49.674 80.2601 49.6745 80.3137L49.7514 80.4675V80.8905C49.777 81.1213 49.8154 81.3648 49.8668 81.6212C49.9181 81.8006 49.9694 81.9929 50.0206 82.1981C50.0677 82.3366 50.1063 82.4778 50.136 82.6211C50.2129 82.8518 50.2898 83.0697 50.3667 83.2748C51.3847 86.2384 51.7648 89.3837 51.482 92.5044C51.0657 94.9345 49.8471 97.155 48.0209 98.8113C47.792 99.0231 47.5612 99.2282 47.3287 99.4266C45.8001 101.037 43.8574 102.194 41.714 102.772C40.088 103.235 38.4052 103.468 36.7146 103.465C34.0541 103.423 31.4376 102.779 29.0618 101.58C27.6261 100.883 26.2271 100.113 24.87 99.2728C22.2735 97.0439 19.9533 93.6212 17.9093 89.0049C15.8351 84.4152 14.7326 80.6337 14.6017 77.6602C14.5806 73.6531 15.4337 69.6897 17.1018 66.0463C18.4607 62.8366 21.0727 60.3219 24.3316 59.0856C27.9821 57.6767 31.9627 57.3561 35.7917 58.1627C40.5616 58.9698 45.1873 60.4729 49.5207 62.6236C49.9523 62.7064 50.3893 62.7579 50.8283 62.7775C51.0898 62.7844 51.359 62.7844 51.6358 62.7775C53.4316 63.2306 55.2937 63.3608 57.1351 63.162V63.5851C56.912 64.0155 56.4984 64.315 56.0199 64.3926C55.2743 64.5405 54.5414 64.7462 53.8278 65.0079C53.8856 65.0665 53.9502 65.1182 54.02 65.1618C54.9306 65.7255 55.7699 66.3969 56.5197 67.1615C57.1071 67.6198 57.6839 68.0813 58.2503 68.546C58.492 68.7095 58.7118 68.9033 58.9041 69.1228C59.0803 69.2942 59.1777 69.5308 59.1735 69.7766C59.1714 69.8063 59.1575 69.8341 59.1349 69.8535V70.0458C59.1332 70.1258 59.0893 70.1989 59.0195 70.238C58.5341 70.4965 58.0169 70.6905 57.4812 70.8149C56.5542 70.9517 55.1697 71.2081 53.328 71.584C51.3812 71.064 49.5263 70.2468 47.8287 69.1613L47.7902 69.1228C43.4215 66.2975 38.4059 64.6301 33.2152 64.2773C31.2913 64.17 29.3619 64.2214 27.4466 64.4311Z" fill="#1C003F"/>
<path d="M40.291 13.3608C43.4957 14.2068 46.6876 16.6809 49.8668 20.7829C53.0202 24.8081 54.4816 28.6025 54.2508 32.1661C54.0201 35.7041 52.5588 37.9987 49.8668 39.0498C47.4839 39.9748 45.0266 40.6952 42.5215 41.2034C40.3423 41.6136 38.5989 41.9341 37.2914 42.1648C35.6506 42.4468 30.2283 43.8312 21.0244 46.3181C19.7913 46.6814 18.6138 47.2119 17.5248 47.8949C17.3709 47.9462 16.5121 48.4076 14.9482 49.2793C13.6034 50.0258 12.1285 50.5087 10.6026 50.7022C7.39793 50.9329 4.87262 49.4075 3.02666 46.1259C1.40433 43.0476 0.497295 39.643 0.373093 36.1656C0.270542 34.5504 0.232109 33.3326 0.257801 32.5122C0.25901 31.151 0.57489 29.8085 1.18076 28.5896C1.61264 27.3665 2.22161 26.2133 2.98822 25.167C4.45603 23.2606 6.25341 21.6326 8.29523 20.3599C9.7328 19.3831 11.2219 18.4845 12.7562 17.6679C15.3814 16.5061 18.0947 15.5545 20.8705 14.8222C24.1519 13.823 27.5085 13.0899 30.9077 12.6301C34.0531 12.2507 37.2424 12.4991 40.2911 13.3608M47.5979 27.1283C46.8046 25.6088 45.765 24.2314 44.5213 23.0519C41.6169 20.096 37.5318 18.6118 33.4074 19.0139C27.7313 19.3603 22.1602 20.701 16.948 22.975C16.89 23.0064 16.8387 23.032 16.7941 23.0519L16.4865 23.1672C16.3869 23.2243 16.2842 23.2757 16.1788 23.3211H16.2173C15.9753 23.4258 15.7446 23.5284 15.5251 23.6287C13.6492 24.4498 11.8801 25.4958 10.2565 26.7437C10.1243 26.8693 9.99612 26.9847 9.87194 27.0898C9.51638 27.4453 9.19591 27.7658 8.91052 28.0512C7.81203 29.1027 6.99259 30.4111 6.52613 31.8584C6.10366 32.9885 5.90765 34.1907 5.94928 35.3965C6.01218 36.99 6.41886 38.5511 7.14144 39.9728C8.11573 41.9213 9.52581 42.8314 11.3717 42.7032C12.9985 42.6682 14.5935 42.2463 16.0249 41.4726C17.4207 40.5893 18.9186 39.8791 20.4858 39.3575C21.5649 39.0242 22.9622 38.6524 24.6777 38.2422H24.7161C24.9575 38.2 25.2139 38.1487 25.4852 38.0884L26.2543 37.8961C26.8682 37.7806 27.5219 37.6524 28.2157 37.5116C31.3691 36.8706 34.2534 36.3578 36.8684 35.9733C39.9542 35.5062 42.9662 34.64 45.8288 33.3967C47.726 32.4737 48.649 31.6277 48.5977 30.8586C48.4956 29.5644 48.1566 28.3 47.5978 27.1283L47.5979 27.1283Z" fill="#091628"/>
<path d="M16.1786 23.321C16.284 23.2756 16.3867 23.2242 16.4863 23.1671L16.7939 23.0518C16.8386 23.0319 16.8898 23.0063 16.9478 22.9749C16.7318 23.1412 16.4826 23.2592 16.2171 23.321H16.1786ZM47.29 29.1279C47.6047 28.5117 47.7125 27.8105 47.5977 27.1282C48.1565 28.2999 48.4955 29.5643 48.5976 30.8585C48.6489 31.6276 47.7259 32.4736 45.8287 33.3966C42.9661 34.6399 39.9541 35.5061 36.8683 35.9732C34.2533 36.3578 31.369 36.8705 28.2156 37.5115C27.5218 37.6523 26.868 37.7805 26.2542 37.896L25.4851 38.0883C25.2138 38.1486 24.9574 38.1999 24.716 38.2421H24.6776C22.9621 38.6523 21.5649 39.0241 20.4857 39.3574C18.9185 39.879 17.4206 40.5892 16.0248 41.4725C14.5934 42.2462 12.9984 42.6681 11.3716 42.7031C9.52566 42.8313 8.11559 41.9211 7.14135 39.9727C6.41877 38.551 6.0121 36.9899 5.9492 35.3963C5.90756 34.1906 6.10357 32.9884 6.52604 31.8583C6.9925 30.411 7.81194 29.1026 8.91043 28.0511C9.19585 27.7657 9.51632 27.4452 9.87185 27.0897C9.99606 26.9846 10.1243 26.8692 10.2564 26.7436C11.88 25.4957 13.6491 24.4497 15.525 23.6286C15.1404 24.0645 14.743 24.5131 14.3328 24.9746C14.297 25.0157 14.2585 25.0542 14.2174 25.09C13.2346 26.397 12.6473 27.9586 12.5253 29.5894C12.5019 31.0564 13.2079 32.4395 14.4097 33.2812C16.0249 34.5118 18.5886 35.14 22.101 35.1656C23.5268 35.2218 24.9548 35.1575 26.3697 34.9733C28.2156 34.5375 30.0744 34.1529 31.9459 33.8196C33.6632 33.5132 36.1373 33.0773 39.368 32.5121C42.5989 31.9721 44.6627 31.3824 45.5595 30.7431C46.2328 30.3184 46.8199 29.7704 47.29 29.1279V29.1279Z" fill="#4E7A8D"/>
<path d="M47.5979 27.1284C47.7127 27.8107 47.6049 28.5119 47.2902 29.1281C46.8201 29.7706 46.233 30.3186 45.5597 30.7433C44.663 31.3826 42.5991 31.9723 39.3682 32.5123C36.1375 33.0775 33.6635 33.5134 31.9461 33.8198C30.0745 34.1531 28.2158 34.5377 26.3699 34.9735C24.9549 35.1577 23.527 35.222 22.1012 35.1658C18.5888 35.1402 16.025 34.512 14.4099 33.2814C13.2081 32.4397 12.5021 31.0566 12.5255 29.5896C12.6475 27.9588 13.2348 26.3972 14.2176 25.0902C14.2587 25.0544 14.2972 25.0159 14.333 24.9748C14.7432 24.5133 15.1406 24.0646 15.5251 23.6288C15.7447 23.5285 15.9754 23.4259 16.2174 23.3212C16.4829 23.2594 16.732 23.1414 16.948 22.975C22.1602 20.7011 27.7314 19.3604 33.4075 19.014C37.5319 18.6119 41.617 20.0961 44.5214 23.052C45.7651 24.2315 46.8047 25.6089 47.5979 27.1284M31.3308 24.1287C31.5451 24.1265 31.7559 24.0738 31.9461 23.9749C34.7919 24.2057 37.6121 24.5005 40.4065 24.8594C40.7244 24.8807 41.0303 24.735 41.2141 24.4749C41.284 24.3894 41.3482 24.2995 41.4064 24.2057C41.411 24.2162 41.4238 24.2162 41.4448 24.2057C41.764 24.0189 41.9984 23.7156 42.0986 23.3596V23.052C42.1233 23.0044 42.1365 22.9517 42.137 22.8981C42.1324 22.8574 42.1193 22.8181 42.0986 22.7828V22.6289C42.0739 22.5814 42.0607 22.5287 42.0602 22.4751V22.3213C40.4151 20.9351 38.3275 20.1846 36.1763 20.2062C35.2213 20.208 34.2683 20.1179 33.3305 19.937C33.2268 19.9368 33.1235 19.9239 33.0229 19.8985C32.0433 19.7666 31.0469 19.8453 30.1001 20.1293C29.8796 20.1975 29.6718 20.3015 29.4849 20.4369C29.3774 20.4777 29.2744 20.5292 29.1772 20.5907C28.7678 20.846 28.4667 21.2429 28.3312 21.706V22.0136C28.3344 22.0557 28.3206 22.0973 28.2927 22.129C28.3184 22.2828 28.344 22.4367 28.3696 22.5905C28.3995 22.9076 28.5349 23.2055 28.7542 23.4365C28.9732 23.658 29.2187 23.8518 29.4849 24.0134C30.0916 24.1395 30.7131 24.1783 31.3307 24.1288L31.3308 24.1287Z" fill="#90C3D0"/>
<path d="M31.946 23.9747C31.7558 24.0736 31.545 24.1263 31.3307 24.1285C30.7131 24.1781 30.0915 24.1393 29.4849 24.0132C29.2186 23.8515 28.9732 23.6578 28.7541 23.4363C28.5348 23.2053 28.3994 22.9074 28.3696 22.5903C28.344 22.4364 28.3184 22.2826 28.2927 22.1288C28.3205 22.0971 28.3343 22.0555 28.3311 22.0134V21.7058C28.4666 21.2427 28.7677 20.8458 29.1772 20.5905C29.2743 20.529 29.3773 20.4775 29.4848 20.4367C29.6717 20.3013 29.8796 20.1973 30.1001 20.1291C31.0468 19.8451 32.0432 19.7664 33.0228 19.8983C33.1234 19.9237 33.2267 19.9366 33.3305 19.9368C34.2682 20.1176 35.2212 20.2078 36.1762 20.206C38.3274 20.1844 40.415 20.9349 42.0601 22.3211V22.4749C42.0607 22.5285 42.0738 22.5812 42.0985 22.6287V22.7826C42.1192 22.8179 42.1323 22.8572 42.137 22.8979C42.1364 22.9515 42.1232 23.0042 42.0985 23.0518V23.3594C41.9983 23.7154 41.7639 24.0187 41.4447 24.2055C41.4237 24.216 41.4109 24.216 41.4063 24.2055C41.3482 24.2993 41.2839 24.3892 41.2141 24.4747C41.0302 24.7348 40.7243 24.8805 40.4065 24.8592C37.612 24.5003 34.7918 24.2055 31.946 23.9747Z" fill="white"/>
</g>
<defs>
<clipPath id="clip0_1_1199">
<rect width="99.9872" height="113.062" fill="white" transform="translate(0.00634766 0.4375)"/>
</clipPath>
</defs>
</svg>
