<svg width="40" height="62" viewBox="0 0 40 62" fill="none" xmlns="http://www.w3.org/2000/svg">
<g clip-path="url(#clip0_1_1223)">
<path d="M11 12C14.3137 12 17 9.31371 17 6C17 2.68629 14.3137 0 11 0C7.68629 0 5 2.68629 5 6C5 9.31371 7.68629 12 11 12Z" fill="#FFFDE9"/>
<path d="M36 35C38.2091 35 40 33.2091 40 31C40 28.7909 38.2091 27 36 27C33.7909 27 32 28.7909 32 31C32 33.2091 33.7909 35 36 35Z" fill="#D6D5D9"/>
<path d="M2.5 54C3.88071 54 5 52.8807 5 51.5C5 50.1193 3.88071 49 2.5 49C1.11929 49 0 50.1193 0 51.5C0 52.8807 1.11929 54 2.5 54Z" fill="#FFFDE9"/>
<path d="M31 62C31.5523 62 32 61.5523 32 61C32 60.4477 31.5523 60 31 60C30.4477 60 30 60.4477 30 61C30 61.5523 30.4477 62 31 62Z" fill="#FFFDE9"/>
</g>
<defs>
<clipPath id="clip0_1_1223">
<rect width="40" height="62" fill="white"/>
</clipPath>
</defs>
</svg>
