<svg width="108" height="120" viewBox="0 0 108 120" fill="none" xmlns="http://www.w3.org/2000/svg">
<g clip-path="url(#clip0_1_1178)" filter="url(#filter0_d_1_1178)">
<path d="M9.41248 71.8973C9.98048 72.8796 10.763 73.721 11.7016 74.3586C12.6402 74.9962 13.7107 75.4136 14.8332 75.5797C18.0726 76.1736 21.404 76.0354 24.5831 75.175C27.7177 73.6721 31.2644 73.2591 34.6605 74.0016C34.6317 75.3101 34.7785 76.6167 35.0971 77.8862C35.3752 79.0668 35.8289 80.199 36.4431 81.2448C37.6876 81.0446 38.8275 80.8692 39.8629 80.7188C42.2058 80.3634 44.0733 80.1206 45.4655 79.9904C46.8893 79.9036 48.2957 79.6315 49.6492 79.1811C50.1297 78.9474 50.6464 78.7969 51.1772 78.736C51.5054 77.874 51.7372 76.9783 51.8684 76.0653C52.013 75.4243 52.1223 74.7759 52.1959 74.1229L52.0503 71.8164C51.0451 67.8172 49.6813 63.9167 47.9757 60.1624C47.5615 60.5651 47.1242 60.9435 46.666 61.2954C43.1495 60.914 37.9107 60.9545 30.9497 61.4168C23.9911 61.8832 19.1646 62.5576 16.4703 63.44C13.8007 64.3263 11.9574 65.6616 10.9405 67.4461C10.9454 67.4592 10.9454 67.4735 10.9405 67.4866C10.9329 67.5036 10.9202 67.5178 10.9041 67.5271C10.82 67.6923 10.7352 67.8542 10.6494 68.0127C10.0635 69.2457 9.64738 70.5525 9.41248 71.8973Z" fill="#0A4D2E"/>
<path d="M15.6834 74.8817C14.516 74.6579 13.4174 74.1633 12.4759 73.4377C11.5345 72.712 10.7764 71.7756 10.2628 70.7036C10.1568 71.5138 10.072 72.3556 10.0081 73.2288C9.84045 76.2628 10.4225 78.6809 11.7544 80.4831C12.5696 81.6247 13.6529 82.5483 14.909 83.1728C16.1651 83.7973 17.5555 84.1034 18.9577 84.0643C21.7226 84.0642 25.9306 83.5133 31.5817 82.4114C33.6764 81.9954 35.5803 81.6281 37.2934 81.3095C36.6734 80.1064 36.2205 78.8243 35.9473 77.4987C35.6282 76.0519 35.4816 74.5724 35.5108 73.0911C32.1038 72.2501 28.505 72.7256 25.4334 74.4225C22.2746 75.3978 18.92 75.5558 15.6834 74.8817Z" fill="#11802D"/>
<path d="M8.80612 62.9665C5.60618 66.19 4.00544 70.6284 4.00391 76.2818C4.00391 79.4105 5.38636 82.1754 8.15127 84.5765C11.377 87.3899 15.7427 88.7967 21.2482 88.7967C21.9664 88.8024 22.6839 88.7537 23.3947 88.6511C27.0812 88.0933 30.3433 87.6082 33.181 87.1959C38.6138 86.4198 43.8768 85.9226 48.9701 85.7043C51.4683 85.5831 53.1054 85.195 53.8814 84.5401C54.328 84.1839 54.7095 83.7531 55.0093 83.2668C55.1672 82.8869 55.2416 82.4775 55.2275 82.0663C55.1754 81.4518 54.962 80.862 54.6091 80.3564C54.026 79.4054 53.1428 78.6758 52.0989 78.2827C51.572 78.3366 51.0566 78.4716 50.5709 78.6829C49.2098 79.0892 47.8055 79.3335 46.3871 79.4105C44.995 79.5275 43.1275 79.7458 40.7845 80.0653C39.7491 80.2006 38.6092 80.3583 37.3648 80.5383C35.6517 80.7908 33.7478 81.0818 31.6531 81.4114C27.4805 82.1402 23.2623 82.5778 19.0291 82.7211C17.6962 82.7828 16.3653 82.5618 15.1239 82.0728C13.8824 81.5837 12.7584 80.8376 11.8257 79.8834C10.4939 78.4554 9.9118 76.5394 10.0795 74.1353C10.1433 73.4433 10.2282 72.7764 10.3341 72.1344C10.5725 70.9158 10.9893 69.7389 11.5711 68.6419C11.6568 68.4994 11.7417 68.3539 11.8257 68.2053C11.8414 68.1974 11.8542 68.1846 11.8621 68.1689C11.8646 68.1632 11.8658 68.157 11.8658 68.1508C11.8658 68.1445 11.8646 68.1383 11.8621 68.1326C12.8791 66.5282 14.7223 65.3277 17.3919 64.5309C20.0863 63.7375 24.9127 63.1312 31.8713 62.7119C38.8324 62.2963 44.0712 62.2599 47.5877 62.6027C48.0432 62.2883 48.4805 61.9482 48.8974 61.5841C50.3996 59.4036 49.6599 58.0575 46.6782 57.5459C43.6995 57.0297 37.4421 57.0054 27.9059 57.4731C18.3696 57.9407 12.003 59.7719 8.80612 62.9665Z" fill="#052519"/>
<path d="M103.841 43.2091C103.412 39.1918 102.67 35.2142 101.621 31.3127C99.9964 24.6914 97.8499 19.6952 95.182 16.3239C92.3212 12.0795 89.338 8.93869 86.2324 6.90139C83.1519 4.88834 80.6537 4.05159 78.7381 4.39114C73.2082 5.33707 69.5217 6.574 67.6785 8.10194C67.1786 8.45268 66.7978 8.94769 66.587 9.52074C66.5163 9.71924 66.5037 9.93379 66.5507 10.1392C66.7026 11.4879 66.9953 12.8169 67.4238 14.1047C68.3939 17.4274 69.2792 20.835 70.0796 24.3276C70.3706 25.5888 71.4984 29.8574 73.4629 37.1335C75.2819 44.4096 76.1914 49.6484 76.1915 52.8498C76.1319 56.2209 75.8768 59.5857 75.4275 62.9272C75.3547 65.9589 76.3612 67.8022 78.4471 68.457C80.3563 68.9093 82.3067 69.1653 84.2679 69.221C86.2809 69.3665 88.0757 69.4393 89.6522 69.4393C92.8293 69.4419 95.6913 67.5986 98.238 63.9095C100.809 60.2138 102.313 57.3762 102.749 55.3965C103.209 53.4189 103.561 51.5635 103.804 49.8303C104.053 47.6308 104.065 45.411 103.841 43.209M87.0692 15.3416C88.5881 17.2111 89.9624 19.1935 91.1802 21.2716C92.8953 24.108 94.2402 27.1523 95.182 30.3303C95.3275 30.8639 95.8005 32.3191 96.6009 34.696C97.3637 38.2333 97.7177 41.8465 97.6559 45.4646C97.6241 48.7654 97.0842 52.0417 96.0552 55.1782C95.5438 56.9573 94.745 58.6409 93.6905 60.1623L92.0897 61.8722C91.0339 62.7068 89.7248 63.156 88.3789 63.1455C86.1435 62.9052 83.8968 62.7838 81.6485 62.7817C82.0366 55.2146 82.1457 50.7155 81.976 49.2845C81.4054 47.0795 80.956 44.8448 80.6299 42.5905C80.2418 39.8741 80.0235 38.3583 79.975 38.043C79.9508 37.946 79.7204 37.1577 79.2838 35.6783C75.2819 22.6299 73.281 14.7474 73.281 12.031C73.281 11.9074 73.4508 11.7498 73.7904 11.558C74.5417 11.185 75.32 10.8688 76.1187 10.6122C76.4088 10.5112 76.6877 10.4142 76.9555 10.3211C78.6096 9.81765 80.3814 9.85589 82.0123 10.4303C82.7399 10.7213 84.4255 12.3584 87.0692 15.3416H87.0692Z" fill="#052519"/>
<path d="M92.9264 33.8956C92.8537 33.653 92.7809 33.3862 92.7082 33.0952C91.9359 29.9529 90.8259 26.9035 89.3975 24.0001C88.1367 21.3812 86.425 19.0045 84.3407 16.9787C84.3401 16.928 84.3277 16.8781 84.3043 16.8331C84.2999 16.7946 84.2875 16.7575 84.2679 16.724C83.9756 16.286 83.6338 15.8831 83.2492 15.5234C81.503 13.947 79.684 12.4311 77.7922 10.9759C77.521 10.761 77.2421 10.5428 76.9554 10.321C76.6877 10.4141 76.4088 10.5111 76.1187 10.6121C75.32 10.8688 74.5417 11.1849 73.7903 11.558C73.4508 11.7497 73.281 11.9074 73.281 12.0309C73.281 14.7474 75.2819 22.6298 79.2838 35.6782C79.7203 37.1577 79.9508 37.9459 79.975 38.0429C80.0235 38.3582 80.2418 39.8741 80.6299 42.5905C80.956 44.8447 81.4053 47.0794 81.9759 49.2845C82.1458 50.7154 82.0366 55.2145 81.6485 62.7816C83.8968 62.7837 86.1434 62.9052 88.3789 63.1454C89.7247 63.156 91.0338 62.7067 92.0897 61.8721L93.6904 60.1622C92.7252 59.5869 91.7293 59.0647 90.7072 58.5979C90.78 58.4524 90.8528 58.319 90.9255 58.1977C90.9724 58.105 91.009 58.0074 91.0347 57.9066C91.0604 57.8243 91.0726 57.7383 91.071 57.652C91.4026 57.3751 91.6223 56.9873 91.6895 56.5606C91.7628 56.001 91.9353 55.4589 92.1988 54.9598C92.4855 54.3977 92.6233 53.7714 92.599 53.1408C92.6729 52.9667 92.7219 52.7829 92.7445 52.5951C92.7688 52.4496 92.793 52.3162 92.8173 52.1949C92.843 52.0942 92.8796 51.9966 92.9264 51.9039C92.9264 51.8796 92.9264 51.8432 92.9264 51.7947C92.9264 51.7462 92.9264 51.6977 92.9264 51.6492C92.975 51.4552 93.0235 51.2733 93.072 51.1035C93.1205 50.8852 93.1811 50.6548 93.2539 50.4123C93.3266 50.2425 93.3994 50.0606 93.4721 49.8666C93.4964 49.5517 93.4964 49.2355 93.4721 48.9207C93.446 48.5052 93.4828 48.0882 93.5813 47.6837C93.6774 47.3284 93.7143 46.9597 93.6904 46.5923C93.8627 46.0146 93.9365 45.4119 93.9087 44.8097C93.8845 44.0336 93.8845 43.2696 93.9087 42.5177C93.9346 41.6874 93.8613 40.8569 93.6904 40.0439C93.6905 39.7771 93.6905 39.5103 93.6904 39.2435C93.6914 38.9629 93.667 38.6829 93.6177 38.4067C93.5953 38.2223 93.5588 38.0399 93.5085 37.861C93.5086 37.8125 93.5086 37.764 93.5085 37.7155C93.5086 37.5458 93.5086 37.3639 93.5085 37.1698C93.5096 37.0355 93.4974 36.9015 93.4721 36.7696C93.4721 36.6726 93.4721 36.5877 93.4721 36.515C93.4005 36.3245 93.3398 36.1302 93.2902 35.9329C93.2395 35.7078 93.1664 35.4885 93.072 35.278C93.0274 35.147 92.9909 35.0133 92.9628 34.8778C92.9629 34.7808 92.9629 34.6838 92.9628 34.5868C92.9644 34.5005 92.9521 34.4145 92.9264 34.3321C92.9264 34.2351 92.9264 34.1381 92.9264 34.0411C92.9264 33.9926 92.9264 33.9441 92.9264 33.8956Z" fill="#0A4D2E"/>
<path d="M91.1802 21.2717C89.9624 19.1936 88.5881 17.2112 87.0692 15.3417C84.4256 12.3585 82.7399 10.7214 82.0123 10.4304C80.3814 9.85601 78.6096 9.81777 76.9554 10.3212C77.2421 10.5429 77.521 10.7612 77.7922 10.9761C79.684 12.4313 81.503 13.9471 83.2493 15.5236C83.6338 15.8833 83.9757 16.2862 84.2679 16.7242C84.2875 16.7576 84.2999 16.7948 84.3043 16.8333C84.3277 16.8783 84.3402 16.9282 84.3407 16.9788C86.425 19.0047 88.1367 21.3814 89.3975 24.0003C90.8259 26.9037 91.9359 29.9531 92.7082 33.0954C92.7809 33.3864 92.8537 33.6532 92.9264 33.8957C92.9264 33.9443 92.9264 33.9928 92.9264 34.0413C92.9264 34.1383 92.9264 34.2353 92.9264 34.3323C92.9521 34.4147 92.9644 34.5007 92.9628 34.587C92.9629 34.684 92.9629 34.781 92.9628 34.878C92.9909 35.0135 93.0274 35.1472 93.072 35.2782C93.1664 35.4886 93.2395 35.708 93.2903 35.9331C93.3398 36.1304 93.4005 36.3247 93.4722 36.5151C93.4721 36.5879 93.4721 36.6728 93.4722 36.7698C93.4974 36.9017 93.5096 37.0357 93.5085 37.17C93.5086 37.3641 93.5086 37.546 93.5085 37.7157C93.5086 37.7642 93.5086 37.8127 93.5085 37.8612C93.5588 38.0401 93.5953 38.2225 93.6177 38.4069C93.667 38.6831 93.6914 38.9631 93.6904 39.2437C93.6905 39.5105 93.6905 39.7772 93.6904 40.044C93.8613 40.857 93.9346 41.6875 93.9087 42.5179C93.8845 43.2698 93.8845 44.0338 93.9087 44.8099C93.9365 45.4121 93.8627 46.0148 93.6904 46.5925C93.7143 46.9599 93.6775 47.3286 93.5813 47.6839C93.4828 48.0884 93.446 48.5054 93.4722 48.9209C93.4964 49.2357 93.4964 49.5519 93.4722 49.8668C93.3994 50.0608 93.3266 50.2427 93.2539 50.4125C93.1811 50.655 93.1205 50.8854 93.072 51.1037C93.0235 51.2735 92.975 51.4554 92.9264 51.6494C92.9264 51.6979 92.9264 51.7464 92.9264 51.7949C92.9264 51.8434 92.9264 51.8798 92.9264 51.9041C92.8796 51.9968 92.843 52.0944 92.8173 52.1951C92.7931 52.3164 92.7688 52.4498 92.7445 52.5953C92.7219 52.7831 92.673 52.9668 92.599 53.141C92.6233 53.7716 92.4855 54.3978 92.1988 54.96C91.9353 55.4591 91.7628 56.0012 91.6895 56.5608C91.6223 56.9875 91.4026 57.3753 91.0711 57.6522C91.0727 57.7385 91.0604 57.8244 91.0347 57.9068C91.009 58.0075 90.9724 58.1051 90.9255 58.1979C90.8528 58.3191 90.78 58.4525 90.7072 58.5981C91.7293 59.0649 92.7252 59.5871 93.6904 60.1624C94.745 58.641 95.5437 56.9574 96.0552 55.1783C97.0842 52.0418 97.6241 48.7656 97.6559 45.4647C97.7177 41.8466 97.3637 38.2334 96.6009 34.6961C95.8005 32.3193 95.3275 30.864 95.182 30.3305C94.2402 27.1525 92.8953 24.1081 91.1802 21.2717Z" fill="#11802D"/>
<path d="M89.8705 59.8348C90.2827 57.4579 90.4889 53.3954 90.489 47.6473C90.4702 41.4221 89.4381 35.2415 87.433 29.348C85.0083 21.8612 80.9015 15.029 75.4275 9.37516C74.3418 8.17882 73.1617 7.0717 71.8986 6.0645C71.2664 5.65438 70.4054 5.07229 69.3156 4.31824C67.5008 3.24758 65.573 2.38129 63.5674 1.73523C60.4245 0.668144 57.136 0.0914254 53.8175 0.0253515C49.5845 -0.068957 45.3593 0.43317 41.2662 1.51695C36.6629 2.6589 33.0612 4.44154 30.4613 6.86487C27.6982 9.54246 25.3883 12.651 23.6217 16.0691C21.6562 19.8064 20.674 23.2261 20.6749 26.3284C20.6749 29.5541 21.9604 34.7929 24.5313 42.0447C27.0778 49.2966 28.3512 53.9654 28.3512 56.0512C28.3512 61.3385 28.7635 65.3282 29.5881 68.0204C30.7766 71.9494 33.5536 77.0063 37.9193 83.191C37.2874 83.1604 36.656 83.2594 36.0638 83.482L45.5591 91.5585C56.3763 90.9037 64.3678 89.3393 69.5338 86.8654C75.8883 83.8338 81.0786 78.498 85.1047 70.858C87.503 67.5893 89.1322 63.8212 89.8705 59.8348ZM33.7355 11.0122C34.0976 10.6013 34.5284 10.2566 35.0088 9.99359C35.0237 9.98055 35.041 9.97062 35.0597 9.96437C35.0785 9.95812 35.0983 9.95569 35.118 9.95721C36.5974 9.13259 38.1012 8.3686 39.6291 7.66524C40.7431 7.14031 41.9155 6.74952 43.1216 6.50107H43.5218C45.0693 6.19523 46.6386 6.01276 48.2149 5.95536H49.3063C52.4999 5.90007 55.6942 6.02152 58.8744 6.31917C60.6003 6.52567 62.2826 7.00456 63.8585 7.738C65.5158 8.59226 67.0564 9.65601 68.4424 10.9031C70.1132 12.3362 71.0227 13.1124 71.171 13.2314C73.0627 14.7837 75.6579 18.9674 78.9564 25.7827C82.3034 32.6707 83.9769 37.3881 83.9769 39.9347C84.0009 40.8505 84.0982 41.7629 84.2679 42.6632C84.4636 43.8035 84.7304 46.3138 85.0683 50.194C85.3774 54.3336 84.9588 58.4954 83.8313 62.4905C83.2997 64.4163 82.4908 66.2546 81.4302 67.9476C81.2294 68.3026 81.0111 68.6542 80.7754 69.0026L74.1178 77.1882C74.0744 77.2416 74.0256 77.2904 73.9722 77.3338C73.9168 77.3994 73.856 77.4602 73.7903 77.5157C73.5932 77.4941 72.2714 78.1004 69.8249 79.3347C69.245 79.6266 68.6023 79.954 67.8967 80.317C62.3417 83.153 57.4424 84.6204 53.199 84.719C49.8763 83.482 48.0209 82.7787 47.6328 82.6089C46.2576 82.0593 44.9512 81.3512 43.7401 80.4989C42.4092 79.5736 41.2098 78.4721 40.1748 77.2246C39.9191 76.9313 39.6887 76.6645 39.4836 76.4242C39.2558 76.1414 39.0618 75.8867 38.9015 75.6603C38.7703 75.4978 38.6489 75.3277 38.5377 75.1509C38.491 75.0721 37.9696 74.0898 36.9734 72.2041C35.8579 69.9383 35.027 67.5433 34.4995 65.0736C33.8611 62.3034 33.5076 59.4753 33.4445 56.6333C33.4235 53.9556 33.2291 51.2821 32.8624 48.6296C32.062 43.0513 30.7644 38.5401 28.9697 35.0961C27.5216 32.2593 26.785 29.113 26.8232 25.9282C26.8063 22.2817 27.8697 18.7119 29.8792 15.6689C30.4928 14.7353 31.1737 13.8477 31.9165 13.0132C31.9685 12.9554 32.0171 12.8947 32.062 12.8313C32.2209 12.6705 32.3786 12.5128 32.5349 12.3583C32.6076 12.2833 32.6804 12.2105 32.7532 12.14C32.8489 11.9962 32.9586 11.8621 33.0807 11.7398C33.1206 11.7214 33.1574 11.6969 33.1898 11.6671C33.3596 11.4488 33.5415 11.2305 33.7355 11.0122ZM52.7625 84.719C52.1896 84.6127 51.6448 84.3898 51.1617 84.0641L53.1626 84.719H52.7625Z" fill="#052519"/>
<path d="M51.1617 84.0641C51.6447 84.3898 52.1896 84.6127 52.7624 84.719H53.1626L51.1617 84.0641ZM38.8651 9.66616C38.4528 10.03 38.0526 10.3938 37.6645 10.7576C37.325 11.0729 36.9854 11.4003 36.6459 11.7398C36.6353 11.7489 36.6266 11.76 36.6203 11.7725C36.6141 11.785 36.6104 11.7987 36.6095 11.8126L36.5367 11.9581C36.5104 12.0336 36.459 12.0977 36.3912 12.14L36.3185 12.2128C36.3166 12.2912 36.2913 12.3672 36.2457 12.4311C35.9824 12.8122 35.7741 13.2286 35.6272 13.668C35.5779 13.7436 35.5525 13.8324 35.5545 13.9227C35.5244 14.0181 35.5001 14.1153 35.4817 14.2137C35.4575 14.3108 35.4332 14.4199 35.4089 14.5411V14.6139C35.3604 14.8807 35.3241 15.1475 35.2998 15.4143C35.2998 15.462 35.2998 15.5105 35.2998 15.5598C35.3116 15.6087 35.3237 15.6572 35.3362 15.7053C35.483 16.2182 35.5924 16.741 35.6636 17.2697C35.9255 17.8807 36.1325 18.5137 36.2821 19.1615C36.3613 19.4916 36.4462 19.819 36.5367 20.1437C36.5907 20.2682 36.6514 20.3897 36.7186 20.5075C37.2299 21.7979 38.0114 22.9639 39.0106 23.9273C39.8764 24.6876 40.4968 25.6879 40.7932 26.8013C40.959 26.9661 41.1055 27.1492 41.2298 27.347C41.2835 27.4289 41.3321 27.5139 41.3753 27.6017L41.5209 27.8928C43.8379 30.8502 45.7016 34.1362 47.0507 37.6427C48.5456 41.5657 49.7138 45.6056 50.5432 49.721C50.6666 49.9713 50.7407 50.2431 50.7615 50.5214C50.7857 50.8124 50.8221 51.0913 50.8706 51.3581C50.8956 51.5389 50.9078 51.7213 50.907 51.9038C50.9555 52.0736 51.0162 52.2555 51.0889 52.4495C51.1374 52.6193 51.1981 52.8012 51.2708 52.9952C51.3436 53.262 51.4285 53.5288 51.5255 53.7956C51.6213 54.4339 51.6699 55.0784 51.671 55.7238C51.7194 56.6455 51.7316 57.555 51.7074 58.4523V58.707C51.7543 58.7997 51.7909 58.8973 51.8165 58.998C51.8408 59.095 51.865 59.1799 51.8893 59.2527C51.8642 59.5337 51.8888 59.817 51.962 60.0894C52.0106 60.3562 52.0591 60.623 52.1076 60.8898C52.1561 61.0838 52.2046 61.2657 52.2531 61.4355C52.3013 62.1854 52.4231 62.9287 52.6169 63.6547C52.888 64.7078 53.3173 65.7136 53.8902 66.6379C56.8894 70.4864 59.9939 72.7905 63.2036 73.5502C66.6258 74.3076 70.1785 74.2452 73.572 73.3683C76.4105 72.9697 79.0299 71.1628 81.4302 67.9476C82.4908 66.2546 83.2996 64.4163 83.8313 62.4905C84.9587 58.4954 85.3773 54.3336 85.0682 50.194C84.7303 46.3137 84.4635 43.8035 84.2679 42.6632C84.0981 41.7629 84.0008 40.8505 83.9768 39.9347C83.9768 37.3881 82.3033 32.6708 78.9563 25.7827C75.6578 18.9674 73.0627 14.7837 71.1709 13.2314C71.0227 13.1123 70.1132 12.3362 68.4424 10.9031C67.0563 9.656 65.5157 8.59225 63.8584 7.738C62.2825 7.00456 60.6003 6.52567 58.8743 6.31916C55.6941 6.02152 52.4999 5.90007 49.3063 5.95536H48.2149V5.99174C48.1749 6.01019 48.1381 6.03474 48.1057 6.0645L48.033 6.13726C47.993 6.1557 47.9562 6.18025 47.9238 6.21002C46.4696 6.2304 45.0251 6.45075 43.6309 6.86487C42.7344 7.15555 41.8592 7.50807 41.0115 7.9199C40.2596 8.47775 39.5441 9.05983 38.8651 9.66616H38.8651Z" fill="#11802D"/>
<path d="M35.0088 9.99355C34.5284 10.2566 34.0975 10.6013 33.7355 11.0122C33.5414 11.2305 33.3595 11.4488 33.1898 11.667C33.1574 11.6968 33.1206 11.7214 33.0806 11.7398C32.9585 11.8621 32.8489 11.9961 32.7532 12.14C32.6803 12.2105 32.6076 12.2832 32.5349 12.3583C32.3785 12.5128 32.2209 12.6705 32.062 12.8312C32.017 12.8946 31.9685 12.9554 31.9165 13.0131C31.1737 13.8476 30.4927 14.7353 29.8792 15.6689C27.8697 18.7118 26.8063 22.2817 26.8232 25.9282C26.7849 29.1129 27.5216 32.2593 28.9696 35.096C30.7644 38.5401 32.062 43.0512 32.8623 48.6296C33.2291 51.2821 33.4235 53.9556 33.4444 56.6333C33.5076 59.4753 33.8611 62.3034 34.4995 65.0735C35.027 67.5433 35.8579 69.9383 36.9733 72.2041C37.9695 74.0898 38.491 75.072 38.5377 75.1509C38.6488 75.3277 38.7703 75.4977 38.9015 75.6602C39.0617 75.8867 39.2557 76.1413 39.4836 76.4242C39.6887 76.6645 39.9191 76.9313 40.1748 77.2246C41.2098 78.4721 42.4092 79.5735 43.7401 80.4988C44.9512 81.3512 46.2576 82.0593 47.6328 82.6089C48.0209 82.7787 49.8763 83.4821 53.199 84.7189C57.4424 84.6203 62.3416 83.153 67.8967 80.3169C68.6022 79.954 69.245 79.6265 69.8249 79.3346C72.2714 78.1004 73.5932 77.4941 73.7903 77.5156C73.856 77.4602 73.9168 77.3994 73.9722 77.3337C74.0256 77.2903 74.0744 77.2416 74.1178 77.1882L80.7754 69.0026C81.0111 68.6543 81.2293 68.3026 81.4302 67.9476C79.03 71.1627 76.4106 72.9696 73.572 73.3682C70.1785 74.2452 66.6258 74.3075 63.2036 73.5502C59.9939 72.7904 56.8894 70.4863 53.8902 66.6379C53.3173 65.7136 52.888 64.7078 52.6169 63.6547C52.4231 62.9287 52.3013 62.1853 52.2531 61.4355C52.2046 61.2656 52.1561 61.0837 52.1076 60.8898C52.0591 60.623 52.0106 60.3562 51.9621 60.0894C51.8888 59.8169 51.8642 59.5337 51.8893 59.2526C51.8651 59.1799 51.8408 59.095 51.8165 58.998C51.7909 58.8973 51.7543 58.7997 51.7074 58.7069V58.4523C51.7317 57.5549 51.7195 56.6454 51.671 55.7237C51.6699 55.0783 51.6213 54.4339 51.5255 53.7956C51.4285 53.5288 51.3436 53.262 51.2708 52.9952C51.1981 52.8012 51.1374 52.6193 51.0889 52.4495C51.0162 52.2555 50.9555 52.0736 50.907 51.9038C50.9078 51.7213 50.8956 51.5389 50.8707 51.3581C50.8221 51.0913 50.7858 50.8124 50.7615 50.5213C50.7407 50.243 50.6666 49.9713 50.5432 49.721C49.7138 45.6055 48.5457 41.5657 47.0507 37.6427C45.7016 34.1362 43.8379 30.8502 41.5209 27.8927L41.3754 27.6017C41.3322 27.5139 41.2836 27.4288 41.2298 27.347C41.1055 27.1491 40.959 26.9661 40.7933 26.8013C40.4969 25.6879 39.8764 24.6876 39.0106 23.9273C38.0114 22.9639 37.2299 21.7979 36.7187 20.5075C36.6515 20.3896 36.5907 20.2682 36.5368 20.1437C36.4462 19.8189 36.3613 19.4915 36.2821 19.1614C36.1325 18.5137 35.9255 17.8806 35.6636 17.2696C35.5925 16.7409 35.483 16.2181 35.3362 15.7053C35.3237 15.6572 35.3116 15.6087 35.2998 15.5598C35.2999 15.5105 35.2999 15.462 35.2998 15.4142C35.3241 15.1474 35.3605 14.8806 35.409 14.6139V14.5411C35.4332 14.4198 35.4575 14.3107 35.4817 14.2137C35.5002 14.1153 35.5245 14.0181 35.5545 13.9226C35.5526 13.8324 35.5779 13.7436 35.6273 13.668C35.7742 13.2286 35.9824 12.8122 36.2457 12.431C36.2913 12.3672 36.3167 12.2912 36.3185 12.2128L36.3912 12.14C36.4591 12.0977 36.5104 12.0335 36.5368 11.9581L36.6095 11.8126C36.6104 11.7986 36.6141 11.785 36.6203 11.7725C36.6266 11.76 36.6353 11.7489 36.6459 11.7398C36.9854 11.4003 37.325 11.0728 37.6646 10.7575C38.0526 10.3937 38.4528 10.0299 38.8651 9.66613C39.5442 9.05976 40.2597 8.47767 41.0116 7.91987C41.8592 7.50804 42.7345 7.15551 43.631 6.86483C45.0251 6.45071 46.4696 6.23036 47.9238 6.20999C47.9562 6.18021 47.993 6.15566 48.033 6.13722L48.1057 6.06446C48.1381 6.0347 48.175 6.01016 48.2149 5.9917V5.95532C46.6385 6.01272 45.0693 6.19519 43.5218 6.50103H43.1216C41.9155 6.74948 40.7431 7.14027 39.6291 7.6652C38.1011 8.36856 36.5974 9.13255 35.1179 9.95717C35.0982 9.95565 35.0784 9.95808 35.0597 9.96433C35.0409 9.97058 35.0236 9.98051 35.0088 9.99355Z" fill="#0A4D2E"/>
<path d="M18.5648 26.8378C17.3258 28.629 16.7004 30.7733 16.7821 32.9497C16.7821 39.571 18.395 44.7976 21.6207 48.6297C24.8707 52.5103 29.3819 54.4506 35.1542 54.4506C45.9228 54.4505 54.4359 52.5466 60.6933 48.7388C66.4657 45.2221 69.3518 40.7715 69.3518 35.3872C69.3518 32.4282 67.8845 29.0934 64.9498 25.3826C62.5908 22.3833 60.0199 20.4187 57.2372 19.489C57.0531 19.4788 56.8591 19.4667 56.6551 19.4526C54.8093 19.3286 52.9555 19.4017 51.1253 19.6709C48.0785 20.6485 44.3919 21.7035 40.0656 22.836C34.5845 24.3078 29.9156 24.9506 26.0591 24.7641C22.2027 24.5725 19.7046 25.2638 18.5648 26.8378ZM23.367 30.8033C23.9916 30.3041 25.3256 30.1222 27.3688 30.2576C27.6785 30.2765 28.0059 30.2886 28.3511 30.2939C28.447 30.2944 28.5319 30.2944 28.6058 30.2939L32.3893 30.0757C33.9605 29.9508 35.7795 29.7447 37.8464 29.4572C39.2261 29.2321 40.5843 28.9653 41.921 28.6568C42.5273 28.5113 45.5348 27.4078 50.9434 25.3462C51.4583 25.1394 51.9955 24.9929 52.5441 24.9096C53.6299 24.774 54.7248 24.7253 55.8183 24.7641C57.3492 24.8097 59.1803 26.5923 61.3118 30.112C62.3591 31.7815 63.1558 33.5956 63.6765 35.4963C63.7947 36.2069 63.7947 36.9322 63.6765 37.6428C63.6267 38.1361 63.5293 38.6235 63.3855 39.098C63.0479 40.3795 61.5442 41.956 58.8743 43.8275C58.7377 43.9481 58.5917 44.0576 58.4377 44.1549C55.5657 46.1415 50.6543 47.4391 43.7036 48.0476C43.6554 48.055 43.6063 48.055 43.5581 48.0476C43.499 48.0665 43.438 48.0787 43.3762 48.084L41.6663 48.1931C41.6077 48.2136 41.5465 48.2259 41.4844 48.2295C35.4976 48.7046 31.8959 48.7895 30.6795 48.4842C29.5607 48.2751 28.5326 47.7293 27.7326 46.9198C27.0814 46.2165 26.5115 45.598 26.0228 45.0644C25.3133 44.203 24.7258 43.2482 24.2765 42.2267C23.786 40.8904 23.4088 39.5153 23.1487 38.1157C22.6879 36.1269 22.4575 35.0477 22.4575 34.8779C22.4587 32.6684 22.7619 31.3102 23.367 30.8032L23.367 30.8033Z" fill="#091628"/>
<path d="M63.6766 37.6428C63.7948 36.9322 63.7948 36.207 63.6766 35.4964C63.1559 33.5956 62.3591 31.7816 61.3119 30.1121C59.1803 26.5924 57.3492 24.8097 55.8184 24.7641C54.7249 24.7253 53.63 24.774 52.5442 24.9097C51.9955 24.9929 51.4584 25.1394 50.9434 25.3462C45.5348 27.4078 42.5274 28.5113 41.9211 28.6569C40.5844 28.9653 39.2262 29.2321 37.8465 29.4572C35.7796 29.7446 33.9606 29.9508 32.3894 30.0757C32.5478 30.0778 32.7061 30.0656 32.8624 30.0393C32.7822 30.1063 32.6971 30.1671 32.6077 30.2212C32.5172 30.2427 32.431 30.2796 32.353 30.3304C31.968 30.5644 31.6136 30.8454 31.298 31.1671C30.957 31.7608 30.665 32.3813 30.4249 33.0225C30.1894 33.8254 30.079 34.6598 30.0975 35.4964C30.041 37.1562 30.3906 38.8047 31.1161 40.2986C32.2803 42.4572 34.4025 43.9609 37.4827 44.8098C40.6425 45.2872 43.864 45.1638 46.978 44.446C51.3968 43.434 55.7001 41.9711 59.8203 40.0803C60.2811 39.862 60.7419 39.6316 61.2027 39.3891C62.0997 38.917 62.9314 38.3299 63.6766 37.6428ZM52.5806 26.0011C52.6787 26.0009 52.7764 25.9887 52.8716 25.9647C53.3914 25.8724 53.9252 25.8962 54.4347 26.0346C54.9442 26.173 55.4167 26.4225 55.8184 26.7651C56.1006 26.9824 56.3338 27.2567 56.5031 27.5701C56.6723 27.8835 56.7737 28.229 56.8007 28.5841V28.7296C56.7773 28.7746 56.7649 28.8244 56.7643 28.8751C56.7644 28.9236 56.7644 28.96 56.7643 28.9843C56.7644 29.0328 56.7644 29.0813 56.7643 29.1298L56.6915 29.2753C56.6675 29.372 56.6171 29.4602 56.546 29.53C56.4976 29.627 56.4491 29.724 56.4005 29.821C56.3277 29.918 56.2671 30.0029 56.2186 30.0757C56.1747 30.1181 56.1378 30.1672 56.1095 30.2212C55.7356 30.6018 55.2523 30.8561 54.727 30.9488C53.6113 31.1671 52.4957 31.3976 51.38 31.64C48.1384 32.9856 44.5892 33.4135 41.1207 32.877C40.9208 32.8642 40.7306 32.7861 40.5794 32.6546C40.4282 32.5231 40.3244 32.3456 40.284 32.1494V31.8583C40.2606 31.8134 40.2481 31.7635 40.2476 31.7128V31.3126C40.2481 31.2619 40.2606 31.2121 40.284 31.1671V31.058C40.3074 31.013 40.3198 30.9631 40.3204 30.9124L40.3931 30.7669C40.3937 30.7162 40.4061 30.6664 40.4295 30.6214C40.477 30.5982 40.5154 30.5598 40.5386 30.5123C40.5826 30.4699 40.6194 30.4208 40.6478 30.3667L40.7933 30.2212C42.8429 29.8292 44.8351 29.1814 46.7233 28.2931C47.7799 27.8024 48.8606 27.3653 49.9612 26.9834L50.325 26.7651C50.7565 26.5244 51.2229 26.3526 51.7074 26.2557C51.9985 26.183 52.2895 26.0981 52.5806 26.0011Z" fill="#90C3D0"/>
<path d="M52.8716 25.9648C52.7764 25.9888 52.6787 26.001 52.5805 26.0012C52.2895 26.0982 51.9984 26.1831 51.7074 26.2558C51.2229 26.3527 50.7564 26.5245 50.3249 26.7652L49.9611 26.9835C48.8606 27.3654 47.7799 27.8025 46.7233 28.2932C44.8351 29.1815 42.8428 29.8293 40.7933 30.2213L40.6477 30.3668C40.6194 30.4209 40.5825 30.47 40.5386 30.5124C40.5154 30.5599 40.477 30.5983 40.4295 30.6215C40.4061 30.6665 40.3936 30.7163 40.3931 30.767L40.3203 30.9125C40.3198 30.9632 40.3073 31.0131 40.2839 31.0581V31.1672C40.2605 31.2122 40.2481 31.262 40.2476 31.3127V31.7129C40.2481 31.7636 40.2605 31.8135 40.2839 31.8584V32.1495C40.3244 32.3457 40.4282 32.5232 40.5794 32.6547C40.7305 32.7862 40.9207 32.8643 41.1207 32.8771C44.5892 33.4136 48.1384 32.9857 51.38 31.6402C52.4957 31.3976 53.6113 31.1672 54.727 30.9489C55.2523 30.8562 55.7356 30.6019 56.1094 30.2213C56.1378 30.1673 56.1746 30.1182 56.2186 30.0758C56.267 30.003 56.3276 29.9181 56.4005 29.8211C56.4489 29.7241 56.4974 29.6271 56.546 29.5301C56.6171 29.4603 56.6675 29.3721 56.6915 29.2754L56.7643 29.1299C56.7643 29.0814 56.7643 29.0329 56.7643 28.9844C56.7643 28.9601 56.7643 28.9237 56.7643 28.8752C56.7648 28.8245 56.7773 28.7747 56.8007 28.7297V28.5842C56.7737 28.2291 56.6723 27.8836 56.503 27.5702C56.3338 27.2568 56.1005 26.9825 55.8184 26.7652C55.4167 26.4226 54.9442 26.1731 54.4347 26.0347C53.9252 25.8963 53.3914 25.8725 52.8716 25.9648Z" fill="white"/>
<path d="M27.3689 30.2576C25.3256 30.1222 23.9917 30.3041 23.367 30.8033C22.762 31.3102 22.4588 32.6684 22.4575 34.8779C22.4575 35.0477 22.6879 36.127 23.1487 38.1158C23.4088 39.5153 23.7861 40.8904 24.2765 42.2268C24.7258 43.2482 25.3134 44.2031 26.0228 45.0644C26.5114 45.598 27.0814 46.2165 27.7327 46.9198C28.5326 47.7293 29.5608 48.2751 30.6795 48.4842C31.896 48.7895 35.4976 48.7046 41.4845 48.2295C41.5465 48.2259 41.6077 48.2136 41.6664 48.1931L43.3763 48.084C43.4381 48.0787 43.4991 48.0665 43.5582 48.0476C43.6064 48.055 43.6555 48.055 43.7037 48.0476C50.6543 47.4391 55.5657 46.1416 58.4378 44.1549C58.5918 44.0576 58.7378 43.9481 58.8743 43.8275C61.5442 41.9561 63.048 40.3796 63.3855 39.098C63.5293 38.6235 63.6268 38.1362 63.6765 37.6428C62.9313 38.3299 62.0997 38.917 61.2027 39.3891C60.7419 39.6316 60.2811 39.8621 59.8202 40.0803C55.7001 41.9711 51.3968 43.434 46.9779 44.446C43.8639 45.1638 40.6424 45.2872 37.4826 44.8098C34.4024 43.9609 32.2802 42.4572 31.1161 40.2986C30.3906 38.8047 30.0409 37.1562 30.0974 35.4964C30.0789 34.6598 30.1894 33.8254 30.4248 33.0225C30.6649 32.3813 30.9569 31.7608 31.298 31.1671C31.6135 30.8454 31.9679 30.5644 32.353 30.3304C32.431 30.2796 32.5171 30.2427 32.6077 30.2212C32.697 30.1671 32.7822 30.1063 32.8623 30.0393C32.7061 30.0656 32.5478 30.0778 32.3894 30.0757L28.6058 30.294C28.5319 30.2945 28.447 30.2945 28.3511 30.294C28.006 30.2887 27.6786 30.2766 27.3689 30.2576Z" fill="#4E7A8D"/>
<path d="M30.1174 95.2142C30.0475 96.2339 30.1014 97.2584 30.278 98.2651C30.5154 99.1845 30.9696 100.034 31.6025 100.742C32.3248 101.651 34.0104 102.919 36.6593 104.546C37.9807 105.352 39.4144 105.956 40.9135 106.341C41.8045 106.579 42.7205 106.712 43.6426 106.736C46.7462 106.736 49.2612 106.018 51.1877 104.582C51.8568 104.056 52.4628 103.453 52.9937 102.788C53.7227 101.82 54.3168 100.757 54.7596 99.629C54.6793 99.7487 54.5856 99.8803 54.4787 100.024C54.3532 100.113 54.2326 100.209 54.1175 100.311C53.6781 100.685 53.1751 100.977 52.6325 101.172C52.2311 101.34 51.8432 101.519 51.4686 101.711C51.0138 101.711 50.5723 101.711 50.1442 101.711C49.3748 101.468 48.5805 101.311 47.7763 101.244C47.4159 101.216 47.0696 101.092 46.7729 100.885L46.6927 100.742C46.5297 100.524 46.325 100.341 46.0907 100.203C45.7768 100.02 45.4926 99.7901 45.2479 99.5213C45.197 99.4997 45.1546 99.4618 45.1275 99.4136C45.1019 99.3701 45.0881 99.3206 45.0873 99.2701C45.0666 99.2301 45.0394 99.1937 45.007 99.1624L44.9268 99.0188C44.9012 98.9753 44.8874 98.9258 44.8867 98.8753V97.9421C44.9919 97.7793 45.0604 97.5956 45.0873 97.4037V96.1833L45.1676 95.8962C45.1943 95.7526 45.2211 95.621 45.2479 95.5014C45.2725 95.4198 45.286 95.3353 45.288 95.2501V95.1066C45.395 94.8433 45.4887 94.5801 45.5689 94.3169C45.9643 93.1101 46.4751 91.9442 47.094 90.8353C47.4158 90.2601 47.7779 89.7083 48.1776 89.1843C48.4987 88.9929 48.8064 88.7895 49.1007 88.5741C49.4947 88.317 49.8582 88.0159 50.1843 87.6768C50.2647 87.6048 50.3326 87.5199 50.385 87.4255C50.7456 87.1973 51.0818 86.9327 51.3883 86.6359C51.7629 86.2531 52.1643 85.8822 52.5924 85.5232C52.806 85.3323 52.9948 85.1152 53.1542 84.8772C53.407 84.6767 53.6359 84.4479 53.8365 84.1952C54.4515 83.43 55.108 82.6991 55.8031 82.0058C56.1776 81.6469 56.5522 81.2999 56.9268 80.9649C58.2142 80.0057 59.5541 79.119 60.9402 78.3088C62.4118 77.4713 63.9101 76.6937 65.4351 75.9758C67.8844 74.814 70.5208 74.0969 73.2211 73.8582C73.3493 73.9504 73.4834 74.0344 73.6224 74.1094L73.7027 74.253C73.7168 74.267 73.7277 74.2838 73.7346 74.3024C73.7415 74.321 73.7444 74.3409 73.7428 74.3607C73.6358 74.8871 73.5288 75.4255 73.4218 75.9758C73.3685 76.3323 73.3416 76.6922 73.3415 77.0526C73.3416 77.268 73.3416 77.4714 73.3415 77.6628C73.7161 77.3278 74.1442 76.9689 74.6258 76.586C75.1691 76.1406 77.0314 75.3295 76.7654 74.4067C76.5259 74.4885 76.2953 74.5942 76.0771 74.7223C75.8578 74.8507 75.6108 74.924 75.357 74.936C75.2302 74.9399 75.1049 74.9073 74.9961 74.8421C74.8872 74.777 74.7993 74.682 74.7428 74.5684C74.4513 73.8514 75.6795 73.2958 76.1123 72.992C76.3159 72.8492 78.2016 71.421 78.3181 71.5252L78.2779 71.4893C77.8983 71.3442 77.5095 71.2243 77.1141 71.1303C76.8511 70.9883 76.5662 70.8913 76.2713 70.8432C73.997 70.5082 71.7495 70.1852 69.5288 69.8741C67.9169 69.6341 66.2767 69.6583 64.6726 69.9459C64.4035 69.9458 64.1348 69.9218 63.8699 69.8741C63.7926 69.8624 63.7218 69.8243 63.6693 69.7664C62.5456 68.0196 60.7529 67.2659 58.2914 67.5052C56.8238 67.673 55.3374 67.5511 53.9168 67.1463C53.8699 66.9715 53.8025 66.8029 53.7161 66.6438C53.6583 66.5421 53.5911 66.446 53.5154 66.3567L53.395 66.2132C53.3756 66.184 53.3488 66.1481 53.3147 66.1055C52.4602 66.4731 51.6408 66.9176 50.8666 67.4335C49.3404 68.4416 47.9156 69.5956 46.6124 70.8791C46.3662 71.1194 46.112 71.3467 45.8499 71.5611L45.6893 71.7046C45.6522 71.7333 45.6118 71.7574 45.5689 71.7765L45.1676 72.0995C41.4935 75.1758 38.3246 78.8091 35.7763 82.8673C32.6993 87.5572 31.0003 90.4645 30.6793 91.5891C30.3234 92.7652 30.1343 93.9855 30.1174 95.2142Z" fill="#0A4D2E"/>
<path d="M50.7467 86.3999C50.3824 86.7149 49.9877 86.9929 49.5684 87.2299C49.5054 87.3307 49.4257 87.42 49.3328 87.494C48.9446 87.8544 48.5178 88.1707 48.0602 88.4372C47.7145 88.6636 47.3531 88.8774 46.9761 89.0787C46.5098 89.6251 46.0845 90.2052 45.7035 90.8142C44.9819 91.9691 44.3816 93.1955 43.9124 94.4739C43.8182 94.7506 43.7082 95.0273 43.5825 95.304V95.4549C43.5801 95.5448 43.5642 95.6338 43.5354 95.7191C43.504 95.8448 43.4726 95.9832 43.4411 96.1341L43.3469 96.4359V97.7187C43.314 97.9233 43.2333 98.1172 43.1112 98.2846V99.2656C43.1122 99.3193 43.1286 99.3717 43.1583 99.4165C43.1898 99.4668 43.2212 99.517 43.2526 99.5674C43.29 99.5997 43.3219 99.6379 43.3469 99.6806C43.3479 99.7344 43.3642 99.7867 43.394 99.8315C43.4276 99.8836 43.4772 99.9233 43.5354 99.9447C43.8282 100.231 44.1618 100.473 44.5252 100.662C44.7954 100.802 45.0356 100.995 45.2322 101.227L45.3264 101.378C45.6827 101.598 46.0871 101.728 46.5047 101.756C47.4458 101.825 48.3775 101.99 49.2856 102.246C49.7884 102.246 50.3069 102.246 50.841 102.246C51.2809 102.045 51.7365 101.856 52.2078 101.68C52.8361 101.479 53.4257 101.173 53.9517 100.775C54.0878 100.667 54.2293 100.566 54.3759 100.473C54.5017 100.322 54.6116 100.184 54.7058 100.058C55.6798 97.8189 56.3457 95.4582 56.6854 93.0402C56.8292 91.7556 57.336 90.5385 58.1466 89.5314C59.5291 88.2989 60.896 87.0665 62.2471 85.834C70.6681 80.9794 75.2872 78.1497 76.1041 77.3449C76.2385 77.2114 76.3801 77.0855 76.5283 76.9676C76.5284 76.7663 76.5284 76.5525 76.5283 76.3262C76.5285 75.9469 76.56 75.5683 76.6226 75.1943C76.7482 74.6158 76.8739 74.0499 76.9996 73.4965C77.0012 73.4752 76.9977 73.4539 76.9895 73.4343C76.9813 73.4146 76.9686 73.3972 76.9525 73.3833L76.8582 73.2324C76.6959 73.154 76.5385 73.0658 76.3869 72.9683C73.2391 73.2135 70.1514 73.9652 67.2431 75.1943C65.4521 75.9489 63.6924 76.7664 61.9643 77.6467C60.3449 78.4933 58.7716 79.4253 57.251 80.4387C56.8111 80.7908 56.3712 81.1555 55.9313 81.5328C55.1197 82.2569 54.3487 83.0253 53.6218 83.8343C53.3828 84.1029 53.114 84.3434 52.8205 84.5512C52.6302 84.8046 52.4085 85.0327 52.1607 85.2303C51.658 85.6075 51.1867 85.9973 50.7467 86.3999Z" fill="#11802D"/>
<path d="M31.0195 97.8479C30.8529 96.8679 30.802 95.8717 30.8681 94.8798C30.8838 93.6856 31.0621 92.4991 31.3981 91.3531C31.7009 90.259 33.3036 87.4306 36.2061 82.868C38.5959 78.9364 41.5849 75.402 45.0651 72.3926L45.4437 72.0783C45.4842 72.0597 45.5224 72.0362 45.5573 72.0084L45.7087 71.8688C45.956 71.6602 46.1957 71.4391 46.428 71.2053C47.6533 69.96 48.9974 68.8373 50.4411 67.8532C51.1694 67.3524 51.9425 66.9199 52.7504 66.5612L52.5611 66.2819C52.2835 66.1189 51.9932 65.956 51.6903 65.793C51.2944 65.5852 50.8496 65.4886 50.4031 65.5136C49.4285 65.6443 48.4662 65.8545 47.5259 66.1422C42.3003 67.5847 37.6632 70.6397 34.2753 74.8717C30.7671 79.8068 28.3189 83.8922 26.9308 87.128C26.2771 88.5861 25.8188 90.1241 25.5678 91.7023C25.1803 93.6379 24.9273 95.598 24.8107 97.5685C24.8107 100.874 26.7162 103.982 30.5273 106.892C34.7114 110.073 39.8479 111.746 45.1029 111.641C48.469 111.719 51.7633 110.661 54.4541 108.638C57.5585 106.263 59.4135 102.806 60.0193 98.2669C60.1108 97.7124 60.2372 97.1642 60.3979 96.6257C60.5998 95.8342 60.7134 95.357 60.7386 95.1941C60.9336 94.2101 61.2649 93.2581 61.7229 92.3657C62.0258 91.7372 63.048 90.9108 64.7895 89.8865C67.4901 88.3036 69.3452 87.1513 70.3547 86.4296C74.0145 83.7991 76.4879 81.9135 77.7751 80.7729C80.4756 78.3751 81.8385 76.4081 81.8638 74.8717C81.889 74.6389 81.9143 74.3945 81.9395 74.1384C81.8637 73.8824 81.8006 73.6263 81.7502 73.3702C81.6801 73.0795 81.5512 72.8062 81.3716 72.5671C81.2454 72.4042 81.1192 72.2296 80.993 72.0433C80.6993 71.8846 80.3958 71.7446 80.0844 71.6243C80.0492 71.6054 80.0106 71.5935 79.9708 71.5894C79.4661 71.892 78.9613 72.2063 78.4565 72.5321C77.5846 73.1695 76.6742 73.7526 75.7306 74.2781C75.675 74.3049 75.6239 74.3402 75.5792 74.3828C75.3773 74.5458 75.188 74.7087 75.0113 74.8717L74.8978 74.9764C74.8165 75.0585 74.7408 75.14 74.6706 75.2209L72.8534 76.7573C72.3991 77.1298 71.9952 77.4789 71.6419 77.8049C71.522 77.9149 71.4082 78.0314 71.3012 78.154C70.6449 78.8989 66.9348 81.5178 60.1707 86.0106C59.0854 87.1513 57.9875 88.292 56.877 89.4326C56.2137 90.3964 55.8095 91.5147 55.7034 92.68C55.4349 94.9007 54.9011 97.0812 54.1133 99.1748C53.6975 100.269 53.1373 101.302 52.4475 102.248C51.9488 102.893 51.3771 103.479 50.7439 103.993C48.6728 105.469 46.1666 106.207 43.6265 106.089C42.756 106.065 41.8915 105.936 41.0521 105.704C39.6338 105.329 38.2808 104.74 37.0391 103.959C34.5403 102.376 32.9503 101.142 32.2689 100.257C31.6693 99.5631 31.2413 98.7378 31.0195 97.8479Z" fill="#052519"/>
</g>
<defs>
<filter id="filter0_d_1_1178" x="0.00390625" y="0" width="107.992" height="119.641" filterUnits="userSpaceOnUse" color-interpolation-filters="sRGB">
<feFlood flood-opacity="0" result="BackgroundImageFix"/>
<feColorMatrix in="SourceAlpha" type="matrix" values="0 0 0 0 0 0 0 0 0 0 0 0 0 0 0 0 0 0 127 0" result="hardAlpha"/>
<feOffset dy="4"/>
<feGaussianBlur stdDeviation="2"/>
<feComposite in2="hardAlpha" operator="out"/>
<feColorMatrix type="matrix" values="0 0 0 0 0 0 0 0 0 0 0 0 0 0 0 0 0 0 0.25 0"/>
<feBlend mode="normal" in2="BackgroundImageFix" result="effect1_dropShadow_1_1178"/>
<feBlend mode="normal" in="SourceGraphic" in2="effect1_dropShadow_1_1178" result="shape"/>
</filter>
<clipPath id="clip0_1_1178">
<rect width="99.9922" height="111.641" fill="white" transform="translate(4.00391)"/>
</clipPath>
</defs>
</svg>
