<svg width="40" height="27" viewBox="0 0 40 27" fill="none" xmlns="http://www.w3.org/2000/svg">
<g clip-path="url(#clip0_1_1250)">
<path d="M7.65445 15.9143C7.95684 14.0051 6.65426 12.2122 4.74507 11.9098C2.83587 11.6074 1.04302 12.91 0.740636 14.8192C0.438249 16.7284 1.74083 18.5213 3.65002 18.8236C5.55922 19.126 7.35207 17.8235 7.65445 15.9143Z" fill="#FFFDE9"/>
<path d="M23.8286 3.28903C24.0445 1.92531 23.1141 0.64471 21.7504 0.428719C20.3867 0.212728 19.1061 1.14314 18.8901 2.50685C18.6741 3.87057 19.6045 5.15117 20.9682 5.36716C22.332 5.58315 23.6126 4.65274 23.8286 3.28903Z" fill="#D6D5D9"/>
<path d="M31.5644 24.7636C31.694 23.9454 31.1358 23.1771 30.3175 23.0475C29.4993 22.9179 28.7309 23.4761 28.6014 24.2943C28.4718 25.1126 29.03 25.8809 29.8482 26.0105C30.6665 26.1401 31.4348 25.5819 31.5644 24.7636Z" fill="#FFFDE9"/>
<path d="M39.6562 8.83324C39.7426 8.28775 39.3705 7.77551 38.825 7.68911C38.2795 7.60272 37.7672 7.97488 37.6808 8.52037C37.5945 9.06585 37.9666 9.57809 38.5121 9.66449C39.0576 9.75089 39.5698 9.37872 39.6562 8.83324Z" fill="#FFFDE9"/>
</g>
<defs>
<clipPath id="clip0_1_1250">
<rect width="40" height="27" fill="white"/>
</clipPath>
</defs>
</svg>
