<svg width="100" height="142" viewBox="0 0 100 142" fill="none" xmlns="http://www.w3.org/2000/svg">
<g clip-path="url(#clip0_1_1154)">
<path d="M73.5059 12.3778C75.8498 14.8213 78.0573 17.3922 80.1182 20.0787C80.3331 20.4013 83.0748 24.5541 88.3432 32.5372C93.5606 41.1144 96.6382 46.88 97.5761 49.8339C98.4463 52.5983 99.0008 55.4522 99.2292 58.3412C99.3939 60.4472 99.4208 62.5617 99.3098 64.6712C99.2027 66.1729 99.0818 67.8663 98.9469 69.7514C98.806 71.6361 97.8384 74.3509 96.044 77.8958C94.7251 80.6756 93.0587 83.2768 91.0848 85.6369C89.1468 87.6377 86.9973 89.4222 84.6741 90.959C81.0814 93.6891 77.2332 96.0655 73.1833 98.0551C70.9913 99.124 68.7281 100.04 66.4097 100.797C66.2841 100.869 66.1632 100.936 66.0469 100.998C57.5791 105.547 47.7301 106.811 38.3882 104.546C35.3379 103.37 32.3854 101.955 29.5584 100.313C25.9139 98.2567 22.8058 95.3696 20.4867 91.8864C18.4844 92.0525 16.4698 91.9985 14.4792 91.7251C8.48522 91.3756 4.31895 88.3652 1.98044 82.6937C0.62429 79.1858 -0.0331345 75.4467 0.0451431 71.6867C0.0451889 70.3158 0.260223 67.7892 0.690239 64.1068C1.12031 60.4243 1.33534 57.9111 1.33534 56.5672C0.93795 53.0475 0.803185 49.5031 0.932159 45.9633C1.00365 44.6291 1.12461 43.0969 1.29502 41.367C1.51118 40.3393 2.07565 38.0277 2.98841 34.4322C3.88187 30.8616 5.17207 28.3752 6.85901 26.9732C9.03632 25.3089 11.4569 23.9898 14.0357 23.0623C14.0909 22.9154 14.1446 22.7676 14.197 22.6188C14.6295 21.3587 15.1831 20.1434 15.8501 18.9901C16.277 17.6954 16.8448 16.4515 17.5435 15.2808C18.8335 13.0775 20.3613 11.0224 22.0995 9.15235C24.2687 6.73302 28.4619 4.59612 34.6789 2.74167C40.8902 0.913268 45.6209 0 48.8711 0C49.4087 0 49.6372 0.0268795 49.5565 0.0806378C52.2959 0.183798 55.0086 0.658522 57.6203 1.49179C59.4132 2.15326 61.0981 3.07722 62.6198 4.23347C63.8936 5.2488 65.2885 6.10202 66.7726 6.77354C68.4038 7.5355 70.6482 9.4036 73.5058 12.3778M61.0474 10.0797C60.4807 9.71124 59.5937 9.16021 58.3863 8.42661C57.1753 7.71652 54.2186 7.08486 49.5162 6.53163L45.8069 6.77354C42.5007 7.52616 40.0547 8.1175 38.4689 8.54757L37.098 8.99107C35.59 9.45905 34.1094 10.0109 32.663 10.6441C30.8253 11.4155 29.1237 12.4774 27.6231 13.789C27.4241 13.9659 27.2356 14.1544 27.0587 14.3535L26.5749 14.9179C25.1461 16.8174 23.7887 18.7661 22.5027 20.7641C22.393 20.9378 22.2854 21.1125 22.1801 21.2883C21.8473 21.8422 21.5382 22.4067 21.2528 22.9817C21.2363 22.9917 21.2225 23.0055 21.2125 23.022C20.5174 24.4101 19.9376 25.853 19.4788 27.3361C18.9949 28.922 18.5783 30.5213 18.2289 32.134V32.4162C18.1214 37.4426 18.1482 41.582 18.3095 44.8344C18.4708 47.6836 18.8337 51.3257 19.3981 55.7608C19.7207 58.2337 19.9492 59.7792 20.0835 60.3974C20.1642 60.9081 20.4061 62.0102 20.8093 63.7036C21.4547 66.9745 21.8457 70.2906 21.9785 73.622C22.2234 77.1026 22.8868 80.541 23.9541 83.8629C24.1172 84.2904 24.3057 84.7078 24.5186 85.1128C24.916 85.8728 25.3327 86.5985 25.7685 87.29C25.882 87.4245 25.9895 87.5589 26.091 87.6932V87.7738C30.428 94.3504 36.8118 98.127 45.2424 99.1034H49.9597C51.2284 98.9234 52.4917 98.7218 53.7497 98.4986C56.6573 98.8055 59.5883 98.1996 62.136 96.7649C62.8891 96.3588 63.6417 95.9422 64.3938 95.515C67.3774 93.7141 69.353 92.5987 70.3207 92.1686C71.3809 91.6787 72.4426 91.1679 73.5058 90.6365C74.8763 89.9568 76.2088 89.2031 77.4974 88.3786C81.316 86.4419 84.6401 83.6558 87.2142 80.2342C90.6307 75.8159 92.4626 70.3772 92.4153 64.7922C92.4153 63.087 92.3616 61.6221 92.254 60.3974C92.1841 59.6109 92.0628 58.8297 91.8912 58.059C91.5804 57.3259 91.3767 56.5519 91.2864 55.7608C91.2374 55.2317 91.1567 54.6672 91.0445 54.0674L87.2948 43.4233C87.2471 43.3465 87.2066 43.2656 87.1739 43.1813C87.0986 43.0511 87.0313 42.9165 86.9723 42.7782C86.9482 42.7422 86.9343 42.7004 86.932 42.6572C86.8659 42.5563 86.8118 42.448 86.7707 42.3347C86.7389 42.2979 86.7118 42.2572 86.6901 42.2137C86.6518 42.1516 86.6245 42.0834 86.6094 42.0121C86.5717 41.9802 86.5438 41.9382 86.5288 41.8911C86.4691 41.7867 86.4152 41.679 86.3675 41.5686C85.8426 40.527 85.2781 39.4384 84.6741 38.3028C80.2742 30.0408 75.3688 23.4957 69.9578 18.6676C69.9648 18.6862 69.9795 18.7009 69.9981 18.7079C65.5878 14.8662 63.1283 12.568 62.6198 11.8134C62.2002 11.1486 61.6681 10.562 61.0474 10.0797ZM11.8585 31.126C11.8674 31.0843 11.8809 31.0438 11.8988 31.0051C11.6747 31.1244 11.4592 31.2591 11.2537 31.4083C10.8506 31.7308 10.4474 32.0803 10.0442 32.4566C9.90963 32.6914 9.78848 32.9337 9.68132 33.1823C8.94932 36.167 8.39829 38.9625 8.02824 41.5686C8.00953 41.6209 7.99603 41.6749 7.98793 41.7299L7.34283 49.9952C7.35657 51.3286 7.35657 52.6322 7.34283 53.9061V53.9464C7.32014 57.645 7.19919 61.099 6.97997 64.3083C6.65742 68.9047 6.49613 71.3372 6.49613 71.606C6.59771 73.9673 6.90804 76.3149 7.42347 78.6215C8.00757 81.7642 9.41872 83.8339 11.6569 84.8306C13.9045 85.8349 15.4232 86.1843 16.2129 85.8789C16.9674 85.5915 17.3571 85.4437 17.3822 85.4354C17.1205 84.6428 16.892 83.823 16.6968 82.9759C16.545 81.4734 16.3163 79.9796 16.0114 78.5005C15.7146 76.9675 15.4992 75.4197 15.3662 73.8639C15.1243 68.3268 14.7884 65.061 14.3583 64.0664C13.9001 63.0286 13.6011 61.9276 13.4713 60.8006C13.0143 57.9246 12.6111 55.4248 12.2617 53.3013C11.7449 50.0585 11.4352 46.7861 11.3344 43.5039L11.3747 40.1978L11.415 36.3272C11.4093 36.1106 11.4093 35.8956 11.415 35.6821C11.4159 35.0593 11.5392 34.4429 11.7779 33.8677V32.0534C11.8048 31.7577 11.8317 31.4486 11.8586 31.126L11.8585 31.126Z" fill="black"/>
<path d="M7.34289 49.9952L7.98798 41.7299C7.99608 41.6749 8.00959 41.6209 8.02831 41.5686C8.92397 40.6952 10.1238 40.2037 11.3748 40.1977L11.3344 43.5039C11.4353 46.7861 11.745 50.0585 12.2618 53.3013C12.6112 55.4248 13.0144 57.9245 13.4713 60.8006C13.6012 61.9276 13.9002 63.0286 14.3583 64.0664C14.7884 65.061 15.1244 68.3268 15.3663 73.8639C15.4993 75.4197 15.7146 76.9675 16.0114 78.5005C16.3163 79.9796 16.5451 81.4734 16.6968 82.9759C16.8921 83.823 17.1206 84.6428 17.3822 85.4353C17.3571 85.4436 16.9674 85.5915 16.213 85.8788C15.4232 86.1843 13.9045 85.8349 11.657 84.8306C9.41879 83.8338 8.00763 81.7641 7.42352 78.6215C6.90809 76.3149 6.59777 73.9673 6.49619 71.606C6.49619 71.3372 6.65752 68.9047 6.98002 64.3083C7.19928 61.099 7.32023 57.645 7.34289 53.9464V53.9061C7.35662 52.6322 7.35662 51.3286 7.34289 49.9952ZM85.8434 69.9126C87.3755 68.1386 88.8404 66.2974 90.2382 64.389C91.0191 63.2842 91.6432 62.0766 92.0928 60.8006C92.1417 60.6722 92.1955 60.5378 92.2541 60.3974C92.3616 61.6221 92.4154 63.087 92.4154 64.7922C92.4626 70.3772 90.6308 75.8159 87.2143 80.2342C84.6401 83.6558 81.3161 86.4419 77.4974 88.3786C76.2089 89.2031 74.8764 89.9568 73.5059 90.6365C72.4427 91.1679 71.3809 91.6786 70.3207 92.1686C69.3531 92.5986 67.3775 93.7141 64.3939 95.515C63.6418 95.9422 62.8892 96.3588 62.136 96.7649C59.5884 98.1995 56.6574 98.8055 53.7497 98.4986C52.4917 98.7218 51.2284 98.9234 49.9598 99.1034H45.2425C36.8119 98.1269 30.4281 94.3504 26.0911 87.7738V87.6932C25.9895 87.5589 25.882 87.4245 25.7685 87.29C25.3327 86.5985 24.9161 85.8728 24.5187 85.1128C24.3058 84.7078 24.1173 84.2904 23.9542 83.8629C22.8868 80.541 22.2235 77.1026 21.9786 73.622C21.8457 70.2906 21.4548 66.9745 20.8093 63.7036C20.4062 62.0102 20.1643 60.9081 20.0836 60.3974C19.9492 59.7792 19.7207 58.2336 19.3982 55.7608C18.8337 51.3257 18.4709 47.6836 18.3096 44.8344C18.1483 41.582 18.1215 37.4426 18.2289 32.4162V32.134C18.5783 30.5213 18.995 28.9219 19.4788 27.3361C19.9376 25.853 20.5175 24.4101 21.2125 23.022C21.0378 23.7363 20.863 24.4486 20.6884 25.1589C20.5805 25.5936 20.5397 26.0423 20.5674 26.4894C20.4049 26.8718 20.3226 27.2835 20.3255 27.6989C20.3524 28.2634 20.3658 28.8144 20.3658 29.352C20.3658 29.567 20.3658 29.7686 20.3658 29.9568C20.259 30.1429 20.1904 30.3486 20.1642 30.5616C20.1188 30.7603 20.0918 30.9627 20.0836 31.1664C20.0298 31.4889 19.8954 32.4969 19.6804 34.1903C19.7554 37.5464 20.106 40.8906 20.7287 44.1893C21.665 49.8485 23.2478 55.3815 25.446 60.6796C31.7626 75.4901 41.681 82.8953 55.2012 82.8953C58.331 82.9442 61.4561 82.6331 64.5148 81.9679C68.4694 80.8955 72.3485 79.5621 76.1266 77.9764C78.2303 76.7732 80.2031 75.3544 82.0131 73.7429C83.3562 72.5342 84.6347 71.2557 85.8434 69.9127L85.8434 69.9126Z" fill="#1E1F26"/>
<path d="M11.8988 31.0052C11.8809 31.0439 11.8674 31.0844 11.8585 31.1262C11.8316 31.4487 11.8047 31.7578 11.7779 32.0535V33.8678C11.5392 34.443 11.4159 35.0595 11.415 35.6822C11.4092 35.8957 11.4092 36.1108 11.415 36.3273L11.3747 40.1979C10.1237 40.2038 8.9239 40.6953 8.02824 41.5687C8.39825 38.9626 8.94927 36.1672 9.6813 33.1824C9.78847 32.9338 9.90961 32.6915 10.0442 32.4567C10.4474 32.0804 10.8505 31.7309 11.2537 31.4084C11.4592 31.2592 11.6747 31.1245 11.8988 31.0052ZM58.3863 8.42672C59.5936 9.16034 60.4807 9.71136 61.0473 10.0798C61.6681 10.5621 62.2002 11.1487 62.6198 11.8135C63.1283 12.5681 65.5877 14.8663 69.9981 18.708C69.9795 18.701 69.9648 18.6863 69.9578 18.6677C75.3688 23.4958 80.2742 30.0409 84.6741 38.3029C85.2782 39.4386 85.8427 40.5272 86.3675 41.5687C86.4152 41.6791 86.4691 41.7868 86.5288 41.8913C86.5438 41.9383 86.5717 41.9803 86.6094 42.0122C86.6245 42.0835 86.6518 42.1517 86.69 42.2138C86.7118 42.2573 86.7389 42.298 86.7707 42.3348C86.8118 42.4481 86.8659 42.5564 86.932 42.6573C86.9343 42.7005 86.9482 42.7423 86.9723 42.7783C87.0313 42.9166 87.0986 43.0512 87.1739 43.1814C87.2066 43.2657 87.2471 43.3466 87.2948 43.4234L91.0445 54.0675C91.1567 54.6673 91.2373 55.2318 91.2864 55.7609C91.3767 56.552 91.5803 57.326 91.8912 58.0591C92.0628 58.8298 92.184 59.611 92.254 60.3975C92.1954 60.5379 92.1417 60.6723 92.0928 60.8007C91.6431 62.0767 91.019 63.2843 90.2381 64.3891C88.8404 66.2975 87.3755 68.1388 85.8434 69.9128C84.6347 71.2558 83.3561 72.5343 82.0131 73.743C80.203 75.3545 78.2302 76.7733 76.1265 77.9765C72.3484 79.5622 68.4693 80.8957 64.5148 81.9681C61.456 82.6332 58.331 82.9444 55.2011 82.8954C41.681 82.8954 31.7626 75.4902 25.4459 60.6798C23.2477 55.3816 21.665 49.8486 20.7286 44.1894C20.1059 40.8907 19.7553 37.5465 19.6803 34.1904C19.8954 32.497 20.0298 31.489 20.0835 31.1665C20.0917 30.9628 20.1187 30.7604 20.1642 30.5617C20.1904 30.3487 20.2589 30.143 20.3658 29.9569C20.3657 29.7688 20.3657 29.5672 20.3658 29.3521C20.3657 28.8145 20.3523 28.2635 20.3254 27.6991C20.3225 27.2836 20.4048 26.8719 20.5674 26.4895C20.5396 26.0424 20.5804 25.5937 20.6883 25.159C20.8629 24.4487 21.0376 23.7364 21.2124 23.0221C21.2224 23.0056 21.2363 22.9918 21.2528 22.9818C21.5381 22.4068 21.8472 21.8423 22.1801 21.2884C22.2855 21.1126 22.393 20.9379 22.5026 20.7642C23.7886 18.7663 25.146 16.8175 26.5748 14.918L27.0587 14.3536C27.2356 14.1545 27.424 13.966 27.6231 13.7891C29.1237 12.4775 30.8253 11.4156 32.663 10.6442C34.1094 10.011 35.59 9.45915 37.098 8.99118L38.4689 8.54767C40.0547 8.11761 42.5007 7.52627 45.8069 6.77365L49.5162 6.53174C54.2186 7.08496 57.1753 7.71662 58.3863 8.42672ZM26.7361 16.2485L26.6555 16.4098L26.5748 16.5711V16.7324C26.6539 16.5372 26.7345 16.3356 26.8168 16.1276C26.8791 15.9599 26.9463 15.7852 27.0183 15.6034L26.978 15.6438C26.926 15.7465 26.8855 15.8547 26.8571 15.9663C26.8008 16.0527 26.7599 16.1482 26.7362 16.2485L26.7361 16.2485Z" fill="#3F474E"/>
<path d="M26.6556 16.4096L26.7362 16.2484C26.76 16.148 26.8009 16.0526 26.8572 15.9661C26.8856 15.8545 26.9261 15.7464 26.9781 15.6436L27.0184 15.6033C26.9464 15.785 26.8792 15.9597 26.8168 16.1274C26.7346 16.3354 26.654 16.537 26.5749 16.7322V16.5709L26.6556 16.4096Z" fill="#422E8B"/>
<path d="M56.451 97.4907C56.895 97.2976 57.3791 97.2146 57.8621 97.2487C58.0522 97.2596 58.2411 97.2866 58.4266 97.3294C59.6046 97.5453 60.5492 98.4269 60.8457 99.5872C60.8459 99.696 60.8594 99.8043 60.886 99.9098C60.9939 101.21 61.0343 102.516 61.007 103.821V104.425C59.9703 112.196 57.6256 119.734 54.0722 126.722C51.0348 132.561 46.9492 136.607 41.8153 138.858L41.1299 139.14C40.6235 139.334 40.1262 139.509 39.6381 139.664C36.9585 140.627 34.1391 141.145 31.2921 141.196C25.4056 141.196 21.1587 140 18.5514 137.608C16.2935 135.538 15.0033 134.087 14.6808 133.253C14.3045 132.286 14.1163 129.759 14.1163 125.673C14.1513 124.014 14.4367 122.369 14.963 120.795C15.3067 119.795 15.5762 118.77 15.7694 117.731C17.3005 113.656 18.1875 111.438 18.4304 111.078C18.4948 110.981 18.5362 110.871 18.5514 110.756C18.9812 110.372 19.371 109.269 19.7206 107.449C20.0441 105.65 20.286 104.159 20.4463 102.974C20.5676 101.984 20.6349 100.988 20.6479 99.9904V98.4986C20.2709 96.5033 20.0552 94.4808 20.0028 92.4508C19.9775 90.8323 19.8563 89.2167 19.64 87.6126C19.6915 87.3003 19.7588 86.9908 19.8416 86.6852C19.9201 86.3672 20.0568 86.0665 20.2447 85.7982C20.3791 85.5832 20.5135 85.3816 20.6479 85.1934C20.9354 84.983 21.2467 84.8071 21.5753 84.6693C21.9973 84.5105 22.4281 84.3759 22.8655 84.2661V84.3064C23.0903 84.3582 23.3201 84.3852 23.5509 84.3871C24.2243 84.5312 24.7828 84.9991 25.0427 85.6369C25.2347 86.0726 25.4229 86.5161 25.6071 86.9675C26.3785 89.1103 26.8533 91.3486 27.0183 93.6201C27.0214 93.6759 27.035 93.7306 27.0586 93.7813C27.2964 97.3295 27.2155 100.892 26.8167 104.425C26.9242 105.984 26.3329 108.471 25.0427 111.884C24.3438 113.739 23.3896 116.185 22.18 119.222C21.7312 120.648 21.381 122.103 21.1318 123.577C20.839 125.052 20.6637 126.549 20.6076 128.052C20.6077 129.665 20.8496 130.767 21.3333 131.358C22.8117 133.24 26.2119 134.181 31.534 134.181C35.9422 134.181 39.3155 133.401 41.654 131.842C42.4329 131.275 43.1493 130.626 43.7909 129.907C44.5961 129.064 45.5638 127.962 46.6938 126.601C46.8787 126.377 47.0669 126.149 47.2583 125.915C49.9196 122.261 51.85 118.126 52.9432 113.739C53.8722 110.717 54.4008 107.585 54.5156 104.425C54.5069 104.257 54.5069 104.083 54.5156 103.901C54.4957 103.042 54.4957 102.168 54.5156 101.281C54.5122 101.127 54.5122 100.966 54.5156 100.797C54.54 99.8089 54.8949 98.8578 55.5236 98.0954C55.5662 98.0575 55.6066 98.0171 55.6446 97.9745C55.6744 97.9679 55.7021 97.9541 55.7252 97.9342C55.8266 97.8576 55.9345 97.7902 56.0478 97.7326C56.1756 97.6415 56.3105 97.5606 56.451 97.4907Z" fill="black"/>
<path d="M50.4435 94.87C50.3529 94.8105 50.2586 94.7566 50.1613 94.7087C49.83 94.4772 49.4793 94.2749 49.113 94.1039C48.8487 93.9721 48.5929 93.824 48.347 93.6604C48.2822 93.6161 48.2149 93.5757 48.1454 93.5395C48.0426 93.4875 47.9344 93.4469 47.8228 93.4185C47.7857 93.3968 47.7445 93.3831 47.7019 93.3782C47.6261 93.3543 47.557 93.3128 47.5003 93.2572C47.3597 93.1723 47.225 93.078 47.0971 92.975L46.9358 92.8137C46.3982 92.76 45.8741 92.7062 45.3634 92.6525C44.8679 92.5995 44.3699 92.5726 43.8716 92.5718C43.1269 92.8095 42.4306 93.1782 41.8153 93.6604C40.0528 94.8822 38.9871 96.8785 38.9527 99.0228C38.9258 99.8292 38.9124 100.636 38.9124 101.442C38.9383 101.492 38.9521 101.547 38.9527 101.603C38.9744 101.64 38.9881 101.681 38.993 101.724V101.885C39.0199 102.047 39.0468 102.195 39.0737 102.329C39.1275 102.49 39.1812 102.652 39.2349 102.813C39.2619 102.893 39.2887 102.987 39.3156 103.095L39.3962 103.418C39.4166 103.462 39.4439 103.503 39.4768 103.539V103.861C39.4774 103.917 39.4913 103.972 39.5172 104.022C39.5171 104.076 39.5171 104.116 39.5172 104.143C39.5171 104.197 39.5171 104.251 39.5172 104.305C39.5171 104.358 39.5171 104.412 39.5172 104.466C39.5431 104.516 39.5569 104.571 39.5575 104.627C39.5792 104.664 39.5929 104.705 39.5978 104.748C39.8968 106.723 39.8008 108.737 39.3156 110.675C38.9702 112.196 38.4138 113.662 37.6625 115.029C36.9368 116.32 36.2782 117.637 35.6869 118.981C35.6868 119.034 35.6868 119.088 35.6869 119.142C35.661 119.192 35.6472 119.247 35.6466 119.303C35.6417 119.346 35.628 119.387 35.6063 119.424V119.585C35.5803 119.635 35.5665 119.69 35.5659 119.747C35.5653 119.803 35.5515 119.858 35.5256 119.908C35.5207 119.951 35.507 119.992 35.4853 120.029C35.4852 120.083 35.4852 120.136 35.4853 120.19C35.4852 120.298 35.4852 120.392 35.4853 120.472C35.4587 120.578 35.4451 120.686 35.445 120.795C35.4181 120.902 35.3912 120.997 35.3643 121.077L35.2837 121.4C35.2837 121.453 35.2837 121.507 35.2837 121.561C35.2837 121.615 35.2837 121.668 35.2837 121.722C35.2837 121.749 35.2837 121.789 35.2837 121.843C35.2837 121.897 35.2837 121.951 35.2837 122.004L35.3643 122.327C35.3905 122.54 35.4591 122.746 35.5659 122.932C35.6491 123.072 35.7167 123.221 35.7675 123.375C35.8213 123.51 35.875 123.658 35.9288 123.819C35.9294 123.875 35.9432 123.93 35.9691 123.98C37.1503 125.066 38.5742 125.854 40.1219 126.278C40.8208 126.466 41.5062 126.668 42.1782 126.883C43.8908 126.671 45.5877 126.348 47.2584 125.915C47.067 126.149 46.8788 126.378 46.6939 126.601C45.5638 127.962 44.5962 129.064 43.791 129.907C43.1494 130.626 42.433 131.275 41.6541 131.842C39.3156 133.401 35.9422 134.181 31.5341 134.181C26.212 134.181 22.8118 133.24 21.3334 131.358C20.8496 130.767 20.6077 129.665 20.6077 128.052C20.6638 126.549 20.8391 125.053 21.1318 123.577C21.3811 122.103 21.7313 120.648 22.1801 119.222C23.3896 116.185 24.3438 113.739 25.0427 111.884C26.3329 108.471 26.9243 105.985 26.8168 104.426C27.2155 100.892 27.2965 97.3295 27.0587 93.7814C27.0351 93.7307 27.0214 93.6759 27.0184 93.6201C26.8534 91.3486 26.3786 89.1104 25.6072 86.9675C26.6565 86.3435 27.781 85.8557 28.9537 85.5161C31.1238 84.8719 33.3844 84.5859 35.6466 84.6694C39.7943 84.1294 44.0059 84.9349 47.6615 86.9675C49.5974 88.0516 51.4324 89.3065 53.1449 90.7172C55.3064 92.4015 56.9428 94.6673 57.8622 97.2488C57.2182 97.1777 56.5709 97.3503 56.0478 97.7326C55.9346 97.7902 55.8267 97.8577 55.7253 97.9342C55.7022 97.9541 55.6745 97.968 55.6447 97.9745C55.6067 98.0171 55.5663 98.0575 55.5237 98.0955C54.895 98.8578 54.5401 99.809 54.5157 100.797C54.5123 100.966 54.5123 101.128 54.5157 101.281C54.1705 100.585 53.861 99.8714 53.5884 99.1438C53.2817 98.3096 52.8161 97.5429 52.2176 96.8859C51.9487 96.5903 51.6934 96.2812 51.4515 95.9586C51.3171 95.8511 51.1827 95.7436 51.0483 95.6361L50.9677 95.4748C50.9419 95.4222 50.8993 95.3796 50.8467 95.3538C50.7661 95.2463 50.6854 95.1388 50.6048 95.0313L50.4435 94.87Z" fill="#1E1F26"/>
<path d="M50.1613 94.7087C50.2586 94.7566 50.3529 94.8104 50.4436 94.8699L50.6048 95.0312C50.6855 95.1387 50.7661 95.2463 50.8467 95.3538C50.8994 95.3795 50.9419 95.4221 50.9677 95.4747L51.0483 95.636C51.1827 95.7435 51.3171 95.851 51.4515 95.9585C51.6934 96.2811 51.9488 96.5902 52.2176 96.8859C52.8161 97.5428 53.2817 98.3096 53.5884 99.1437C53.861 99.8713 54.1705 100.585 54.5157 101.281C54.4958 102.168 54.4958 103.042 54.5157 103.901C54.507 104.083 54.507 104.257 54.5157 104.425C54.4009 107.585 53.8723 110.717 52.9433 113.739C51.8501 118.126 49.9197 122.261 47.2584 125.915C45.5878 126.348 43.8908 126.671 42.1782 126.883C41.5062 126.668 40.8208 126.466 40.122 126.278C38.5742 125.854 37.1503 125.066 35.9691 123.98C35.9432 123.93 35.9294 123.875 35.9288 123.819C35.875 123.658 35.8213 123.51 35.7675 123.375C35.7167 123.221 35.6491 123.072 35.566 122.932C35.4591 122.746 35.3905 122.54 35.3644 122.327L35.2837 122.004C35.2837 121.951 35.2837 121.897 35.2837 121.843C35.2837 121.789 35.2837 121.749 35.2837 121.722C35.2837 121.668 35.2837 121.615 35.2837 121.561C35.2837 121.507 35.2837 121.453 35.2837 121.4L35.3644 121.077C35.3912 120.996 35.4181 120.902 35.445 120.795C35.4452 120.686 35.4587 120.578 35.4853 120.472C35.4853 120.392 35.4853 120.298 35.4853 120.19C35.4853 120.136 35.4853 120.083 35.4853 120.029C35.507 119.992 35.5208 119.951 35.5256 119.908C35.5515 119.858 35.5654 119.803 35.566 119.747C35.5665 119.69 35.5803 119.635 35.6063 119.585V119.424C35.628 119.387 35.6417 119.346 35.6466 119.303C35.6472 119.247 35.661 119.192 35.6869 119.142C35.6869 119.088 35.6869 119.034 35.6869 118.981C36.2782 117.637 36.9368 116.32 37.6625 115.029C38.4138 113.662 38.9702 112.196 39.3156 110.675C39.8009 108.737 39.8968 106.723 39.5978 104.748C39.5929 104.705 39.5792 104.664 39.5575 104.627C39.5569 104.571 39.5431 104.516 39.5172 104.466C39.5171 104.412 39.5171 104.358 39.5172 104.305C39.5171 104.251 39.5171 104.197 39.5172 104.143C39.5171 104.116 39.5171 104.076 39.5172 104.022C39.4913 103.972 39.4775 103.917 39.4769 103.861V103.538C39.4439 103.503 39.4167 103.462 39.3962 103.418L39.3156 103.095C39.2887 102.987 39.2618 102.893 39.235 102.813C39.1812 102.651 39.1274 102.49 39.0737 102.329C39.0468 102.195 39.0199 102.047 38.993 101.885V101.724C38.9881 101.681 38.9744 101.64 38.9527 101.603C38.9522 101.547 38.9383 101.492 38.9124 101.442C38.9124 100.636 38.9258 99.8291 38.9527 99.0228C38.9871 96.8784 40.0528 94.8821 41.8154 93.6604C42.4306 93.1781 43.1269 92.8095 43.8716 92.5718C44.3699 92.5725 44.8679 92.5995 45.3634 92.6524C45.8741 92.7062 46.3983 92.7599 46.9358 92.8137L47.0971 92.975C47.225 93.078 47.3597 93.1722 47.5003 93.2572C47.5571 93.3128 47.6261 93.3542 47.7019 93.3782C47.7446 93.3831 47.7858 93.3968 47.8228 93.4185C47.9345 93.4469 48.0426 93.4874 48.1454 93.5394C48.2149 93.5757 48.2823 93.6161 48.347 93.6604C48.5929 93.824 48.8487 93.9721 49.113 94.1039C49.4793 94.2748 49.83 94.4772 50.1613 94.7087Z" fill="#3F474E"/>
<path d="M30.7321 24.268C31.0739 19.6529 33.3953 15.5844 37.6965 12.0625C44.2536 6.70755 54.0592 4.7534 67.1133 6.20008C67.4128 6.22097 67.7105 6.26307 68.004 6.32604C68.3592 6.39234 68.6944 6.45717 69.0097 6.52052C69.672 6.64778 70.3209 6.83646 70.9482 7.0841C71.1882 7.14296 71.4232 7.22055 71.6511 7.31616C77.4775 9.66778 81.4797 13.4245 83.6577 18.5862C84.4257 20.3409 84.9351 22.1977 85.1697 24.0987C85.292 24.8554 85.3357 25.6228 85.3002 26.3886C85.242 28.6107 84.5403 30.7683 83.2801 32.5996C81.4117 35.1415 78.458 35.8628 74.4191 34.7637C70.968 33.8281 66.1842 34.4139 60.0676 36.5212C53.3336 38.8628 48.5144 39.9261 45.6101 39.7111C41.4326 39.4017 37.7937 37.4921 34.6933 33.9822C31.8139 30.7287 30.4935 27.4906 30.7321 24.268ZM46.4516 14.571C45.3332 15.0883 44.2943 15.6114 43.3351 16.1404C42.1012 16.8193 40.9367 17.6174 39.8583 18.5232L39.7942 18.5785L39.4781 18.7951C39.1333 19.1296 38.8084 19.4656 38.5034 19.803L36.6557 23.6865C36.3446 26.515 37.5845 29.2912 39.8984 30.9473C41.5222 32.1738 43.4163 32.9931 45.4221 33.3365L46.5515 33.4801L46.9693 33.5111C47.9981 33.5773 49.0312 33.5127 50.0438 33.3187C51.1671 33.1387 52.2722 32.859 53.346 32.4831C54.7439 31.9635 56.1107 31.3635 57.4394 30.686C57.5072 30.6607 57.5706 30.6249 57.6273 30.5799C58.5148 30.1388 59.4252 29.7455 60.3548 29.4018C63.3518 28.2611 66.5601 27.7823 69.7596 27.998C75.2102 28.4016 78.3908 28.3971 79.3015 27.9845C79.6713 27.8519 79.9513 27.3125 80.1413 26.3665C80.2135 25.9318 80.2702 25.436 80.3115 24.879L80.3159 24.8193C80.3365 24.5398 80.3372 24.2591 80.3181 23.9794C80.3481 22.2463 79.9154 20.5365 79.0647 19.0262C78.1398 17.3508 76.8531 15.9026 75.2982 14.7869C72.3214 12.5264 68.7526 11.1782 65.0247 10.9059C63.4265 10.788 61.8218 10.7895 60.2239 10.9104C60.0825 10.903 59.9408 10.9126 59.8017 10.9391C59.6799 10.9305 59.5575 10.9417 59.4392 10.9723L59.3796 10.9679C54.9006 11.4457 50.532 12.6632 46.4516 14.571Z" fill="#091628"/>
<path d="M60.4029 10.9235C60.5824 10.8992 60.7637 10.8926 60.9445 10.9036C62.5388 10.9817 64.1501 11.101 65.7784 11.2616C66.2897 11.3794 66.8224 11.4789 67.3765 11.5599C69.163 11.9243 70.878 12.5783 72.4536 13.496C72.9105 13.7673 73.2944 14.1459 73.572 14.5989C73.5716 14.6453 73.5899 14.69 73.6228 14.7227L73.614 14.8421C73.6135 14.8885 73.6318 14.9331 73.6648 14.9658L73.6559 15.0852L73.647 15.2045C73.6435 15.2208 73.6477 15.2378 73.6586 15.2504C73.6695 15.263 73.6857 15.2698 73.7023 15.2686L73.6934 15.388L73.6845 15.5073C73.6471 15.5348 73.6224 15.5763 73.616 15.6222L73.6071 15.7416C73.4542 16.4967 72.8684 17.0894 72.1152 17.2513C71.7758 17.3062 71.4283 17.2805 71.1007 17.1761C69.8232 16.7939 68.5749 16.3205 67.3652 15.7594C66.6389 15.3875 65.8769 15.0899 65.0908 14.8709C64.6929 14.8415 64.2965 14.7921 63.9016 14.7229C63.8 14.7111 63.7008 14.6835 63.6077 14.6411L63.4883 14.6322C62.9218 14.634 62.3599 14.5313 61.8306 14.3295C60.9067 14.3811 59.9843 14.4128 59.0633 14.4246C58.6389 14.3951 58.2211 14.3035 57.8233 14.1528C57.5706 14.0676 57.3516 13.9043 57.1978 13.6864C57.1649 13.6537 57.1466 13.6091 57.147 13.5627C57.1141 13.5299 57.0957 13.4853 57.0961 13.4389C57.0965 13.3925 57.0782 13.3478 57.0453 13.3151C57.0457 13.2687 57.0274 13.2241 56.9945 13.1913L57.0034 13.072C56.9705 13.0392 56.9521 12.9946 56.9525 12.9482L56.9614 12.8289L56.9658 12.7692L56.9747 12.6498C56.9841 12.5281 57.0132 12.4086 57.0609 12.2962L57.0698 12.1769C57.1072 12.1493 57.1319 12.1079 57.1383 12.0619C57.1757 12.0344 57.2004 11.993 57.2069 11.947C57.2057 11.9304 57.2125 11.9142 57.2251 11.9033C57.2377 11.8924 57.2547 11.8882 57.271 11.8917C57.2774 11.8457 57.3021 11.8043 57.3395 11.7768C57.4797 11.6574 57.6282 11.5481 57.7838 11.4496C58.2572 11.2526 58.7509 11.1081 59.2558 11.0186C59.2918 10.9908 59.3345 10.9733 59.3796 10.9678L59.4393 10.9722C59.5575 10.9416 59.6799 10.9304 59.8017 10.9391C59.9408 10.9125 60.0826 10.9029 60.2239 10.9103L60.4029 10.9235Z" fill="white"/>
<path d="M43.3351 16.1404C42.7 17.0402 42.2935 18.081 42.1504 19.1729L42.1415 19.2923C42.1042 19.3198 42.0795 19.3613 42.073 19.4072C42.0666 19.4532 42.0419 19.4946 42.0045 19.5222L41.9647 20.0593C41.9088 20.2733 41.8923 20.4958 41.9161 20.7157C41.9473 20.8347 41.938 20.9607 41.8896 21.0738C41.9225 21.1065 41.9408 21.1511 41.9404 21.1975C41.9684 21.3596 41.995 21.5416 42.02 21.7435L41.9935 22.1015L41.9803 22.2805C42.1441 22.82 42.3673 23.3397 42.6457 23.83C42.9717 24.4231 43.4541 24.9154 44.0404 25.2534C45.1598 25.9398 46.3757 26.4546 47.6476 26.7807C48.1749 26.9009 48.7107 26.9807 49.2501 27.0194C49.2829 26.9864 49.3275 26.9681 49.3739 26.9686C52.928 26.5117 56.4328 25.9111 59.8883 25.1669C65.9554 23.9058 72.1633 23.4574 78.3487 23.8336C78.7786 23.4609 79.0698 22.9538 79.1753 22.3947L79.2062 21.9769L79.2902 20.843L79.3344 20.2463C79.282 19.8322 79.1917 19.4238 79.0647 19.0262C79.9154 20.5365 80.348 22.2463 80.3181 23.9795C80.3372 24.2591 80.3365 24.5398 80.3159 24.8194L80.3115 24.8791C80.2702 25.436 80.2135 25.9319 80.1413 26.3666C79.9512 27.3126 79.6713 27.8519 79.3014 27.9846C78.3908 28.3972 75.2101 28.4017 69.7596 27.9981C66.5601 27.7823 63.3518 28.2611 60.3547 29.4018C59.4252 29.7455 58.5147 30.1388 57.6273 30.5799C57.5705 30.6248 57.5071 30.6606 57.4394 30.686C56.1107 31.3634 54.7439 31.9635 53.3459 32.4831C52.2722 32.859 51.1671 33.1386 50.0438 33.3186C49.0312 33.5126 47.9981 33.5773 46.9692 33.511L46.5515 33.4801L45.422 33.3364C43.4163 32.9931 41.5221 32.1738 39.8984 30.9472C37.5845 29.2911 36.3446 26.515 36.6557 23.6865L38.5034 19.803C38.8085 19.4656 39.1334 19.1296 39.4782 18.7951L39.7943 18.5785L39.8583 18.5232C40.9367 17.6174 42.1012 16.8193 43.3351 16.1404Z" fill="#4E7A8D"/>
<path d="M42.1505 19.1729C42.2936 18.0809 42.7001 17.0402 43.3352 16.1404C44.2944 15.6113 45.3333 15.0882 46.4516 14.571C50.532 12.6632 54.9007 11.4456 59.3796 10.9678C59.3345 10.9733 59.2918 10.9909 59.2558 11.0186C58.7509 11.1081 58.2573 11.2526 57.7838 11.4497C57.6282 11.5481 57.4797 11.6574 57.3395 11.7768C57.3022 11.8043 57.2774 11.8458 57.271 11.8918C57.2547 11.8882 57.2377 11.8925 57.2251 11.9034C57.2125 11.9142 57.2058 11.9304 57.2069 11.947C57.2005 11.993 57.1757 12.0344 57.1383 12.062C57.1319 12.1079 57.1072 12.1494 57.0698 12.1769L57.0609 12.2962C57.0133 12.4087 56.9842 12.5281 56.9747 12.6499L56.9659 12.7692L56.9615 12.8289L56.9526 12.9482C56.9522 12.9947 56.9705 13.0393 57.0034 13.072L56.9945 13.1914C57.0274 13.2241 57.0457 13.2687 57.0453 13.3151C57.0782 13.3479 57.0966 13.3925 57.0962 13.4389C57.0958 13.4853 57.1141 13.53 57.147 13.5627C57.1466 13.6091 57.1649 13.6537 57.1978 13.6865C57.3516 13.9043 57.5707 14.0676 57.8233 14.1528C58.2212 14.3036 58.6389 14.3952 59.0633 14.4247C59.9843 14.4128 60.9067 14.3811 61.8306 14.3295C62.3599 14.5314 62.9219 14.634 63.4884 14.6323L63.6077 14.6411C63.7009 14.6835 63.8 14.7111 63.9017 14.7229C64.2966 14.7922 64.693 14.8415 65.0908 14.871C65.8769 15.0899 66.6389 15.3876 67.3652 15.7595C68.5749 16.3205 69.8232 16.794 71.1007 17.1762C71.4283 17.2805 71.7758 17.3062 72.1152 17.2513C72.8686 17.0896 73.4545 16.4969 73.6075 15.7417L73.6163 15.6224C73.6228 15.5764 73.6475 15.535 73.6849 15.5074L73.6937 15.3881L73.7026 15.2688C73.686 15.2699 73.6698 15.2631 73.659 15.2505C73.6481 15.2379 73.6438 15.2209 73.6474 15.2047L73.6562 15.0853L73.6651 14.966C73.6322 14.9332 73.6139 14.8886 73.6143 14.8422L73.6232 14.7229C73.5903 14.6901 73.572 14.6455 73.5724 14.5991C73.2947 14.146 72.9108 13.7674 72.4539 13.4962C70.8784 12.5784 69.1634 11.9244 67.3768 11.5601C66.8228 11.479 66.2901 11.3796 65.7787 11.2617C64.1505 11.1011 62.5392 10.9818 60.9448 10.9038C60.7641 10.8927 60.5827 10.8994 60.4033 10.9237L60.2243 10.9104C61.8222 10.7895 63.4269 10.788 65.0251 10.9059C68.7529 11.1782 72.3216 12.5264 75.2983 14.7868C76.8532 15.9025 78.1399 17.3507 79.0648 19.0261C79.1918 19.4237 79.2821 19.8321 79.3345 20.2461L79.2903 20.8429L79.2063 21.9768L79.1754 22.3946C79.07 22.9537 78.7787 23.4608 78.3488 23.8335C72.1634 23.4573 65.9555 23.9057 59.8884 25.1668C56.4329 25.911 52.9282 26.5116 49.374 26.9684C49.3276 26.968 49.283 26.9863 49.2502 27.0192C48.7108 26.9806 48.175 26.9008 47.6477 26.7806C46.3758 26.4545 45.1599 25.9397 44.0405 25.2533C43.4542 24.9153 42.9718 24.423 42.6458 23.83C42.3674 23.3397 42.1443 22.8201 41.9804 22.2806L41.9937 22.1016L42.0202 21.7436C41.9951 21.5417 41.9686 21.3597 41.9406 21.1976C41.941 21.1512 41.9227 21.1066 41.8898 21.0739C41.9381 20.9608 41.9474 20.8348 41.9163 20.7158C41.8925 20.4959 41.9089 20.2734 41.9649 20.0594L42.0047 19.5223C42.042 19.4947 42.0668 19.4533 42.0732 19.4073C42.0796 19.3614 42.1043 19.3199 42.1417 19.2924L42.1505 19.1729Z" fill="#90C3D0"/>
<path d="M67.579 104.224C67.6691 104.835 67.7363 105.453 67.7806 106.079C67.9126 107.877 67.926 109.682 67.8209 111.481C67.2834 116.185 67.0146 119.223 67.0146 120.593C67.0782 122.308 67.2397 124.018 67.4984 125.714C67.7163 127.134 68.448 128.426 69.5546 129.343C71.3556 130.955 73.9494 131.762 77.3362 131.762C81.3667 131.91 85.2538 130.255 87.94 127.246C88.7787 126.295 89.5089 125.254 90.1172 124.142C90.4033 123.629 90.672 123.091 90.9235 122.529C92.7244 118.605 93.6249 113.753 93.6249 107.974C93.6249 100.421 93.1276 94.5341 92.1331 90.3141C91.902 89.3504 91.687 88.3827 91.488 87.4112C91.3361 86.6694 91.1882 85.9302 91.0445 85.1936C90.8039 84.1693 90.562 83.1479 90.3187 82.1294C90.2917 82.012 90.2648 81.8911 90.2381 81.7665C90.1814 81.6398 90.1277 81.5054 90.0768 81.3633C89.7957 80.5439 89.6328 79.6886 89.593 78.8233C89.5452 77.9707 89.6827 77.1178 89.9962 76.3235C90.0681 76.0865 90.1626 75.857 90.2784 75.6381C90.4282 75.5363 90.5909 75.4549 90.7623 75.3962C90.9611 75.2853 91.1807 75.2166 91.4074 75.1946C91.5128 75.2212 91.6211 75.2348 91.7299 75.2349C92.133 75.3424 92.5362 75.4499 92.9395 75.5574C93.4277 75.7064 93.8804 75.9533 94.27 76.2832C94.9885 76.8935 95.473 77.7343 95.6408 78.662C96.4202 79.4674 96.9278 80.4966 97.0923 81.6053C97.5781 84.5017 98.0619 87.4046 98.5438 90.3141C98.8126 92.0075 99.1217 94.8432 99.4711 98.8213C99.8205 102.369 99.9952 104.439 99.9952 105.03C99.9952 127.286 92.4018 138.414 77.2152 138.414C70.791 138.414 66.235 136.492 63.5471 132.649C61.5312 129.746 60.5233 125.593 60.5232 120.19C60.5352 118.329 60.6699 116.47 60.9264 114.626C61.2221 112.61 61.3699 111.562 61.3699 111.481C61.366 110.447 61.3525 109.412 61.3296 108.377C61.3296 107.678 61.3431 106.979 61.3699 106.28L61.2893 105.958C60.945 104.735 60.486 103.547 59.9184 102.41C59.5174 101.641 59.3493 100.773 59.4346 99.91C59.5153 99.7218 59.5959 99.5202 59.6765 99.3052C59.7572 99.117 59.8513 98.9154 59.9588 98.7004C60.0103 98.596 60.0783 98.5007 60.1603 98.4182C60.2177 98.3048 60.2852 98.1969 60.3619 98.0956C60.8822 97.628 61.5261 97.3201 62.2166 97.2086C62.3375 97.2125 62.4584 97.2125 62.5795 97.2086C63.085 97.181 63.5912 97.2494 64.0713 97.4102C64.2108 97.4665 64.3456 97.5339 64.4745 97.6118C64.6574 97.6896 64.8329 97.7841 64.9986 97.894C66.294 99.7992 67.1733 101.956 67.579 104.224Z" fill="black"/>
<path d="M81.9728 86.8062C81.9985 86.7536 82.0411 86.711 82.0937 86.6852C82.2818 86.4702 82.4834 86.2552 82.6985 86.0401C82.9471 85.8181 83.1764 85.5753 83.3839 85.3144L83.4646 85.1531C83.8614 84.834 84.3119 84.5883 84.7951 84.4274C85.9209 84.1051 87.0994 84.0092 88.2625 84.1452C89.2075 84.4458 90.1361 84.7957 91.0445 85.1934C91.1882 85.93 91.336 86.6692 91.488 87.411C91.6869 88.3825 91.902 89.3501 92.1331 90.3139C93.1276 94.5339 93.6249 100.42 93.6249 107.974C93.6249 113.753 92.7244 118.605 90.9235 122.529C90.4514 122.731 89.981 122.932 89.5124 123.133C88.2985 123.672 87.0449 124.117 85.7627 124.464H84.1097C83.1689 124.195 82.2282 123.913 81.2874 123.617C80.2771 123.275 79.3643 122.694 78.6263 121.924L78.2231 121.601C78.2236 121.548 78.1917 121.5 78.1425 121.48C78.0117 121.351 77.9028 121.201 77.8199 121.037C77.7662 120.876 77.7125 120.714 77.6587 120.553C77.578 120.338 77.4974 120.136 77.4167 119.948C77.4167 119.894 77.4167 119.841 77.4167 119.787C77.4167 119.626 77.4167 119.478 77.4167 119.343C77.4167 119.29 77.4167 119.236 77.4167 119.182C77.4167 119.021 77.4167 118.873 77.4167 118.739C77.4167 118.685 77.4167 118.631 77.4167 118.577C77.4427 118.528 77.4565 118.472 77.4571 118.416C77.5355 118.236 77.5897 118.046 77.6184 117.852C77.6979 117.59 77.7387 117.318 77.7393 117.045C77.7381 116.896 77.7517 116.748 77.7796 116.602C77.8043 116.51 77.8179 116.415 77.8199 116.319C77.8967 116.07 77.9506 115.813 77.9812 115.553C78.0048 115.088 78.086 114.628 78.2231 114.183C78.3844 113.645 78.5457 113.094 78.707 112.53C78.7616 112.223 78.7886 111.913 78.7876 111.602C78.8167 111.569 78.8313 111.525 78.8279 111.481L78.9085 110.997C78.9354 110.863 78.9623 110.715 78.9892 110.554C79.0169 110.354 79.0303 110.151 79.0295 109.949C79.0295 109.895 79.0295 109.842 79.0295 109.788C79.0587 109.755 79.0732 109.711 79.0698 109.667C79.1227 109.511 79.1499 109.348 79.1505 109.183C79.1774 109.102 79.2043 109.008 79.2311 108.901C79.258 108.7 79.258 108.497 79.2311 108.296C79.257 108.246 79.2708 108.191 79.2714 108.135L79.3521 107.974C79.4596 106.925 79.5268 105.877 79.5536 104.829C79.6622 102.755 79.5676 100.675 79.2714 98.6196C79.1097 97.6197 79.0288 96.6085 79.0295 95.5957C79.0554 95.5458 79.0692 95.4906 79.0698 95.4344C79.1234 95.2733 79.2053 95.1232 79.3117 94.9909C79.4157 94.8664 79.4727 94.7095 79.473 94.5474C79.4981 94.3392 79.5524 94.1356 79.6343 93.9426C79.6602 93.8928 79.674 93.8375 79.6746 93.7813C79.6752 93.7252 79.689 93.6699 79.7149 93.6201C79.7132 93.5244 79.7268 93.4291 79.7552 93.3378V93.1766C79.7558 93.1204 79.7696 93.0651 79.7956 93.0153C79.8224 92.9078 79.8493 92.8137 79.8762 92.733C79.8762 92.6793 79.8762 92.6255 79.8762 92.5718C79.8762 92.518 79.8762 92.4643 79.8762 92.4105C80.0106 91.9536 80.1315 91.4966 80.2391 91.0397C80.4184 90.4954 80.6478 89.969 80.9245 89.4672C81.375 88.6234 81.7267 87.7305 81.9728 86.8062Z" fill="#3F474E"/>
<path d="M70.3207 88.0965C70.7198 87.6425 71.2158 87.2842 71.7722 87.0482C72.2257 86.8905 72.5822 86.534 72.7399 86.0805C72.842 84.9148 73.1999 83.786 73.7881 82.7744C74.4579 81.5886 77.6834 79.0216 83.4646 75.0735C84.8009 74.1684 85.8358 73.4158 86.5692 72.8157C88.0628 73.5808 89.2661 74.8124 89.9963 76.3234C89.6828 77.1177 89.5452 77.9706 89.5931 78.8232C89.6328 79.6885 89.7957 80.5438 90.0769 81.3632C90.1277 81.5053 90.1815 81.6397 90.2382 81.7664C90.2648 81.8909 90.2917 82.0119 90.3188 82.1293C90.5621 83.1477 90.804 84.1692 91.0446 85.1935C90.1362 84.7958 89.2076 84.4459 88.2626 84.1452C87.0995 84.0092 85.9209 84.1052 84.7952 84.4275C84.312 84.5883 83.8615 84.8341 83.4646 85.1532L83.384 85.3145C83.1765 85.5753 82.9472 85.8181 82.6986 86.0402C82.4835 86.2552 82.2819 86.4703 82.0938 86.6853C82.0412 86.7111 81.9986 86.7536 81.9728 86.8063C81.7268 87.7306 81.3751 88.6235 80.9246 89.4673C80.6479 89.9691 80.4185 90.4955 80.2391 91.0397C80.1316 91.4967 80.0107 91.9536 79.8763 92.4106C79.8763 92.4643 79.8763 92.5181 79.8763 92.5718C79.8763 92.6256 79.8763 92.6794 79.8763 92.7331C79.8494 92.8138 79.8225 92.9078 79.7956 93.0153C79.7697 93.0652 79.7559 93.1204 79.7553 93.1766V93.3379C79.7268 93.4292 79.7132 93.5245 79.715 93.6201C79.6891 93.67 79.6753 93.7252 79.6747 93.7814C79.6741 93.8376 79.6603 93.8928 79.6344 93.9427C79.5524 94.1357 79.4981 94.3393 79.4731 94.5475C79.4728 94.7096 79.4157 94.8665 79.3118 94.991C79.2054 95.1232 79.1235 95.2734 79.0699 95.4345C79.0693 95.4907 79.0555 95.5459 79.0296 95.5957C79.0289 96.6086 79.1098 97.6198 79.2715 98.6196C79.5677 100.675 79.6622 102.755 79.5537 104.829C79.5268 105.877 79.4596 106.925 79.3521 107.974L79.2715 108.135C79.2709 108.191 79.2571 108.246 79.2312 108.296C79.2581 108.497 79.2581 108.7 79.2312 108.901C79.2043 109.008 79.1774 109.102 79.1505 109.183C79.15 109.348 79.1227 109.511 79.0699 109.667C79.0733 109.711 79.0588 109.755 79.0296 109.788C79.0295 109.842 79.0295 109.895 79.0296 109.949C79.0304 110.152 79.0169 110.354 78.9893 110.554C78.9624 110.715 78.9355 110.863 78.9086 110.997L78.828 111.481C78.8313 111.525 78.8168 111.569 78.7877 111.602C78.7887 111.913 78.7617 112.224 78.707 112.53C78.5458 113.094 78.3845 113.645 78.2232 114.183C78.0861 114.628 78.0049 115.088 77.9813 115.554C77.9507 115.813 77.8967 116.07 77.82 116.32C77.818 116.415 77.8044 116.51 77.7797 116.602C77.7517 116.748 77.7382 116.896 77.7394 117.045C77.7387 117.319 77.698 117.59 77.6184 117.852C77.5898 118.046 77.5355 118.236 77.4571 118.416C77.4566 118.472 77.4428 118.528 77.4168 118.577C77.4168 118.631 77.4168 118.685 77.4168 118.739C77.4168 118.873 77.4168 119.021 77.4168 119.182C77.4168 119.236 77.4168 119.29 77.4168 119.343C77.4168 119.478 77.4168 119.626 77.4168 119.787C77.4168 119.841 77.4168 119.894 77.4168 119.948C77.4975 120.136 77.5781 120.338 77.6587 120.553C77.7124 120.714 77.7662 120.876 77.82 121.037C77.9029 121.201 78.0118 121.351 78.1426 121.48C78.1917 121.5 78.2237 121.548 78.2232 121.601L78.6264 121.924C79.3644 122.694 80.2772 123.275 81.2874 123.617C82.2282 123.913 83.169 124.195 84.1097 124.464H85.7628C87.045 124.117 88.2986 123.673 89.5124 123.133C89.9811 122.933 90.4515 122.731 90.9236 122.529C90.6721 123.091 90.4033 123.628 90.1172 124.141C89.509 125.254 88.7788 126.295 87.9401 127.246C85.2539 130.255 81.3668 131.91 77.3362 131.762C73.9495 131.762 71.3556 130.955 69.5547 129.343C68.448 128.426 67.7164 127.134 67.4985 125.714C67.2398 124.018 67.0783 122.308 67.0146 120.593C67.0146 119.223 67.2834 116.185 67.821 111.481C67.9261 109.681 67.9126 107.877 67.7807 106.079C67.7364 105.453 67.6692 104.834 67.5791 104.224C67.1734 101.956 66.2941 99.7991 64.9987 97.8939C64.833 97.784 64.6575 97.6895 64.4746 97.6117C64.3458 97.5338 64.2109 97.4664 64.0714 97.4101C63.5913 97.2493 63.0851 97.1809 62.5796 97.2085C62.4585 97.2124 62.3375 97.2124 62.2167 97.2085C62.1064 96.4587 62.1201 95.696 62.257 94.9506C62.4653 93.7523 63.112 92.6744 64.0714 91.9267C64.4417 91.2623 64.9184 90.663 65.4825 90.1527C66.8045 88.9216 68.5169 88.1938 70.3207 88.0965Z" fill="#1E1F26"/>
<path d="M74.5541 88.5802C74.6543 88.5213 74.7618 88.4541 74.8766 88.3786C75.8956 87.8542 76.9305 87.3301 77.9812 86.8062C78.0882 86.8685 78.1957 86.9357 78.3037 87.0077L78.4247 87.1287C78.2324 87.3186 78.0694 87.536 77.9409 87.7738C77.8502 87.8333 77.7559 87.8872 77.6586 87.9351C77.472 88.2019 77.2701 88.4577 77.0538 88.7011C76.7326 89.0756 76.449 89.4807 76.2072 89.9107C72.7518 93.5772 68.7868 96.7275 64.4341 99.2646C62.2656 99.796 60.0516 100.12 57.8218 100.232L57.338 99.9097L56.9348 99.5872C56.8208 99.5008 56.713 99.4065 56.6123 99.305C56.5321 99.1979 56.4371 99.1029 56.33 99.0227C56.3016 98.9111 56.2611 98.8029 56.2091 98.7002L56.0478 98.3776C55.9916 98.2912 55.9506 98.1957 55.9268 98.0954C55.9031 97.995 55.8622 97.8996 55.8059 97.8132V96.6036C55.8579 96.5008 55.8984 96.3927 55.9268 96.281C55.9506 96.1807 55.9916 96.0852 56.0478 95.9988L56.1688 95.7569C59.2331 95.2367 62.2155 94.3149 65.0389 93.0152C65.6682 92.8769 66.2778 92.6602 66.8532 92.3701C67.2056 92.1519 67.5424 91.9094 67.8612 91.6444C69.0459 91.2844 70.1935 90.8119 71.2883 90.2332C71.8718 89.9285 72.4632 89.6194 73.0623 89.3059C73.5792 89.1067 74.0783 88.8639 74.5541 88.5802Z" fill="black"/>
</g>
<defs>
<clipPath id="clip0_1_1154">
<rect width="99.9904" height="141.922" fill="white" transform="translate(0.00476074)"/>
</clipPath>
</defs>
</svg>
