<svg width="64" height="51" viewBox="0 0 64 51" fill="none" xmlns="http://www.w3.org/2000/svg">
<path d="M13.2011 12.9289C15.5442 10.5858 15.5442 6.78678 13.2011 4.44364C10.8579 2.10049 7.05893 2.10049 4.71578 4.44364C2.37264 6.78678 2.37264 10.5858 4.71578 12.9289C7.05893 15.2721 10.8579 15.2721 13.2011 12.9289Z" fill="#FFFDE9"/>
<path d="M47.1421 11.5147C48.7042 9.95261 48.7042 7.41995 47.1421 5.85785C45.58 4.29575 43.0474 4.29576 41.4853 5.85785C39.9232 7.41995 39.9232 9.95261 41.4853 11.5147C43.0474 13.0768 45.58 13.0768 47.1421 11.5147Z" fill="#D6D5D9"/>
<path d="M36.8891 48.6376C37.8654 47.6613 37.8654 46.0784 36.8891 45.1021C35.9128 44.1258 34.3299 44.1258 33.3536 45.1021C32.3773 46.0784 32.3773 47.6613 33.3536 48.6376C34.3299 49.614 35.9128 49.614 36.8891 48.6376Z" fill="#FFFDE9"/>
<path d="M62.6986 34.1422C63.0891 33.7516 63.0891 33.1185 62.6986 32.728C62.3081 32.3374 61.6749 32.3374 61.2844 32.728C60.8939 33.1185 60.8939 33.7516 61.2844 34.1422C61.6749 34.5327 62.3081 34.5327 62.6986 34.1422Z" fill="#FFFDE9"/>
</svg>
