<svg width="53" height="54" viewBox="0 0 53 54" fill="none" xmlns="http://www.w3.org/2000/svg">
<g clip-path="url(#clip0_1_1076)">
<path d="M12.0461 43.9462C11.2505 42.5681 9.93995 41.5625 8.40288 41.1506C6.8658 40.7388 5.22807 40.9544 3.84996 41.75C2.47186 42.5457 1.46626 43.8562 1.05441 45.3933C0.642547 46.9303 0.858159 48.5681 1.65381 49.9462C2.44946 51.3243 3.75997 52.3299 5.29705 52.7417C6.83412 53.1536 8.47186 52.938 9.84996 52.1423C11.2281 51.3467 12.2337 50.0362 12.6455 48.4991C13.0574 46.962 12.8418 45.3243 12.0461 43.9462Z" fill="#FFFDE9"/>
<path d="M19.4641 10.7964C18.9337 9.87766 18.06 9.20727 17.0353 8.93269C16.0105 8.65812 14.9187 8.80186 14 9.33229C13.0813 9.86273 12.4109 10.7364 12.1363 11.7611C11.8617 12.7858 12.0055 13.8777 12.5359 14.7964C13.0663 15.7151 13.94 16.3855 14.9647 16.6601C15.9894 16.9347 17.0813 16.7909 18 16.2605C18.9187 15.7301 19.5891 14.8564 19.8637 13.8317C20.1383 12.807 19.9945 11.7151 19.4641 10.7964Z" fill="#D6D5D9"/>
<path d="M52.6651 30.3164C52.3336 29.7422 51.7875 29.3232 51.1471 29.1516C50.5066 28.98 49.8242 29.0698 49.25 29.4013C48.6758 29.7328 48.2568 30.2789 48.0852 30.9193C47.9136 31.5598 48.0034 32.2422 48.335 32.8164C48.6665 33.3906 49.2125 33.8096 49.853 33.9812C50.4934 34.1528 51.1758 34.063 51.75 33.7314C52.3242 33.3999 52.7432 32.8539 52.9148 32.2134C53.0864 31.573 52.9966 30.8906 52.6651 30.3164Z" fill="#FFFDE9"/>
<path d="M45.3459 1.62616C45.2133 1.39648 44.9949 1.22888 44.7387 1.16024C44.4826 1.09159 44.2096 1.12753 43.9799 1.26014C43.7502 1.39274 43.5826 1.61116 43.514 1.86734C43.4453 2.12352 43.4813 2.39648 43.6139 2.62616C43.7465 2.85585 43.9649 3.02345 44.2211 3.09209C44.4773 3.16073 44.7502 3.1248 44.9799 2.99219C45.2096 2.85958 45.3772 2.64116 45.4458 2.38498C45.5145 2.1288 45.4786 1.85585 45.3459 1.62616Z" fill="#FFFDE9"/>
</g>
<defs>
<clipPath id="clip0_1_1076">
<rect width="53" height="53" fill="white" transform="translate(0 0.65625)"/>
</clipPath>
</defs>
</svg>
