<svg width="43" height="65" viewBox="0 0 43 65" fill="none" xmlns="http://www.w3.org/2000/svg">
<mask id="mask0_1_1109" style="mask-type:alpha" maskUnits="userSpaceOnUse" x="4" y="2" width="35" height="60">
<path d="M15.0007 2.82349L38.7523 7.44033L28.1507 61.9811L4.39909 57.3642L15.0007 2.82349Z" fill="#FF0000"/>
</mask>
<g mask="url(#mask0_1_1109)">
<path fill-rule="evenodd" clip-rule="evenodd" d="M22.0927 60.8013C23.7588 60.8413 21.5392 42.976 23.733 38.4809C25.9265 33.9857 33.817 33.7958 33.8527 32.6292C33.8997 31.1112 30.9429 33.1897 25.5147 29.3135C20.0867 25.4371 23.1656 4.22557 21.4413 4.0766C19.7173 3.9279 21.6126 22.2866 18.8448 27.0903C16.0775 31.894 9.4825 30.0959 9.43083 31.505C9.37636 32.9861 14.1052 32.0757 18.2341 37.4749C20.5453 40.4973 20.656 60.7667 22.0927 60.8013Z" fill="#FF0000"/>
</g>
</svg>
