<svg width="66" height="58" viewBox="0 0 66 58" fill="none" xmlns="http://www.w3.org/2000/svg">
<g clip-path="url(#clip0_1_1089)">
<path d="M4.4559 31.7645C5.35253 31.5243 6.11699 30.9377 6.58112 30.1338C7.04525 29.3299 7.17103 28.3746 6.93078 27.4779C6.69052 26.5813 6.10393 25.8168 5.30003 25.3527C4.49614 24.8886 3.5408 24.7628 2.64417 25.0031C1.74754 25.2433 0.983075 25.8299 0.518946 26.6338C0.0548169 27.4377 -0.0709564 28.393 0.169294 29.2897C0.409545 30.1863 0.99614 30.9508 1.80003 31.4149C2.60393 31.879 3.55927 32.0048 4.4559 31.7645Z" fill="#FFFDE9"/>
<path d="M22.5671 41.4087C23.2075 41.237 23.7536 40.818 24.0851 40.2438C24.4166 39.6696 24.5064 38.9872 24.3348 38.3468C24.1632 37.7063 23.7442 37.1603 23.17 36.8288C22.5958 36.4973 21.9134 36.4074 21.273 36.579C20.6325 36.7506 20.0865 37.1696 19.755 37.7438C19.4234 38.318 19.3336 39.0004 19.5052 39.6409C19.6768 40.2813 20.0958 40.8274 20.67 41.1589C21.2442 41.4904 21.9266 41.5803 22.5671 41.4087Z" fill="#D6D5D9"/>
<path d="M6.09815 57.2027C6.48242 57.0997 6.81005 56.8483 7.00896 56.5038C7.20787 56.1593 7.26177 55.7498 7.15881 55.3655C7.05584 54.9813 6.80445 54.6536 6.45992 54.4547C6.11539 54.2558 5.70596 54.2019 5.32169 54.3049C4.93742 54.4079 4.60979 54.6592 4.41088 55.0038C4.21197 55.3483 4.15807 55.7577 4.26103 56.142C4.364 56.5263 4.61539 56.8539 4.95992 57.0528C5.30445 57.2517 5.71388 57.3056 6.09815 57.2027Z" fill="#FFFDE9"/>
<path d="M23.8194 57.6368C23.9475 57.6025 24.0567 57.5187 24.123 57.4038C24.1893 57.289 24.2073 57.1525 24.173 57.0244C24.1387 56.8963 24.0549 56.7871 23.94 56.7208C23.8252 56.6545 23.6887 56.6366 23.5606 56.6709C23.4325 56.7052 23.3233 56.789 23.257 56.9038C23.1907 57.0187 23.1727 57.1552 23.207 57.2833C23.2414 57.4113 23.3252 57.5206 23.44 57.5869C23.5549 57.6532 23.6913 57.6711 23.8194 57.6368Z" fill="#FFFDE9"/>
<path d="M51.1349 4.87074C51.3065 4.23029 51.2166 3.5479 50.8851 2.97369C50.5536 2.39948 50.0076 1.98048 49.3671 1.80887C48.7267 1.63727 48.0443 1.72711 47.4701 2.05863C46.8959 2.39015 46.4769 2.93619 46.3053 3.57664C46.1336 4.21709 46.2235 4.89948 46.555 5.47369C46.8865 6.0479 47.4326 6.46689 48.073 6.6385C48.7135 6.81011 49.3959 6.72027 49.9701 6.38875C50.5443 6.05723 50.9633 5.51118 51.1349 4.87074Z" fill="#D6D5D9"/>
<path d="M56.579 27.0319C56.6819 26.6476 56.628 26.2382 56.4291 25.8937C56.2302 25.5492 55.9026 25.2978 55.5183 25.1948C55.134 25.0918 54.7246 25.1457 54.3801 25.3447C54.0356 25.5436 53.7842 25.8712 53.6812 26.2555C53.5782 26.6397 53.6321 27.0492 53.831 27.3937C54.03 27.7382 54.3576 27.9896 54.7419 28.0926C55.1261 28.1955 55.5356 28.1416 55.8801 27.9427C56.2246 27.7438 56.476 27.4162 56.579 27.0319Z" fill="#FFFDE9"/>
<path d="M65.8131 11.9031C65.8474 11.775 65.8295 11.6385 65.7632 11.5236C65.6969 11.4088 65.5876 11.325 65.4596 11.2907C65.3315 11.2564 65.195 11.2743 65.0801 11.3406C64.9653 11.4069 64.8815 11.5161 64.8472 11.6442C64.8129 11.7723 64.8308 11.9088 64.8971 12.0236C64.9634 12.1385 65.0726 12.2223 65.2007 12.2566C65.3288 12.2909 65.4653 12.273 65.5801 12.2067C65.695 12.1404 65.7788 12.0311 65.8131 11.9031Z" fill="#FFFDE9"/>
</g>
<defs>
<clipPath id="clip0_1_1089">
<rect width="66" height="57" fill="white" transform="translate(0 0.84375)"/>
</clipPath>
</defs>
</svg>
