<svg width="100" height="107" viewBox="0 0 100 107" fill="none" xmlns="http://www.w3.org/2000/svg">
<g clip-path="url(#clip0_1_825)">
<path d="M10.4333 23.079C10.8303 23.0639 11.2256 23.0187 11.6157 22.9438C13.0114 22.6805 14.4215 22.5001 15.8386 22.4033C15.9955 22.6256 16.1768 22.8295 16.3791 23.0114C16.4713 23.2661 16.5502 23.5255 16.6156 23.7884C16.6616 23.9534 16.6843 24.1239 16.6831 24.2952C16.7064 24.4631 16.7177 24.6324 16.7169 24.8019C17.0547 25.4776 17.3813 26.1532 17.6966 26.8289C18.5211 28.5403 19.2101 30.3137 19.7574 32.1328C20.246 33.805 20.9025 35.4236 21.7168 36.9637C21.8069 37.9772 21.942 38.9907 22.1222 40.0042C22.46 41.9411 22.7978 43.878 23.1357 45.8148C23.451 47.4364 23.8226 49.0467 24.2505 50.6458C24.2054 50.9028 24.2054 51.1657 24.2505 51.4228C24.3181 51.7607 24.3744 52.0985 24.4194 52.4363C24.4672 52.6928 24.5467 52.9425 24.6559 53.1795C24.746 54.1029 24.8023 55.0263 24.8248 55.9497C24.8928 58.1577 24.8477 60.3677 24.6897 62.5711C24.5571 64.2661 24.2974 65.9487 23.9127 67.6048C23.9148 68.7168 23.7439 69.8223 23.4059 70.8817C23.0605 72.0435 22.4472 73.1081 21.6154 73.9897C17.6516 78.3139 12.7531 79.3612 6.9199 77.1315C5.36857 76.5665 4.11291 75.3962 3.44026 73.8884C2.20958 71.1459 1.70916 68.1317 1.9876 65.1386C2.48257 59.0812 2.55031 52.9965 2.1903 46.9297C2.03265 46.3441 1.88625 45.7472 1.75112 45.1392C1.59347 44.441 1.40203 43.7541 1.17682 43.0784C0.861507 42.1775 0.5462 41.2654 0.230894 40.342C0.230934 40.2519 0.230934 40.1619 0.230894 40.0717C0.163301 39.3285 0.129511 38.574 0.129511 37.8083C0.152103 37.1326 0.152103 36.457 0.129511 35.7813C0.126936 34.8293 0.275167 33.8829 0.568722 32.9774C0.568764 32.8873 0.568764 32.8084 0.568722 32.7409C0.568764 32.6508 0.568764 32.5607 0.568722 32.4706C0.919214 30.367 1.98046 28.4472 3.57539 27.0316C5.57906 25.2757 7.90955 23.9325 10.4333 23.079ZM12.4941 28.518C12.3246 28.5188 12.1554 28.5301 11.9873 28.5518C9.98535 28.9192 8.15178 29.9129 6.75098 31.3896L6.48072 31.8625C6.3906 32.0427 6.28926 32.2228 6.17667 32.403C6.15271 32.7481 6.08459 33.0888 5.97398 33.4165C5.8819 33.7464 5.83642 34.0875 5.83884 34.43C5.79169 34.5024 5.7574 34.5824 5.7375 34.6665L5.66993 34.9368C5.62278 35.0092 5.58849 35.0892 5.56858 35.1732V39.2272C5.95149 40.5335 6.35688 41.806 6.78476 43.0446C7.25615 44.5222 7.5288 46.0559 7.59555 47.6053C7.6238 47.6864 7.65767 47.7654 7.6969 47.8418L7.76447 48.1121C7.77486 48.2079 7.78612 48.298 7.79825 48.3823C7.95722 49.9671 8.04731 51.5662 8.06851 53.1795C8.11631 55.1276 7.95777 57.0754 7.59555 58.9901C7.59555 60.8595 7.57303 62.7175 7.52799 64.5643C7.43537 66.8558 7.54843 69.151 7.86582 71.4222C7.90337 71.5034 7.96162 71.5733 8.03473 71.6249C8.74449 72.1611 9.58387 72.4991 10.4671 72.6046C12.0211 72.5821 13.5751 72.5483 15.1291 72.5033C15.2051 72.4534 15.2841 72.4083 15.3656 72.3681C16.0889 72.0205 16.7691 71.5896 17.3926 71.0844C17.5728 70.8142 17.7304 70.5552 17.8655 70.3074C18.028 69.9604 18.2085 69.6221 18.4061 69.2939C18.4736 67.9201 18.5975 66.5688 18.7777 65.24C19.0029 63.6409 19.1605 62.0419 19.2506 60.4428C19.2744 60.3493 19.3084 60.2586 19.352 60.1725C19.3745 60.105 19.397 60.0261 19.4195 59.9361C19.4421 58.81 19.4533 57.7064 19.4533 56.6253C19.4546 55.3592 19.3642 54.0947 19.1831 52.8417C19.1395 52.7556 19.1055 52.6649 19.0817 52.5714C19.0592 52.4813 19.0367 52.4025 19.0142 52.3349V51.8282C18.9706 51.7421 18.9366 51.6514 18.9128 51.5579C18.8903 51.4678 18.8678 51.389 18.8452 51.3214C18.8017 51.2353 18.7677 51.1447 18.7439 51.0512V50.5444C18.5638 49.9589 18.4061 49.3733 18.2709 48.7877C18.1358 48.1797 17.9894 47.5828 17.8318 46.9972C17.539 44.9027 17.1561 42.8082 16.6831 40.7136C16.272 38.7907 15.7417 36.8952 15.0953 35.0381C14.7886 34.2185 14.4621 33.3965 14.1156 32.572V32.0652C13.9402 31.5149 13.7373 30.9736 13.5076 30.4436C13.2194 29.7768 12.8806 29.133 12.494 28.518H12.4941Z" fill="#432800"/>
<path d="M14.1157 32.3354V32.5719C14.4621 33.3964 14.7886 34.2185 15.0954 35.0381C15.7417 36.8952 16.272 38.7907 16.6832 40.7136C17.1561 42.8081 17.539 44.9027 17.8318 46.9972C17.9894 47.5828 18.1358 48.1796 18.2709 48.7877C18.4061 49.3733 18.5637 49.9588 18.7439 50.5444V51.0511C18.7677 51.1447 18.8017 51.2353 18.8453 51.3214C18.8678 51.389 18.8903 51.4678 18.9128 51.5579C18.9366 51.6514 18.9706 51.742 19.0142 51.8281V52.3349C19.0367 52.4025 19.0592 52.4813 19.0817 52.5714C19.1055 52.6649 19.1395 52.7555 19.1831 52.8416C19.3642 54.0947 19.4546 55.3592 19.4534 56.6253C19.4534 57.7064 19.442 58.8099 19.4196 59.936C19.397 60.0261 19.3745 60.1049 19.352 60.1725C19.3084 60.2586 19.2744 60.3493 19.2506 60.4428C19.1606 62.0418 19.0029 63.6409 18.7777 65.2399C18.5975 66.5687 18.4736 67.92 18.4061 69.2939C18.2085 69.6221 18.0281 69.9604 17.8656 70.3074C17.7304 70.5551 17.5728 70.8141 17.3926 71.0844C16.7691 71.5896 16.0889 72.0204 15.3656 72.3681C15.2841 72.4083 15.2051 72.4534 15.1291 72.5033C13.5751 72.5483 12.0211 72.5821 10.4671 72.6046C9.58389 72.4991 8.74451 72.161 8.03474 71.6249C7.96164 71.5733 7.90338 71.5034 7.86583 71.4222C7.54844 69.1509 7.43538 66.8558 7.528 64.5643C7.57304 62.7175 7.59557 60.8595 7.59557 58.9901C7.95779 57.0753 8.11632 55.1276 8.06853 53.1795C8.04729 51.5662 7.9572 49.9671 7.79826 48.3823C7.78613 48.2979 7.77487 48.2078 7.76448 48.112L7.69692 47.8418C7.65768 47.7654 7.62381 47.6864 7.59557 47.6053C7.52882 46.0558 7.25616 44.5221 6.78478 43.0446C6.35686 41.8059 5.95147 40.5334 5.5686 39.2271V38.6191C5.82641 37.8971 6.20323 37.2234 6.68343 36.6259C6.71024 36.4803 6.76783 36.342 6.85234 36.2205C6.92833 36.0973 7.01909 35.9838 7.12261 35.8826C7.25774 35.7475 7.38161 35.6124 7.49422 35.4773C8.14824 34.3674 9.21849 33.5647 10.4671 33.2476C11.6723 32.9189 12.8885 32.6148 14.1157 32.3354Z" fill="#C38822"/>
<path d="M11.9873 28.5517C12.1553 28.53 12.3246 28.5187 12.494 28.5179C12.8806 29.133 13.2194 29.7767 13.5075 30.4436C13.7372 30.9736 13.9402 31.5148 14.1156 32.0651V32.3354C12.8885 32.6148 11.6723 32.9188 10.4671 33.2475C9.21843 33.5646 8.14819 34.3673 7.49416 35.4772C7.38158 35.6123 7.25771 35.7475 7.12255 35.8826C7.01903 35.9838 6.92827 36.0972 6.85229 36.2204C6.76777 36.342 6.71019 36.4802 6.68338 36.6258C6.20317 37.2234 5.82635 37.8971 5.56854 38.619V35.1732C5.58845 35.0891 5.62274 35.0091 5.66989 34.9367L5.73746 34.6664C5.75736 34.5823 5.79165 34.5023 5.8388 34.4299C5.83638 34.0875 5.88186 33.7463 5.97394 33.4165C6.08455 33.0887 6.15267 32.7481 6.17663 32.403C6.28924 32.2228 6.39059 32.0426 6.48068 31.8624L6.75094 31.3895C8.15174 29.9128 9.98531 28.9191 11.9873 28.5517Z" fill="#FFEB5A"/>
<path d="M40.5782 62.7078C42.5921 62.6446 44.591 63.073 46.4021 63.9559C47.641 64.6664 48.6268 65.7464 49.2214 67.0449C49.6494 68.0182 49.9389 69.0468 50.0815 70.1004C50.1986 70.726 50.2669 71.3598 50.2856 71.996C50.1067 73.6509 49.7734 75.2854 49.2901 76.8782C48.485 79.9339 47.4398 82.9213 46.1644 85.8124C42.7647 93.6382 39.5986 98.3369 36.6661 99.9086C36.2569 100.127 35.8703 100.346 35.5061 100.565C34.4207 100.987 33.3629 101.476 32.3389 102.031C31.5655 102.468 30.9403 102.807 30.4632 103.046C29.535 103.323 28.222 103.706 26.5243 104.196C22.5001 105.343 18.3442 105.965 14.1603 106.046C9.67601 106.149 6.43068 104.269 4.4243 100.406C2.9982 97.8293 2.24571 94.9343 2.23659 91.9893C2.19125 90.5545 2.50593 89.1311 3.15192 87.8491C3.73258 86.8228 4.97846 85.7516 6.88956 84.6355C9.35589 83.2703 11.9167 82.0832 14.5524 81.0834C17.5073 79.9769 20.1477 78.1663 22.2445 75.8086C23.4324 74.5327 24.3742 73.0482 25.0223 71.4298C25.3758 70.3836 25.9319 69.4172 26.6588 68.5858C28.1918 67.1929 30.7831 65.818 34.4327 64.4612C37.5614 63.2757 39.6099 62.6912 40.5782 62.7077M43.5546 68.4686C43.553 68.5587 42.0569 68.4543 39.0662 68.1555L31.1011 71.6011C30.3377 72.7819 29.2829 74.5321 27.9369 76.8517C26.9277 78.7734 25.5295 80.4641 23.8314 81.8161C23.7173 81.9042 23.5805 82.0033 23.4209 82.1131L20.7621 83.4868C20.6805 83.5137 20.6009 83.5462 20.5239 83.5841C19.1596 84.1901 17.4588 84.8594 15.4215 85.5919C11.886 86.8605 9.67025 88.0053 8.77436 89.0262C8.60458 89.183 8.47396 89.3775 8.39302 89.5941C8.07062 90.2798 7.83144 91.0017 7.68058 91.7443L7.67885 91.8456L7.6777 91.9132L7.67482 92.0821C7.67137 92.2848 7.67897 92.4989 7.69764 92.7244C7.91285 94.3076 8.41332 95.8387 9.17476 97.2434C10.0261 98.8347 12.6491 99.5664 17.0436 99.4387C17.4279 99.3552 18.3544 99.1795 19.8231 98.9117L23.6533 98.2C25.4038 97.8702 27.1201 97.3792 28.7802 96.7332C29.958 96.2016 31.0974 95.5888 32.1903 94.8993C33.5949 93.9786 34.9434 92.9749 36.2285 91.8935C37.5893 90.9068 38.6245 89.5362 39.2014 87.9573C39.7454 86.4349 41.0496 83.2699 43.1138 78.4622C44.017 76.4476 44.5133 74.2745 44.5744 72.0675C44.5098 71.6444 44.3159 71.2516 44.0192 70.9431C43.7485 70.6607 43.5666 70.3052 43.496 69.9205C43.624 69.0217 43.6435 68.5378 43.5546 68.4686L43.5546 68.4686Z" fill="#432800"/>
<path d="M25.2656 86.8748L25.3984 87.0122C25.3955 87.0923 25.4056 87.1723 25.4281 87.2492L25.4258 87.3844C25.4259 87.4645 25.4131 87.5441 25.388 87.6202L25.3857 87.7554C25.3155 87.9117 25.2089 88.0489 25.0747 88.1555C24.8694 88.3097 24.6413 88.4747 24.3905 88.6507C23.8101 89.343 23.0543 89.8669 22.2023 90.1675C21.8603 90.3205 21.5478 90.5324 21.2793 90.7937C20.5107 90.9608 19.7424 91.1054 18.9744 91.2274C18.6851 91.2659 18.4072 91.3648 18.1586 91.5176C17.1679 91.5456 16.1819 91.6645 15.213 91.8728C13.2663 92.1745 11.2756 91.7817 9.5894 90.7632C9.4564 90.5086 9.33681 90.2471 9.23111 89.98C9.10639 89.6496 8.95358 89.3305 8.77437 89.0261C9.67026 88.0053 11.886 86.8605 15.4215 85.5919C17.4588 84.8593 19.1596 84.1901 20.5239 83.5841C21.5941 84.2331 22.6756 84.871 23.7686 85.4978C24.0587 85.6604 24.3375 85.8228 24.605 85.9851C24.7164 86.1005 24.8161 86.2267 24.9027 86.3618C25.0106 86.5417 25.1319 86.7132 25.2656 86.8748Z" fill="#FFEB5A"/>
<path d="M39.0662 68.1555C42.0569 68.4543 43.553 68.5587 43.5546 68.4686C43.6435 68.5377 43.6239 69.0216 43.496 69.9205C43.5666 70.3052 43.7485 70.6607 44.0192 70.943C44.3159 71.2515 44.5098 71.6443 44.5743 72.0675C44.5133 74.2744 44.0169 76.4476 43.1137 78.4622C41.0495 83.2698 39.7454 86.4349 39.2013 87.9573C38.6244 89.5361 37.5893 90.9068 36.2284 91.8935C34.9433 92.9749 33.5949 93.9786 32.1902 94.8993C31.0973 95.5888 29.9579 96.2016 28.7802 96.7332C27.1201 97.3792 25.4038 97.8702 23.6532 98.1999L19.8231 98.9117C18.3544 99.1795 17.4279 99.3551 17.0435 99.4387C12.649 99.5664 10.026 98.8347 9.17469 97.2434C8.41326 95.8387 7.9128 94.3076 7.69758 92.7244C7.67887 92.4988 7.67126 92.2847 7.67476 92.0821L7.67764 91.9132L7.67879 91.8456L7.68052 91.7443C7.83138 91.0017 8.07056 90.2798 8.39296 89.594C8.4739 89.3775 8.60452 89.183 8.7743 89.0261C8.95351 89.3305 9.10632 89.6496 9.23104 89.98C9.33673 90.2472 9.45633 90.5086 9.58933 90.7632C11.2755 91.7817 13.2662 92.1745 15.2129 91.8728C16.1818 91.6646 17.1678 91.5457 18.1585 91.5176C18.4071 91.3648 18.6851 91.266 18.9744 91.2274C19.7423 91.1054 20.5106 90.9608 21.2793 90.7938C21.5478 90.5325 21.8602 90.3205 22.2022 90.1675C23.0543 89.8669 23.81 89.3431 24.3905 88.6507C24.6412 88.4747 24.8693 88.3097 25.0747 88.1555C25.2089 88.049 25.3155 87.9117 25.3856 87.7554L25.3879 87.6203C25.413 87.5442 25.4258 87.4645 25.4257 87.3844L25.428 87.2493C25.4055 87.1724 25.3955 87.0924 25.3983 87.0123L25.2655 86.8749C25.1318 86.7132 25.0105 86.5417 24.9026 86.3618C24.8161 86.2268 24.7163 86.1006 24.6049 85.9851C24.3374 85.8228 24.0586 85.6604 23.7686 85.4978C22.6755 84.871 21.5939 84.2331 20.5238 83.5841C20.6009 83.5462 20.6805 83.5137 20.762 83.4868L23.4209 82.1131C23.5804 82.0032 23.7173 81.9042 23.8314 81.8161C25.5295 80.4641 26.9276 78.7734 27.9368 76.8517C29.2828 74.5321 30.3376 72.7819 31.101 71.6011L39.0662 68.1555Z" fill="#C38822"/>
<path d="M14.5886 16.694C16.1201 12.7977 18.057 10.005 20.3993 8.31586C23.5109 5.95558 26.8762 3.94998 30.4328 2.3363C32.7091 1.27809 35.1371 0.582758 37.6285 0.275544C39.5768 0.146162 41.5327 0.191386 43.4729 0.410676C46.2664 0.897631 48.9894 1.72588 51.5808 2.87682C55.0287 4.29845 58.3732 6.80964 61.6143 10.4104C63.1134 12.0566 64.523 13.782 65.8372 15.5792C70.0476 25.3615 72.9662 35.6504 74.5194 46.1865C75.249 50.6438 75.6442 55.1495 75.7018 59.6658C75.7018 66.5575 72.1321 74.0123 64.9926 82.0301C61.8963 84.3386 59.5991 85.7574 58.1009 86.2867C55.3932 87.1703 52.6419 87.9145 49.8579 88.5164C46.6979 89.3313 43.4577 89.7958 40.196 89.9015C34.0475 89.9015 28.6085 87.3227 23.8789 82.1652C18.6989 76.5348 16.1089 69.4291 16.1088 60.8482C16.2665 58.7087 16.3791 56.9069 16.4467 55.443C16.603 53.0228 16.444 50.5926 15.9737 48.2135C15.7984 47.2193 15.6856 46.2151 15.6359 45.2068L15.467 42.8082C15.3544 41.9073 14.8251 39.002 13.8792 34.0922C12.9783 29.4077 12.5279 26.9415 12.5279 26.6938C12.5797 23.2606 13.2789 19.868 14.5886 16.6941M20.5344 15.7819C20.4836 15.8763 20.4385 15.9664 20.3993 16.0522C18.8962 18.5788 18.0629 20.6846 17.8993 22.3696C17.7162 24.0793 17.6261 25.059 17.629 25.3087C17.629 27.7636 18.3949 32.009 19.9263 38.0448C21.2528 43.0766 21.6873 48.3019 21.2101 53.4836C20.2867 62.6725 21.9871 70.2624 26.3113 76.2532C30.3652 81.8387 35.5227 84.6314 41.7838 84.6314C45.3868 84.7009 48.9813 84.2573 52.4592 83.3138C56.2085 82.2684 59.5979 80.2113 62.2562 77.3681C63.0674 76.492 63.8106 75.6362 64.4859 74.8006L68.2358 69.0237C68.3809 68.6669 68.5161 68.3178 68.6412 67.9764C68.7809 67.5979 68.9048 67.2263 69.0128 66.8616C69.6416 64.4744 70.0265 62.0295 70.1614 59.5645V59.5307C70.1797 59.0869 70.191 58.6365 70.1952 58.1794V57.8754C70.1952 55.176 69.9362 50.9982 69.4182 45.3419C69.3653 44.75 69.309 44.1419 69.2493 43.5177C68.5736 40.1168 67.5714 36.0854 66.2426 31.4234C65.1165 27.437 64.0354 24.0024 62.9994 21.1196C62.6912 20.0973 62.272 19.1117 61.7495 18.1805C60.5558 16.041 58.5176 13.9577 55.6348 11.9307C51.8039 9.2303 48.9324 7.54115 47.0201 6.86327C44.5374 6.09539 41.9501 5.71926 39.3514 5.74843C35.8942 5.75628 32.4889 6.59023 29.4193 8.1808C29.3051 8.24244 29.0348 8.37758 28.6085 8.58619C28.2827 8.75082 27.8773 8.95352 27.3923 9.19428C27.3678 9.20109 27.3449 9.21256 27.3248 9.22807C26.1733 9.77684 25.0762 10.4329 24.0478 11.1875C23.1248 11.8772 21.9536 13.4087 20.5344 15.7819L20.5344 15.7819Z" fill="#432800"/>
<path d="M62.9994 21.1196C64.0354 24.0024 65.1164 27.437 66.2425 31.4234C67.5713 36.0854 68.5736 40.1168 69.2492 43.5176C69.309 44.1419 69.3653 44.75 69.4181 45.3419C69.4234 45.86 69.4347 46.378 69.4519 46.8959C69.4519 47.1436 69.4406 47.4026 69.4181 47.6729C68.822 49.9398 67.9602 52.1283 66.8506 54.193C65.8276 56.1568 64.5309 57.9653 62.9994 59.5645C60.227 61.2569 57.0577 62.1891 53.8104 62.2671H49.6552C46.2361 61.9663 42.9759 60.688 40.2635 58.5848C40.0158 58.4046 39.768 58.2244 39.5203 58.0442C38.6194 56.828 37.7073 55.6118 36.7839 54.3957C36.1045 53.5102 35.5791 52.5166 35.2299 51.4566C35.1402 51.3894 35.0606 51.3098 34.9934 51.2201C34.9315 51.1366 34.8638 51.0576 34.7907 50.9836C34.7056 50.8992 34.6266 50.8089 34.5542 50.7134C34.4899 50.6285 34.4334 50.5381 34.3853 50.4431C34.2051 49.9476 34.0024 49.4634 33.7772 48.9904C33.3944 48.1347 33.0002 47.2676 32.5948 46.3892V45.8824C32.571 45.8059 32.5596 45.7261 32.561 45.6459C32.5393 45.4779 32.528 45.3086 32.5273 45.1392C32.4147 44.7788 32.3021 44.441 32.1894 44.1257C32.0826 43.8728 31.9923 43.6133 31.9192 43.3487C31.9033 43.1066 31.8808 42.8588 31.8516 42.6055C31.6052 39.391 30.8999 36.2284 29.7571 33.2139C28.2593 29.2944 27.2275 25.2124 26.6828 21.052L26.6153 20.7818C26.587 20.7007 26.5532 20.6217 26.5139 20.5453C26.5372 20.2072 26.5259 19.8676 26.4801 19.5318C26.4343 19.19 26.3666 18.8515 26.2774 18.5183C26.1649 18.1805 26.0522 17.8427 25.9396 17.5048C25.9158 17.4113 25.8818 17.3207 25.8383 17.2346V15.9846C26.0417 15.3273 26.1553 14.6454 26.1761 13.9576C26.1939 13.1696 26.3541 12.3913 26.649 11.6604C26.8743 11.0523 27.122 10.4667 27.3923 9.90369C27.7534 9.42566 28.1608 8.98436 28.6085 8.58616C29.0348 8.37753 29.3051 8.2424 29.4192 8.18077C32.4889 6.5902 35.8942 5.75625 39.3514 5.7484C41.95 5.71923 44.5373 6.09536 47.0201 6.86323C48.9323 7.54112 51.8038 9.23026 55.6347 11.9307C58.5175 13.9576 60.5558 16.0409 61.7494 18.1805C62.272 19.1117 62.6911 20.0973 62.9994 21.1196Z" fill="#FFEB5A"/>
<path d="M20.3993 16.0521C20.4385 15.9663 20.4836 15.8762 20.5344 15.7818C21.9537 13.4087 23.1248 11.8772 24.0478 11.1873C25.0762 10.4327 26.1733 9.77671 27.3248 9.22793C27.3449 9.21243 27.3678 9.20096 27.3923 9.19415C27.8773 8.95335 28.2827 8.75065 28.6085 8.58606C28.1609 8.98426 27.7535 9.42556 27.3923 9.90359C27.1221 10.4667 26.8743 11.0522 26.6491 11.6603C26.3542 12.3912 26.194 13.1695 26.1761 13.9575C26.1554 14.6453 26.0417 15.3272 25.8383 15.9845V17.2345C25.8819 17.3206 25.9159 17.4112 25.9397 17.5047C26.0523 17.8426 26.1649 18.1804 26.2775 18.5182C26.3666 18.8514 26.4343 19.1899 26.4802 19.5317C26.5259 19.8675 26.5373 20.2071 26.514 20.5452C26.5532 20.6216 26.5871 20.7006 26.6153 20.7817L26.6829 21.0519C27.2276 25.2123 28.2594 29.2943 29.7571 33.2138C30.9 36.2283 31.6053 39.3909 31.8517 42.6054C31.8809 42.8587 31.9034 43.1065 31.9192 43.3486C31.9924 43.6132 32.0827 43.8727 32.1895 44.1256C32.3021 44.4409 32.4147 44.7787 32.5273 45.1391C32.5281 45.3085 32.5394 45.4778 32.5611 45.6458C32.5596 45.726 32.571 45.8058 32.5949 45.8823V46.3891C33.0003 47.2674 33.3944 48.1345 33.7773 48.9903C34.0025 49.4633 34.2052 49.9475 34.3854 50.443C34.4335 50.538 34.49 50.6284 34.5543 50.7133C34.6266 50.8088 34.7057 50.8991 34.7908 50.9835C34.8638 51.0575 34.9316 51.1365 34.9935 51.22C35.0606 51.3097 35.1403 51.3893 35.2299 51.4565C35.5792 52.5165 36.1045 53.5101 36.784 54.3956C37.7074 55.6118 38.6195 56.828 39.5204 58.0441C39.7681 58.2243 40.0158 58.4044 40.2636 58.5847C42.9759 60.6879 46.2362 61.9662 49.6552 62.267H53.8105C57.0577 62.189 60.2271 61.2568 62.9994 59.5644C64.531 57.9652 65.8277 56.1567 66.8507 54.1929C67.9603 52.1282 68.8221 49.9397 69.4182 47.6728C69.4407 47.4025 69.452 47.1435 69.452 46.8958C69.4347 46.3778 69.4235 45.8598 69.4182 45.3418C69.9362 50.9981 70.1952 55.176 70.1952 57.8752V58.1793C70.191 58.6364 70.1798 59.0868 70.1614 59.5306V59.5644C70.0265 62.0293 69.6416 64.4742 69.0128 66.8615C68.9048 67.2262 68.781 67.5978 68.6412 67.9763C68.5161 68.3177 68.3809 68.6668 68.2358 69.0236L64.4859 74.8004C63.8107 75.6361 63.0675 76.4919 62.2562 77.3679C59.5979 80.2112 56.2086 82.2682 52.4592 83.3137C48.9813 84.2572 45.3868 84.7008 41.7838 84.6312C35.5227 84.6312 30.3652 81.8385 26.3113 76.2531C21.9871 70.2623 20.2867 62.6724 21.2101 53.4835C21.6873 48.3017 21.2528 43.0765 19.9263 38.0447C18.3949 32.0089 17.629 27.7635 17.629 25.3086C17.6261 25.0589 17.7162 24.0792 17.8993 22.3695C18.0629 20.6844 18.8962 18.5786 20.3993 16.0521Z" fill="#C38822"/>
<path d="M58.7765 6.99832C59.5949 6.43819 60.5555 6.12188 61.5467 6.08618C65.6682 6.08618 69.3167 8.31585 72.4923 12.7752C75.4201 16.8967 76.884 21.1646 76.884 25.5789C76.884 29.9031 76.3097 33.0111 75.1611 34.9029C74.1424 36.4913 72.6717 37.7384 70.9383 38.4839C68.7292 39.505 66.4484 40.3631 64.1141 41.0514C62.0555 41.7524 59.903 42.1396 57.7292 42.2C55.7164 42.0803 53.7283 41.6941 51.8172 41.0514C49.7108 40.4906 47.7283 39.5395 45.9727 38.2474C43.2666 35.9705 41.2243 33.0063 40.0607 29.6666C39.3956 28.007 39.0076 26.2494 38.9122 24.464C38.9122 21.1759 39.3514 18.6759 40.2297 16.9643C41.4008 14.622 43.6642 12.6964 47.02 11.1874C47.1552 11.1424 48.6867 10.782 51.6145 10.1063L56.8508 8.34963C57.5941 7.78658 58.2359 7.33615 58.7765 6.99832ZM56.8171 13.7549C55.3435 14.3323 54.0147 14.8277 52.8307 15.2413C49.5425 16.0296 47.3578 16.8854 46.2768 17.8088C44.9931 18.8899 44.3512 20.6804 44.3512 23.1803C44.3512 27.7072 45.8714 31.1305 48.9119 33.4503C51.5469 35.4773 55.004 36.4907 59.2832 36.4907C60.3104 36.4956 61.337 36.4392 62.3574 36.3218C64.0927 35.9953 65.7826 35.4622 67.3911 34.734C69.758 33.7936 71.0868 32.7464 71.3775 31.5922C71.7214 30.0051 71.8913 28.3852 71.8844 26.7613C71.847 25.9455 71.7794 24.977 71.6815 23.856C71.5013 21.5362 70.2288 18.7886 67.864 15.6129C65.8821 12.9553 63.9903 11.6266 62.1885 11.6266C62.0759 11.6266 60.2854 12.336 56.8171 13.7549H56.8171Z" fill="#091628"/>
<path d="M51.6483 18.0453C51.4138 19.1554 51.3118 20.2894 51.3443 21.4236C51.2381 23.7665 52.1207 26.0464 53.7766 27.7072C55.5317 29.4185 57.2997 30.3757 59.0805 30.5787C60.6487 30.808 62.2419 30.808 63.8101 30.5787C64.7652 30.4667 65.7054 30.2514 66.6141 29.9369C67.5489 29.493 68.452 28.985 69.3167 28.4166C70.6906 27.5157 71.5464 26.9639 71.8844 26.7613C71.8913 28.3852 71.7214 30.0051 71.3775 31.5922C71.0868 32.7464 69.758 33.7937 67.3911 34.734C65.7826 35.4622 64.0927 35.9953 62.3575 36.3218C61.337 36.4392 60.3104 36.4956 59.2832 36.4907C55.004 36.4907 51.5469 35.4773 48.9119 33.4503C45.8714 31.1306 44.3512 27.7072 44.3512 23.1803C44.3512 20.6804 44.9931 18.8899 46.2768 17.8088C47.3579 16.8854 49.5425 16.0296 52.8307 15.2413C52.3308 16.1278 51.9341 17.0686 51.6483 18.0453Z" fill="#4E7A8D"/>
<path d="M51.3443 21.4236C51.3118 20.2895 51.4139 19.1555 51.6484 18.0453C51.9341 17.0686 52.3308 16.1278 52.8308 15.2414C54.0148 14.8278 55.3436 14.3323 56.8171 13.7549C60.2855 12.336 62.076 11.6266 62.1886 11.6266C63.9904 11.6266 65.8822 12.9554 67.8641 15.613C70.2289 18.7885 71.5014 21.5362 71.6816 23.856C71.7795 24.9771 71.847 25.9456 71.8843 26.7613C71.5464 26.964 70.6906 27.5158 69.3168 28.4167C68.452 28.9851 67.549 29.493 66.6142 29.9369C65.7054 30.2515 64.7653 30.4667 63.8102 30.5788C62.242 30.8081 60.6488 30.8081 59.0806 30.5788C57.2998 30.3757 55.5318 29.4186 53.7767 27.7072C52.1207 26.0464 51.2382 23.7665 51.3443 21.4236ZM54.8577 16.4238L54.7902 16.5589V17.0656L54.8577 17.2008C54.8582 17.2478 54.8698 17.2941 54.8915 17.3359L54.9591 17.471C54.9867 17.5011 55.0095 17.5353 55.0266 17.5724C55.0529 17.6226 55.0872 17.6682 55.128 17.7075L55.2631 17.8426C55.3173 17.8797 55.3737 17.9136 55.432 17.944C55.4713 17.9848 55.517 18.019 55.5671 18.0453C55.5842 18.0652 55.6085 18.0774 55.6347 18.0791C56.992 18.1688 58.3552 18.0779 59.6886 17.8088C61.0976 17.5422 62.4548 17.0518 63.7088 16.3562C63.7989 16.3787 63.889 16.4013 63.9791 16.4238C64.0198 16.4631 64.054 16.5087 64.0804 16.5589C64.2155 16.694 64.3507 16.8179 64.4858 16.9305C64.6422 17.042 64.7891 17.1663 64.925 17.3021C65.0213 17.3977 65.1228 17.488 65.229 17.5724C65.2554 17.6225 65.2896 17.6682 65.3304 17.7075L65.3979 17.8426C65.4195 17.8867 65.4552 17.9224 65.4993 17.944C65.6633 18.1153 65.8753 18.233 66.1074 18.2818C66.5545 18.4014 67.0314 18.2725 67.3573 17.944C67.5395 17.7832 67.669 17.5713 67.729 17.3359V17.0656C67.7507 17.0239 67.7622 16.9776 67.7627 16.9305C67.7193 16.5306 67.6049 16.1416 67.4249 15.7819C67.1037 15.2106 66.7183 14.6779 66.2763 14.1941C65.7229 13.5981 65.0856 13.086 64.3845 12.6739C64.3267 12.6715 64.2697 12.6601 64.2155 12.6401C64.1133 12.6388 64.0115 12.6274 63.9115 12.6063C62.0407 12.7193 60.2128 13.2136 58.54 14.059C57.4364 14.622 56.3554 15.2188 55.2969 15.8494C55.1896 15.8905 55.096 15.9607 55.0266 16.0521L54.959 16.1873L54.8915 16.3224C54.8733 16.3535 54.8618 16.388 54.8578 16.4237L54.8577 16.4238Z" fill="#90C3D0"/>
<path d="M54.7902 16.5589L54.8578 16.4238C54.8619 16.388 54.8734 16.3535 54.8916 16.3224L54.9591 16.1873L55.0267 16.0522C55.0961 15.9607 55.1897 15.8905 55.297 15.8495C56.3555 15.2189 57.4365 14.622 58.5401 14.059C60.2128 13.2137 62.0408 12.7193 63.9116 12.6063C64.0116 12.6275 64.1134 12.6388 64.2156 12.6401C64.2698 12.6601 64.3268 12.6715 64.3845 12.6739C65.0856 13.086 65.723 13.5982 66.2764 14.1941C66.7184 14.678 67.1038 15.2107 67.425 15.7819C67.605 16.1417 67.7194 16.5306 67.7628 16.9305C67.7623 16.9776 67.7507 17.0239 67.729 17.0657V17.3359C67.669 17.5713 67.5396 17.7832 67.3574 17.944C67.0314 18.2725 66.5545 18.4014 66.1075 18.2818C65.8754 18.2331 65.6634 18.1153 65.4994 17.944C65.4553 17.9224 65.4196 17.8868 65.398 17.8427L65.3305 17.7075C65.2897 17.6682 65.2554 17.6226 65.2291 17.5724C65.1228 17.488 65.0213 17.3978 64.9251 17.3021C64.7892 17.1664 64.6423 17.0421 64.4859 16.9305C64.3507 16.8179 64.2156 16.694 64.0805 16.5589C64.0541 16.5088 64.0199 16.4631 63.9791 16.4238C63.8891 16.4013 63.799 16.3787 63.7089 16.3562C62.4549 17.0518 61.0977 17.5422 59.6887 17.8089C58.3553 18.078 56.9921 18.1688 55.6348 18.0791C55.6086 18.0775 55.5843 18.0653 55.5672 18.0454C55.517 18.019 55.4714 17.9848 55.4321 17.944C55.3738 17.9136 55.3174 17.8798 55.2632 17.8427L55.1281 17.7075C55.0873 17.6682 55.053 17.6226 55.0267 17.5724C55.0096 17.5353 54.9868 17.5011 54.9592 17.4711L54.8916 17.3359C54.8699 17.2942 54.8583 17.2479 54.8578 17.2008L54.7902 17.0657V16.5589Z" fill="white"/>
<path d="M79.0124 75.3409C81.1888 76.9285 83.76 77.8869 86.4446 78.1111C87.8635 77.7282 89.2712 77.3341 90.6675 76.9287C90.9386 76.7703 91.1789 76.5643 91.3769 76.3206C91.5999 76.0318 91.7818 75.7134 91.9175 75.3747C92.5577 76.1267 93.1023 76.9551 93.539 77.8408C93.6862 78.1073 93.7997 78.391 93.8769 78.6854C94.2723 80.2869 94.0043 81.9802 93.1336 83.3812C91.8274 85.701 89.2711 87.3676 85.4649 88.3811C82.5822 89.1693 80.589 89.4396 79.4854 89.1919C78.5313 88.9652 77.6192 88.5889 76.7827 88.077C76.3922 87.8235 76.0298 87.529 75.7017 87.1987C75.6567 87.1086 73.8324 85.1379 70.2289 81.2867C70.2272 81.2605 70.215 81.2362 70.1951 81.2191C68.8345 80.3093 67.1896 79.9251 65.5668 80.1381C64.0579 80.3633 62.5714 80.5998 61.1075 80.8475C59.2607 81.1403 57.4252 81.4894 55.6009 81.8948C55.6235 81.8722 55.6235 81.8385 55.6009 81.7934C55.5777 81.6255 55.5664 81.4562 55.5671 81.2867V80.78C55.2744 78.3338 55.2744 75.8615 55.5671 73.4153C55.771 71.4076 56.4421 69.4755 57.5265 67.7736C57.8301 67.6088 58.1454 67.4399 58.4724 67.2668C58.5223 67.3415 58.5673 67.4091 58.6076 67.4695L58.6414 67.5033C58.5313 67.9143 58.4187 68.331 58.3035 68.7533V68.8208C58.2994 68.8566 58.2879 68.8911 58.2698 68.9222V69.0573C58.2692 69.1044 58.2577 69.1507 58.236 69.1924V69.26C58.2559 69.2771 58.268 69.3014 58.2698 69.3276V69.3614C58.2703 69.4084 58.2818 69.4547 58.3035 69.4965C58.3052 69.5226 58.3174 69.547 58.3373 69.5641C58.3148 69.9244 58.2922 70.2848 58.2698 70.6451C58.2211 71.1197 58.3029 71.5986 58.5062 72.0302C59.272 72.3229 59.7787 72.0527 60.0265 71.2194C60.3565 70.178 60.8102 69.1799 61.3778 68.2465L61.4453 68.179C62.2946 67.7862 63.1504 67.4371 64.0128 67.1317C65.5894 66.5236 67.1659 65.9831 68.7424 65.5101C69.5983 65.2399 70.4428 65.0147 71.2761 64.8345C71.3488 64.7942 71.4297 64.7711 71.5126 64.7669C72.602 64.4732 73.7299 64.3478 74.8571 64.3953L74.5193 64.598C73.9728 65.0376 73.3844 65.4223 72.7626 65.7466C72.3532 65.914 71.9845 66.1675 71.6815 66.4898C71.0742 67.1419 70.552 67.8684 70.1275 68.6519C70.1234 68.6877 70.1119 68.7222 70.0937 68.7533C70.0736 68.8587 70.0396 68.9609 69.9924 69.0573C69.9698 69.1474 69.9473 69.2487 69.9248 69.3614C69.9243 69.4084 69.9128 69.4547 69.8911 69.4965C69.9092 69.5276 69.9207 69.5621 69.9248 69.5978C69.9474 69.6879 69.9699 69.7667 69.9924 69.8343C70.0149 69.9244 70.0374 70.0032 70.06 70.0708L70.1275 70.3411C70.128 70.3881 70.1396 70.4344 70.1613 70.4762C70.1784 70.5133 70.2012 70.5475 70.2289 70.5775C70.2456 70.6187 70.2858 70.6455 70.3302 70.6451C70.3336 70.6974 70.358 70.7461 70.3978 70.7802C70.3983 70.8273 70.4099 70.8736 70.4316 70.9154C70.4287 70.9523 70.4409 70.9889 70.4654 71.0167C70.6286 71.2444 70.8093 71.459 71.0059 71.6586C71.2067 71.9518 71.4727 72.1946 71.7829 72.368C72.0105 72.5054 72.2063 72.6897 72.3572 72.9086C72.5116 72.95 72.6704 72.9727 72.8302 72.9761C75.0609 73.2157 77.1912 74.0305 79.0124 75.3409Z" fill="#C38822"/>
<path d="M86.4447 78.1112C83.7601 77.887 81.1889 76.9287 79.0124 75.341C77.1913 74.0307 75.061 73.2158 72.8302 72.9762C72.6704 72.9728 72.5116 72.9501 72.3572 72.9087C72.2063 72.6898 72.0105 72.5055 71.7829 72.3681C71.4727 72.1947 71.2067 71.9519 71.0059 71.6587C70.8093 71.4591 70.6286 71.2445 70.4654 71.0168C70.4409 70.989 70.4288 70.9524 70.4316 70.9155C70.4099 70.8737 70.3983 70.8274 70.3978 70.7803C70.358 70.7462 70.3336 70.6975 70.3302 70.6452C70.2858 70.6456 70.2456 70.6188 70.2289 70.5776C70.2012 70.5476 70.1784 70.5134 70.1613 70.4763C70.1396 70.4345 70.128 70.3882 70.1275 70.3412L70.06 70.0709C70.0375 70.0033 70.0149 69.9245 69.9924 69.8344C69.9699 69.7668 69.9473 69.688 69.9249 69.5979C69.9208 69.5622 69.9093 69.5277 69.8911 69.4966C69.9128 69.4548 69.9243 69.4085 69.9249 69.3615C69.9474 69.2489 69.9699 69.1475 69.9924 69.0574C70.0396 68.961 70.0737 68.8588 70.0938 68.7534C70.1119 68.7223 70.1234 68.6878 70.1275 68.652C70.5521 67.8685 71.0742 67.142 71.6816 66.4899C71.9845 66.1676 72.3532 65.9141 72.7626 65.7467C73.3845 65.4224 73.9729 65.0377 74.5193 64.5981L74.8571 64.3954C78.0553 64.6206 81.6362 66.2197 85.6001 69.1925C87.6263 70.7498 89.4935 72.5038 91.1743 74.4289C91.4445 74.7442 91.6923 75.0595 91.9175 75.3748C91.7818 75.7135 91.5999 76.0319 91.377 76.3207C91.179 76.5644 90.9386 76.7704 90.6675 76.9288C89.2712 77.3342 87.8635 77.7283 86.4447 78.1112Z" fill="#FFEB5A"/>
<path d="M77.3908 59.6319C80.5427 60.4203 83.5678 61.6485 86.3771 63.2805C93.3813 67.2669 97.5254 71.6361 98.8091 76.3882C99.7753 79.8014 99.3881 83.4557 97.7281 86.5906C95.7011 90.4194 92.1427 93.0094 87.0527 94.3607C83.742 95.2616 81.2533 95.5882 79.5867 95.3404C78.5936 95.0366 77.6228 94.6641 76.6814 94.2256C75.5542 93.6184 74.5097 92.869 73.5734 91.9959C72.7042 91.2703 71.8806 90.4919 71.1072 89.6649L67.4925 85.7123C64.7448 85.8699 61.7268 86.2077 58.4387 86.7258C57.1999 86.9735 55.9612 87.2437 54.7225 87.5365C54.5846 87.5361 54.4477 87.5132 54.3171 87.469C54.1973 87.4219 54.0727 87.3879 53.9455 87.3676C53.8329 87.3001 53.709 87.2325 53.5739 87.1649C53.4803 87.1168 53.3992 87.0474 53.3374 86.9622C53.2539 86.9003 53.1749 86.8326 53.1009 86.7595C52.8769 86.6035 52.7107 86.3778 52.628 86.1177C52.5686 85.9566 52.501 85.7987 52.4253 85.6447C52.3802 85.4646 52.3352 85.2957 52.2901 85.138V84.8677C52.3153 84.6972 52.3491 84.528 52.3915 84.3609C52.3928 84.2587 52.4041 84.1569 52.4253 84.0569C52.4862 83.8694 52.5654 83.6883 52.6618 83.5164C52.9052 83.0925 53.2699 82.7513 53.7091 82.5367L54.655 82.1313C54.9928 82.0412 55.3081 81.9624 55.6009 81.8948C57.4252 81.4894 59.2607 81.1403 61.1075 80.8475C62.5714 80.5998 64.0579 80.3633 65.5668 80.1381C67.1896 79.9252 68.8345 80.3094 70.1951 81.2191C70.215 81.2362 70.2272 81.2606 70.2289 81.2867C73.8324 85.138 75.6566 87.1086 75.7017 87.1987C76.0298 87.529 76.3922 87.8235 76.7827 88.0771C77.6191 88.589 78.5313 88.9652 79.4854 89.1919C80.5889 89.4396 82.5821 89.1694 85.4649 88.3811C89.2711 87.3676 91.8274 85.701 93.1336 83.3812C94.0043 81.9802 94.2723 80.2869 93.8769 78.6854C93.7997 78.391 93.6862 78.1073 93.539 77.8409C93.1023 76.9551 92.5576 76.1267 91.9174 75.3747C91.6922 75.0594 91.4445 74.7441 91.1742 74.4288C89.4934 72.5037 87.6263 70.7498 85.6001 69.1924C81.6362 66.2196 78.0552 64.6205 74.8571 64.3953C73.7299 64.3479 72.602 64.4732 71.5126 64.7669C71.4297 64.7711 71.3488 64.7942 71.2761 64.8345C70.4428 65.0146 69.5982 65.2399 68.7424 65.5101C67.1659 65.9831 65.5893 66.5236 64.0128 67.1317C63.1504 67.4371 62.2946 67.7862 61.4453 68.179L61.3778 68.2465C60.8102 69.1799 60.3565 70.178 60.0264 71.2194C59.7787 72.0527 59.2719 72.323 58.5062 72.0302C58.3029 71.5986 58.2211 71.1197 58.2697 70.6451C58.2923 70.2848 58.3148 69.9244 58.3373 69.5641C58.3174 69.547 58.3052 69.5226 58.3035 69.4965C58.2818 69.4547 58.2702 69.4084 58.2697 69.3614V69.3276C58.268 69.3014 58.2558 69.2771 58.236 69.26V69.1924C58.2577 69.1507 58.2692 69.1044 58.2697 69.0573V68.9222C58.2879 68.8911 58.2994 68.8566 58.3035 68.8208V68.7533C58.4187 68.331 58.5313 67.9143 58.6413 67.5033L58.6076 67.4695C58.5673 67.4091 58.5223 67.3415 58.4724 67.2668C58.1455 67.4399 57.8301 67.6088 57.5265 67.7736C57.4967 67.788 57.4741 67.7992 57.4589 67.8074C57.2431 67.9337 57.0584 68.1068 56.9184 68.3141C56.5775 68.9034 55.9742 69.293 55.2969 69.3614H55.2631C55.246 69.3415 55.2216 69.3293 55.1955 69.3276L55.1279 69.26L55.0604 69.1924L54.9928 69.1249C54.959 69.0573 54.9252 68.9898 54.8915 68.9222V68.6181C54.9138 68.5283 54.9606 68.4465 55.0266 68.3817C55.1617 68.2015 55.2968 68.01 55.432 67.8074C55.5148 67.6593 55.6171 67.523 55.736 67.402C56.0292 66.951 56.3689 66.5321 56.7495 66.152C57.131 65.7927 57.5501 65.4756 57.9995 65.2061C58.0523 65.1599 58.1086 65.1148 58.1684 65.0709V64.9358C59.6784 63.2234 61.6482 61.9805 63.8439 61.3548C65.8484 60.7467 67.8641 60.1499 69.891 59.5643C71.8279 58.8887 74.3278 58.9112 77.3908 59.6319Z" fill="#432800"/>
</g>
<defs>
<clipPath id="clip0_1_825">
<rect width="99.9972" height="106.078" fill="white" transform="translate(0.00134277 0.203125)"/>
</clipPath>
</defs>
</svg>
