<svg width="33" height="34" viewBox="0 0 33 34" fill="none" xmlns="http://www.w3.org/2000/svg">
<path d="M26.7741 19.8294C27.7157 20.8392 29.2976 20.8945 30.3074 19.9528C31.3172 19.0112 31.3725 17.4292 30.4308 16.4194C29.4892 15.4097 27.9072 15.3544 26.8974 16.2961C25.8877 17.2377 25.8324 18.8197 26.7741 19.8294Z" fill="#D6D5D9"/>
<path d="M5.08919 12.7043C5.65418 13.3102 6.60335 13.3433 7.20922 12.7783C7.81509 12.2134 7.84824 11.2642 7.28325 10.6583C6.71827 10.0524 5.7691 10.0193 5.16322 10.5843C4.55735 11.1493 4.5242 12.0984 5.08919 12.7043Z" fill="#FFFDE9"/>
<path d="M12.6607 28.8883C13.0374 29.2922 13.6701 29.3143 14.074 28.9377C14.478 28.561 14.5001 27.9282 14.1234 27.5243C13.7467 27.1204 13.114 27.0983 12.7101 27.475C12.3061 27.8516 12.284 28.4844 12.6607 28.8883Z" fill="#FFFDE9"/>
</svg>
