<svg width="40" height="63" viewBox="0 0 40 63" fill="none" xmlns="http://www.w3.org/2000/svg">
<g clip-path="url(#clip0_1_873)">
<path d="M11 12.2031C14.3137 12.2031 17 9.51683 17 6.20312C17 2.88942 14.3137 0.203125 11 0.203125C7.68629 0.203125 5 2.88942 5 6.20312C5 9.51683 7.68629 12.2031 11 12.2031Z" fill="#FFFDE9"/>
<path d="M36 35.2031C38.2091 35.2031 40 33.4123 40 31.2031C40 28.994 38.2091 27.2031 36 27.2031C33.7909 27.2031 32 28.994 32 31.2031C32 33.4123 33.7909 35.2031 36 35.2031Z" fill="#D6D5D9"/>
<path d="M2.5 54.2031C3.88071 54.2031 5 53.0838 5 51.7031C5 50.3224 3.88071 49.2031 2.5 49.2031C1.11929 49.2031 0 50.3224 0 51.7031C0 53.0838 1.11929 54.2031 2.5 54.2031Z" fill="#FFFDE9"/>
<path d="M31 62.2031C31.5523 62.2031 32 61.7554 32 61.2031C32 60.6508 31.5523 60.2031 31 60.2031C30.4477 60.2031 30 60.6508 30 61.2031C30 61.7554 30.4477 62.2031 31 62.2031Z" fill="#FFFDE9"/>
</g>
<defs>
<clipPath id="clip0_1_873">
<rect width="40" height="62" fill="white" transform="translate(0 0.203125)"/>
</clipPath>
</defs>
</svg>
