<svg width="100" height="147" viewBox="0 0 100 147" fill="none" xmlns="http://www.w3.org/2000/svg">
<g clip-path="url(#clip0_1_848)">
<path d="M33.3979 136.364C33.3404 136.276 33.2746 136.193 33.2012 136.118L33.2995 136.315C33.3184 136.316 33.3368 136.321 33.3537 136.329C33.3705 136.338 33.3856 136.35 33.3979 136.364Z" fill="black"/>
<path d="M84.5885 8.70691C81.4568 6.21782 77.1131 4.30001 71.5573 2.9535C67.047 1.79228 62.4633 0.937965 57.8376 0.396425C52.8339 0.0847705 47.8119 0.249426 42.8394 0.88817C37.8695 1.30975 32.9482 2.18209 28.1362 3.49442C24.4005 4.6909 20.793 6.25579 17.367 8.16599C13.6535 10.2089 11.2604 11.5858 10.1875 12.2966C6.69233 14.931 4.33528 18.8008 3.59811 23.115C3.13915 24.9181 2.90967 28.3603 2.90967 33.4416C2.90967 38.523 3.74564 41.8177 5.41757 43.3257C7.41733 45.096 11.8758 45.9811 18.793 45.9811L41.4133 45.0468C55.4116 44.2928 62.9189 43.9158 63.9352 43.9158C67.0795 43.9382 70.2183 44.1847 73.3275 44.6534C76.737 45.1452 78.7203 45.391 79.2776 45.391C82.2784 45.4185 85.2469 44.7697 87.9626 43.4928C90.6783 42.2158 93.0714 40.3435 94.9643 38.0149C98.3082 34.1793 99.9801 30.8518 99.9801 28.0324C99.9834 25.8684 98.1967 22.7376 94.6201 18.6401C91.5746 15.0407 88.2178 11.7167 84.5885 8.70687M82.1789 16.3289C84.258 18.3792 86.1812 20.5818 87.9324 22.9183C90.2268 25.8698 91.3742 27.7056 91.3746 28.4258C91.3755 29.0122 91.223 29.5887 90.932 30.0978C90.5074 30.8043 90.0308 31.4783 89.5059 32.1139C88.661 33.0487 87.7029 33.8746 86.6538 34.5726C86.5882 34.6054 85.9817 35.1627 84.8344 36.2446C84.3863 36.7645 83.7829 37.1266 83.1133 37.2772C72.0982 36.6871 66.2628 36.3921 65.6071 36.3921C63.8041 36.3921 45.7243 36.7691 11.3677 37.5231C11.3676 36.933 11.2857 35.6545 11.1218 33.6875C10.9251 31.6877 10.8268 30.5567 10.8268 30.2945C10.8268 23.2461 14.4001 17.9844 21.5468 14.5094C26.7593 11.9851 36.168 10.0345 49.773 8.65769C56.7526 7.91267 63.8109 8.66712 70.4754 10.8705C76.7754 13.0694 80.6765 14.8889 82.1789 16.329L82.1789 16.3289Z" fill="#230110"/>
<path d="M87.9325 22.9184C86.1813 20.5819 84.2581 18.3793 82.1791 16.329C80.6768 14.889 76.7756 13.0696 70.4756 10.8706C63.8111 8.66723 56.7528 7.91278 49.7731 8.6578C36.1682 10.0346 26.7594 11.9852 21.5469 14.5095C14.4002 17.9846 10.8269 23.2462 10.8269 30.2946C10.8269 30.5568 10.9253 31.6879 11.122 33.6876C11.2858 35.6546 11.3678 36.9331 11.3678 37.5232C45.7245 36.7692 63.8043 36.3922 65.6073 36.3922C66.2629 36.3922 72.0983 36.6873 83.1134 37.2773C83.783 37.1267 84.3864 36.7646 84.8345 36.2447C85.9819 35.1628 86.5883 34.6055 86.654 34.5728C87.703 33.8747 88.6611 33.0488 89.5061 32.114C90.0309 31.4784 90.5076 30.8045 90.9321 30.0979C91.2231 29.5888 91.3757 29.0123 91.3747 28.4259C91.3744 27.7057 90.227 25.8699 87.9325 22.9184Z" fill="#A8044C"/>
<path d="M88.1039 95.5635C87.3149 95.59 86.5421 95.6146 85.7855 95.6372C85.7931 95.7024 85.7807 95.7368 85.7481 95.7407C85.4915 95.8038 85.2185 95.8688 84.9293 95.9357C84.7653 95.9551 84.6037 95.9906 84.4467 96.0418C84.1689 96.2064 83.9074 96.3691 83.6622 96.5299C83.2331 96.8112 82.8059 97.1089 82.3806 97.4228C82.1616 97.5837 81.93 97.7268 81.6881 97.8506C79.5299 98.0679 77.4392 98.7252 75.545 99.7818C73.6507 100.838 71.993 102.272 70.6742 103.994C69.9651 104.911 69.0221 105.62 67.9443 106.047C63.0469 107.839 58.8016 111.062 55.76 115.299C57.4708 113.844 59.3801 114.362 61.4877 116.855L61.5278 117.197C61.5393 117.313 61.5693 117.426 61.6168 117.533L61.7603 117.912C61.7593 118.163 61.739 118.414 61.6996 118.662L61.6478 119.064C61.6206 119.186 61.585 119.306 61.5413 119.423L61.4895 119.825C61.4018 119.937 61.3329 120.062 61.2854 120.196C61.1766 120.332 61.0777 120.476 60.9893 120.627C60.8962 120.746 60.8117 120.872 60.7363 121.003C60.7343 121.267 60.7304 121.515 60.7245 121.747C60.7402 121.863 60.7372 121.98 60.7157 122.095C60.6673 122.227 60.6336 122.363 60.615 122.503C60.5977 122.634 60.5967 122.767 60.612 122.899C60.6731 124.847 60.3452 126.787 59.6474 128.607C59.0955 130.09 58.6617 131.614 58.35 133.165L58.5218 134.631C58.5642 134.991 58.6391 135.347 58.7454 135.694C58.843 135.951 58.9551 136.202 59.0812 136.447C59.8078 137.113 60.6994 137.572 61.6634 137.778C62.2762 137.937 62.889 138.096 63.5018 138.255C65.2275 138.053 66.9369 137.852 68.63 137.654C69.6056 137.242 70.6066 136.893 71.6267 136.609C72.5488 136.303 73.4483 135.933 74.319 135.502C75.8896 133.886 77.3248 132.145 78.6101 130.295C80.0531 128.223 81.2206 125.973 82.083 123.6C82.3401 122.414 82.6154 121.243 82.9089 120.087C83.818 116.58 84.7291 113.09 85.6421 109.616C86.1159 107.745 86.5389 105.864 86.9112 103.972C87.4123 101.206 87.8099 98.4036 88.1039 95.5635Z" fill="#A8044C"/>
<path d="M93.147 84.5252C92.8533 84.5596 92.5579 84.5777 92.2622 84.5795L92.2507 84.4818C91.4058 84.6193 90.6274 85.0249 90.0307 85.6388C89.434 86.2526 89.0506 87.0421 88.9371 87.8906C88.6876 89.1411 88.4706 90.3878 88.2863 91.6307L88.3321 92.0214L88.3722 92.3633C88.2991 93.4281 88.2096 94.4949 88.1038 95.5635C87.8097 98.4037 87.4121 101.206 86.9112 103.972C86.5389 105.864 86.1159 107.745 85.6421 109.616C84.7291 113.09 83.8181 116.58 82.9089 120.087C82.6154 121.243 82.3401 122.414 82.083 123.6C81.2206 125.973 80.0531 128.223 78.6101 130.295C77.3248 132.145 75.8896 133.887 74.3189 135.502C73.4483 135.933 72.5488 136.303 71.6267 136.609C70.6066 136.893 69.6056 137.242 68.63 137.654C66.9368 137.853 65.2275 138.053 63.5018 138.255C62.8889 138.096 62.2761 137.937 61.6634 137.778C60.6993 137.572 59.8078 137.113 59.0812 136.447C58.9551 136.202 58.843 135.951 58.7454 135.694C58.6391 135.347 58.5642 134.991 58.5218 134.631L58.35 133.166C58.6617 131.614 59.0955 130.09 59.6474 128.607C60.3452 126.787 60.6731 124.847 60.612 122.899C60.5967 122.767 60.5977 122.634 60.615 122.503C60.6336 122.363 60.6673 122.227 60.7157 122.095C60.7372 121.98 60.7402 121.863 60.7245 121.747C60.7304 121.515 60.7343 121.267 60.7363 121.003C60.8117 120.872 60.8962 120.746 60.9893 120.627C61.0776 120.476 61.1766 120.332 61.2854 120.196C61.3329 120.062 61.4018 119.937 61.4895 119.826L61.5412 119.423C61.585 119.306 61.6205 119.186 61.6477 119.064L61.6995 118.662C61.7389 118.414 61.7592 118.163 61.7602 117.912L61.6167 117.533C61.5692 117.426 61.5392 117.313 61.5277 117.197L61.4877 116.855C59.38 114.362 57.4708 113.844 55.7599 115.299C54.9838 116.026 54.3468 116.89 53.8801 117.846C52.9932 119.565 52.6025 121.496 52.7518 123.424C52.4691 124.032 52.2614 124.671 52.1334 125.329C51.8763 126.514 51.5847 127.687 51.2587 128.848C51.189 129.082 51.1342 129.319 51.0947 129.56C50.5732 131.239 50.3969 133.006 50.5764 134.755C50.7559 136.504 51.2876 138.198 52.1393 139.736C52.9304 141.252 54.023 142.591 55.3499 143.67C56.6769 144.749 58.2103 145.545 59.8561 146.01C72.5783 147.258 81.8009 142.447 87.5239 131.577C88.1773 130.329 88.638 128.99 88.89 127.604C90.9055 120.865 92.6395 113.978 94.092 106.942C95.1607 101.702 95.9282 96.4046 96.3907 91.0765L96.3449 90.6858L96.3048 90.3439L96.3567 89.9417C96.3838 89.8197 96.4194 89.6997 96.4631 89.5827C96.4977 89.3145 96.5342 89.0627 96.5726 88.8272C96.6056 88.5785 96.6258 88.3282 96.6332 88.0774L96.4897 87.6981L96.4496 87.3563L96.4038 86.9655C96.2635 86.5915 96.0552 86.2466 95.7894 85.9483C95.1129 85.166 94.1725 84.6596 93.147 84.5252Z" fill="#230110"/>
<path d="M11.7849 89.9633C11.8355 90.3337 11.8839 90.7203 11.9303 91.1231L11.8792 91.5131L11.8344 91.8544C12.0068 95.0204 12.3377 98.1757 12.8257 101.309C13.2082 103.938 13.7086 106.549 14.3271 109.143C15.1922 112.629 16.0552 116.132 16.9162 119.65C17.1937 120.811 17.4529 121.985 17.6936 123.174C18.5234 125.559 19.6598 127.825 21.0742 129.917C22.3339 131.784 23.7451 133.545 25.2934 135.182C26.158 135.625 27.0524 136.008 27.9702 136.327C28.9863 136.625 29.9824 136.987 30.9523 137.412C32.6426 137.634 34.349 137.858 36.0717 138.084C36.6866 137.933 37.3015 137.782 37.9165 137.632C38.8833 137.44 39.781 136.992 40.5167 136.336C40.6462 136.094 40.7618 135.844 40.8629 135.588C40.974 135.243 41.0538 134.888 41.1012 134.528L41.2931 133.066C41.0027 131.51 40.5899 129.98 40.0584 128.489C39.3857 126.66 39.0845 124.716 39.1724 122.769C39.1895 122.637 39.1903 122.504 39.1748 122.372C39.183 122.304 39.175 122.235 39.1516 122.171L39.0797 121.963C39.0598 121.848 39.0585 121.731 39.0758 121.615C39.0731 121.384 39.0726 121.136 39.0742 120.871C39.0007 120.739 38.9179 120.612 38.8265 120.492C38.7401 120.34 38.6432 120.195 38.5363 120.057C38.4906 119.922 38.4234 119.796 38.3373 119.684L38.291 119.281C38.2488 119.163 38.2149 119.043 38.1895 118.92L38.1431 118.517C38.1071 118.269 38.0903 118.018 38.0929 117.767L38.2415 117.39C38.2904 117.284 38.322 117.171 38.3351 117.055L38.3798 116.713C40.5215 114.25 42.4378 113.758 44.1285 115.236C44.077 115.171 44.0363 115.099 44.0078 115.022C43.636 114.309 43.1926 113.636 42.6843 113.013C42.0263 112.232 41.3315 111.48 40.5999 110.756C37.9342 107.132 35.4502 103.384 33.148 99.5115C31.5381 96.7141 29.3314 94.3061 26.6849 92.4587C24.0384 90.6113 21.0173 89.37 17.8365 88.8231C17.5372 88.8173 17.2378 88.8277 16.9396 88.8542C15.1712 88.9313 13.4285 89.3062 11.7849 89.9633Z" fill="#A8044C"/>
<path d="M8.06452 83.9204L8.05174 84.0179C7.75606 84.0122 7.46092 83.99 7.16769 83.9515C6.14045 84.0718 5.1932 84.5653 4.50595 85.3382C4.23614 85.6328 4.02313 85.9747 3.87765 86.3468L3.82651 86.7369L3.78173 87.0781L3.63306 87.4554C3.63696 87.7063 3.65374 87.9568 3.68333 88.206C3.71854 88.442 3.75156 88.6943 3.78241 88.9629C3.82452 89.0806 3.85844 89.201 3.88392 89.3234L3.93023 89.7262L3.88545 90.0675L3.83431 90.4576C4.22359 95.7915 4.91818 101.099 5.91467 106.353C7.27036 113.408 8.90955 120.319 10.8322 127.085C11.0652 128.474 11.5074 129.819 12.1436 131.076C17.7166 142.024 26.8723 146.961 39.6105 145.889C41.2625 145.446 42.8066 144.671 44.1483 143.61C45.49 142.55 46.6008 141.226 47.4127 139.721C48.2855 138.195 48.8404 136.508 49.0439 134.762C49.2475 133.016 49.0955 131.246 48.5971 129.56C48.5608 129.319 48.5093 129.08 48.4429 128.846C48.1328 127.681 47.8574 126.504 47.6167 125.315C47.4977 124.656 47.2988 124.014 47.0245 123.402C47.2003 121.476 46.8362 119.54 45.9729 117.809C45.5395 116.835 44.9118 115.959 44.1284 115.236C42.4377 113.758 40.5215 114.25 38.3797 116.713L38.335 117.055C38.3219 117.171 38.2903 117.284 38.2414 117.39L38.0928 117.767C38.0902 118.018 38.107 118.269 38.143 118.517L38.1894 118.92C38.2148 119.043 38.2487 119.163 38.2909 119.281L38.3372 119.684C38.4233 119.796 38.4905 119.922 38.5362 120.057C38.6431 120.195 38.74 120.34 38.8264 120.492C38.9178 120.612 39.0006 120.739 39.0741 120.871C39.0725 121.136 39.073 121.384 39.0757 121.615C39.0584 121.731 39.0597 121.848 39.0796 121.963L39.1515 122.171C39.1749 122.235 39.1829 122.304 39.1747 122.372C39.1902 122.504 39.1894 122.637 39.1723 122.769C39.0844 124.716 39.3856 126.66 40.0583 128.489C40.5898 129.98 41.0026 131.51 41.293 133.066L41.1011 134.528C41.0537 134.888 40.9739 135.243 40.8628 135.588C40.7617 135.844 40.6461 136.094 40.5166 136.336C39.7809 136.992 38.8831 137.439 37.9163 137.632C37.3014 137.782 36.6865 137.933 36.0715 138.084C34.3489 137.858 32.6424 137.634 30.9521 137.412C29.9822 136.987 28.9862 136.625 27.97 136.327C27.0523 136.008 26.1579 135.625 25.2932 135.182C23.7449 133.545 22.3338 131.784 21.0741 129.917C19.6596 127.825 18.5232 125.559 17.6935 123.174C17.4527 121.985 17.1935 120.811 16.916 119.65C16.0551 116.132 15.1921 112.629 14.3269 109.143C13.7084 106.549 13.208 103.938 12.8256 101.309C12.3375 98.1757 12.0066 95.0203 11.8342 91.8544L11.879 91.5131L11.9301 91.123C11.8838 90.7202 11.8353 90.3336 11.7848 89.9633C11.6356 89.084 11.4843 88.221 11.3309 87.3743C11.229 86.5244 10.8565 85.7297 10.2683 85.1078C9.68011 84.4858 8.90747 84.0695 8.06452 83.9204Z" fill="#230110"/>
<path d="M39.594 9.9854C38.1494 10.2763 36.6875 10.4734 35.2175 10.5755C33.0605 10.6715 30.9772 11.3887 29.2182 12.6408C29.0468 12.7445 28.8825 12.8595 28.7264 12.985C28.1363 13.1817 27.5299 13.3948 26.907 13.6243C25.1695 14.2472 23.4484 14.8865 21.7437 15.5421C20.9784 15.8202 20.3231 16.3375 19.875 17.0174C19.7697 17.1565 19.6547 17.2879 19.5308 17.4108C19.4962 17.5469 19.4467 17.6788 19.3833 17.8041C19.3505 17.9025 19.3177 18.0173 19.2849 18.1484C19.2522 18.2795 19.2194 18.4106 19.1866 18.5418C19.1519 18.6531 19.1353 18.7694 19.1374 18.886L19.0391 19.2794C19.0718 19.3778 19.1046 19.4925 19.1374 19.6236V20.3612C19.3514 21.2896 19.915 22.0998 20.711 22.6232C21.0114 22.8433 21.3595 22.9891 21.727 23.049C22.0944 23.1088 22.4709 23.0809 22.8255 22.9675C26.7922 21.7217 30.7918 20.6071 34.8241 19.6236C44.9712 17.0499 55.6555 17.5636 65.509 21.0988C70.206 22.7703 75.0224 24.0854 79.9171 25.0328C80.0748 24.9707 80.2236 24.888 80.3596 24.7869C80.5516 24.6916 80.7329 24.5762 80.9006 24.4427C81.0552 24.3198 81.203 24.1885 81.3431 24.0493C81.4495 23.9417 81.5481 23.8266 81.6382 23.7051C81.8021 23.3117 81.9496 22.9183 82.0808 22.5249C82.4458 21.4053 82.3575 20.1872 81.8349 19.1319C79.704 14.739 75.9504 12.0836 70.5739 11.1656C61.1115 9.52712 51.4921 8.98262 41.9052 9.54283C41.2167 9.67397 40.4463 9.82149 39.594 9.9854Z" fill="#FF1010"/>
<path d="M47.2162 30.5404C37.6763 30.4092 30.4805 31.9664 25.6286 35.2119C20.7439 38.4246 17.4164 41.7521 15.6462 45.1943C14.8921 46.8335 14.1873 48.489 13.5317 50.161C12.6421 52.3062 11.9508 54.5283 11.4663 56.7995C11.4664 56.865 11.4664 56.9307 11.4663 56.9962C11.4664 57.0618 11.4664 57.1274 11.4663 57.1929C11.368 57.5536 11.2696 57.9306 11.1713 58.3239C11.0074 58.914 10.8599 59.5205 10.7287 60.1434C10.6997 60.2658 10.6498 60.3822 10.5812 60.4876V60.881C10.5141 61.0534 10.4807 61.237 10.4828 61.4219C10.4501 61.6173 10.4501 61.8167 10.4828 62.012C10.4652 62.0321 10.4518 62.0555 10.4434 62.0808C10.4349 62.1062 10.4316 62.1329 10.4337 62.1595L10.3353 62.3562V62.7496C10.3294 62.8017 10.3126 62.8519 10.2861 62.8972C10.2854 62.9657 10.2686 63.0331 10.237 63.0939C10.2054 63.1547 10.1885 63.222 10.1878 63.2906L10.0894 63.4873V63.8315C9.54083 67.1467 9.2776 70.5029 9.30266 73.8631C9.30266 77.2725 9.46657 80.895 9.7944 84.7306C9.79479 85.4563 9.86062 86.1805 9.9911 86.8943C10.0213 87.0067 10.0378 87.1222 10.0403 87.2385C10.3681 88.8449 10.7288 90.4513 11.1221 92.0576L11.1713 92.1068C11.8269 93.6477 12.4334 95.2212 12.9907 96.8276C13.5197 98.4119 14.1606 99.9566 14.9086 101.45C15.2071 101.783 15.4708 102.145 15.6953 102.532C15.9916 103.059 16.2228 103.621 16.3838 104.204C16.5149 104.335 16.6297 104.45 16.728 104.548C16.7958 104.617 16.8463 104.701 16.8755 104.794C16.9481 104.904 17.0138 105.019 17.0722 105.138C18.469 107.033 19.9626 108.855 21.5471 110.596C22.4964 111.664 23.5327 112.651 24.6451 113.547C25.3991 114.137 25.8089 114.399 25.8745 114.334C28.5531 116.131 31.465 117.554 34.5292 118.563C31.9616 116.457 29.5308 114.191 27.2513 111.777C28.1503 112.432 29.1046 113.008 30.1035 113.498C32.2016 114.481 33.7916 115.219 34.8734 115.711C34.8922 115.712 34.9106 115.717 34.9275 115.725C34.9444 115.734 34.9595 115.745 34.9717 115.76C35.6825 115.855 36.3676 116.089 36.9879 116.448C37.5452 116.743 38.1026 117.006 38.6598 117.235C39.0532 117.366 39.4138 117.481 39.7417 117.579C40.2006 117.71 40.6596 117.858 41.1185 118.022C41.2189 118.022 41.3185 118.039 41.4136 118.071C44.0054 118.629 46.6354 118.99 49.2815 119.153H49.9208C54.4222 118.96 58.8899 118.284 63.2471 117.137L65.4599 116.448C68.1809 115.006 70.4429 113.793 72.246 112.809C71.787 113.399 71.3117 113.989 70.8199 114.58C70.023 115.58 69.187 116.547 68.312 117.481C70.8084 116.128 73.1081 114.441 75.1473 112.465C75.4854 112.128 75.8469 111.816 76.2291 111.531C78.961 108.416 81.3057 104.981 83.2119 101.302C85.9985 94.4835 87.6704 89.8283 88.2277 87.3369C88.3916 86.714 88.9817 82.6161 89.998 75.0433C90.0963 72.6829 90.1619 70.3225 90.1947 67.9621C90.228 65.6799 90.1295 63.3977 89.8996 61.1269C89.1456 57.3568 88.7194 55.2423 88.6211 54.7834C88.2932 53.8655 87.5392 51.7018 86.3591 48.2923C86.3038 48.2213 86.2697 48.1361 86.2607 48.0465C85.4678 46.5967 84.5807 45.2005 83.6053 43.8666C83.343 43.5716 82.1629 42.3094 80.0647 40.0802C79.0156 39.1295 77.8682 38.1788 76.6225 37.2281C74.4497 35.3971 72.0127 33.905 69.3939 32.8024C67.6418 32.1797 65.8514 31.6705 64.0339 31.278C62.3292 30.9174 56.7233 30.6715 47.2162 30.5404ZM41.4136 50.8002C41.1842 50.7347 40.9383 50.6691 40.676 50.6035C38.3811 50.6035 36.0863 50.6691 33.7916 50.8002C31.3861 50.9661 29 51.3446 26.6613 51.9313C26.2023 52.3247 25.7761 52.718 25.3827 53.1114C23.8891 54.698 22.6005 56.4657 21.5471 58.3731C21.1746 59.1887 20.5272 59.8474 19.7182 60.234C18.9092 60.6205 17.99 60.7103 17.1214 60.4876C16.4128 60.3969 15.7478 60.0952 15.2128 59.6217C14.6779 59.1481 14.2977 58.5246 14.1218 57.8322C14.1217 57.7338 14.1217 57.6191 14.1218 57.488C14.1215 57.3553 14.105 57.2232 14.0726 57.0946C14.0665 56.9738 14.0328 56.8561 13.9742 56.7504C14.0374 56.6288 14.0711 56.494 14.0726 56.357C14.1054 56.2586 14.1382 56.1439 14.1709 56.0127C14.1711 55.8801 14.1877 55.748 14.2201 55.6193V55.2751C15.5238 53.1553 16.9353 51.1036 18.4491 49.1283C21.9242 44.6371 26.6777 42.457 32.7097 42.5881C35.9224 42.6537 39.1516 42.7356 42.3971 42.834C42.6505 42.8322 42.9015 42.8824 43.1347 42.9815H55.1825C55.2666 42.9545 55.3488 42.9216 55.4283 42.8831C55.8873 42.7848 56.3463 42.6865 56.8052 42.5881C57.1658 42.5225 57.5264 42.4405 57.8871 42.3422L58.3788 42.2439C58.6745 42.2438 58.97 42.2274 59.2639 42.1947V42.0964C64.7071 41.2151 70.2896 42.0396 75.2457 44.4567C78.609 46.0133 81.2732 48.7652 82.7202 52.1771C82.7201 52.3083 82.7201 52.4394 82.7202 52.5705C82.718 52.6872 82.7346 52.8034 82.7693 52.9147C82.8018 53.0434 82.8183 53.1755 82.8185 53.3081C82.8487 53.4205 82.8652 53.5361 82.8677 53.6524C82.8675 53.785 82.851 53.9171 82.8185 54.0458C82.8207 54.1624 82.8041 54.2786 82.7693 54.39C82.7368 54.5186 82.7203 54.6507 82.7202 54.7834C82.7201 54.9145 82.7201 55.0292 82.7202 55.1276C82.6874 55.2587 82.6546 55.3899 82.6218 55.521C82.5928 55.6434 82.5429 55.7598 82.4743 55.8652C82.4088 55.9963 82.3432 56.1275 82.2776 56.2586C82.2205 56.3698 82.1712 56.4848 82.1301 56.6028L81.7367 56.9962C81.6389 57.1268 81.523 57.2427 81.3925 57.3404L80.9007 57.7338C80.7625 57.8039 80.6308 57.8862 80.5073 57.9797C80.4277 58.0182 80.3456 58.051 80.2615 58.0781C80.1024 58.1422 79.9378 58.1915 79.7697 58.2256C77.593 58.9548 75.2208 58.8318 73.1311 57.8814C72.7073 57.7022 72.331 57.4267 72.0323 57.0767C71.7335 56.7267 71.5205 56.3119 71.41 55.8652C71.41 55.7669 71.41 55.6521 71.41 55.521C71.41 55.3899 71.41 55.2587 71.41 55.1276C71.3773 55.0292 71.3445 54.9145 71.3117 54.7834C71.3445 54.6522 71.3773 54.5211 71.41 54.39C71.478 54.1483 71.5274 53.9017 71.5576 53.6524C71.5987 53.5343 71.648 53.4193 71.7051 53.3081C71.8331 53.0511 71.9811 52.8044 72.1477 52.5705C72.211 52.4452 72.2605 52.3133 72.2952 52.1771C70.2329 50.9596 67.9461 50.171 65.5717 49.8583C63.1973 49.5457 60.7843 49.7155 58.4771 50.3577C52.8838 51.7042 47.0692 51.855 41.4136 50.8002H41.4136Z" fill="#FF1010"/>
<path d="M40.6758 50.6036C40.9381 50.6692 41.184 50.7348 41.4134 50.8003C47.0691 51.8551 52.8836 51.7042 58.477 50.3577C60.7841 49.7156 63.1972 49.5457 65.5715 49.8584C67.9459 50.171 70.2327 50.9597 72.295 52.1772C72.2604 52.3133 72.2109 52.4452 72.1475 52.5706C71.9809 52.8045 71.8329 53.0511 71.7049 53.3082C71.6478 53.4194 71.5985 53.5344 71.5574 53.6524C71.5272 53.9017 71.4779 54.1483 71.4099 54.39C71.3771 54.5212 71.3443 54.6523 71.3115 54.7834C71.3444 54.9145 71.3771 55.0293 71.4099 55.1276C71.4098 55.2588 71.4098 55.3899 71.4099 55.521C71.4098 55.6522 71.4098 55.7669 71.4099 55.8653C71.5203 56.312 71.7333 56.7268 72.0321 57.0768C72.3309 57.4268 72.7071 57.7023 73.131 57.8814C75.2206 58.8319 77.5928 58.9549 79.7695 58.2256C79.9376 58.1916 80.1022 58.1422 80.2613 58.0781C80.3454 58.0511 80.4276 58.0182 80.5071 57.9798C80.6307 57.8862 80.7623 57.8039 80.9006 57.7339L81.3923 57.3405C81.5229 57.2427 81.6388 57.1268 81.7365 56.9963L82.1299 56.6029C82.1711 56.4849 82.2204 56.3698 82.2774 56.2586C82.3429 56.1275 82.4085 55.9964 82.4741 55.8653C82.5427 55.7599 82.5927 55.6434 82.6217 55.521C82.6545 55.3899 82.6873 55.2588 82.72 55.1276C82.7199 55.0293 82.7199 54.9145 82.72 54.7834C82.7202 54.6508 82.7367 54.5186 82.7692 54.39C82.8039 54.2787 82.8205 54.1624 82.8184 54.0458C82.8508 53.9172 82.8673 53.7851 82.8675 53.6524C82.865 53.5361 82.8485 53.4205 82.8184 53.3082C82.8182 53.1755 82.8016 53.0434 82.7692 52.9148C82.7344 52.8034 82.7178 52.6872 82.72 52.5706C82.7199 52.4394 82.7199 52.3083 82.72 52.1772C81.2731 48.7652 78.6088 46.0133 75.2455 44.4568C70.2895 42.0396 64.7069 41.2151 59.2638 42.0964V42.1947C58.9699 42.2275 58.6744 42.2439 58.3786 42.2439L57.8869 42.3423C57.5263 42.4406 57.1657 42.5226 56.805 42.5881C56.3461 42.6865 55.8872 42.7848 55.4282 42.8832C55.3486 42.9216 55.2664 42.9545 55.1823 42.9815H43.1345C42.9013 42.8824 42.6503 42.8322 42.3969 42.834C39.1514 42.7357 35.9223 42.6537 32.7095 42.5881C26.6775 42.457 21.9239 44.6371 18.4489 49.1283C16.9352 51.1037 15.5236 53.1553 14.2199 55.2752V55.6194C14.1875 55.748 14.171 55.8801 14.1708 56.0128C14.138 56.1439 14.1052 56.2587 14.0724 56.357C14.071 56.494 14.0373 56.6288 13.9741 56.7504C14.0327 56.8561 14.0663 56.9739 14.0724 57.0946C14.1049 57.2232 14.1214 57.3554 14.1216 57.488C14.1215 57.6191 14.1215 57.7339 14.1216 57.8322C14.2976 58.5247 14.6777 59.1481 15.2127 59.6217C15.7476 60.0952 16.4126 60.397 17.1212 60.4877C17.9898 60.7103 18.909 60.6205 19.718 60.234C20.5271 59.8475 21.1745 59.1888 21.5469 58.3732C22.6003 56.4657 23.8889 54.698 25.3825 53.1115C25.7759 52.7181 26.2021 52.3247 26.6611 51.9313C28.9998 51.3446 31.3859 50.9662 33.7914 50.8003C36.0862 50.6692 38.381 50.6036 40.6758 50.6036ZM61.0832 20.7547C56.9182 19.7299 52.6348 19.2669 48.347 19.3778C44.009 19.5319 39.7665 20.6936 35.9551 22.7708C31.8572 24.9345 29.7919 26.0327 29.7591 26.0655C21.1699 32.2943 15.564 38.228 12.9414 43.8667C9.95815 50.3249 7.99117 60.2418 7.04047 73.6172L7.13881 73.1255V73.2239C7.10719 73.2846 7.09035 73.352 7.08964 73.4205C6.95395 75.434 6.93753 77.4537 7.04047 79.469C7.0424 79.6178 7.05887 79.766 7.08964 79.9116V80.305C7.09092 80.519 7.10735 80.7326 7.13881 80.9442V80.9934C7.17164 81.813 7.23721 82.649 7.33551 83.5013C7.49943 85.3044 7.7453 87.0911 8.07313 88.8613C8.56488 91.6479 10.1385 96.9587 12.7939 104.794C13.2528 106.203 13.7281 107.515 14.2199 108.728C14.2514 108.664 14.3033 108.612 14.3675 108.58L14.4658 108.482L14.6133 108.334L14.81 108.138C14.8942 108.111 14.9763 108.078 15.0559 108.039H15.2526V107.99C15.4165 108.023 15.564 108.056 15.6952 108.089C15.7865 108.151 15.8857 108.2 15.9902 108.236C16.0496 108.293 16.0994 108.36 16.1377 108.433C16.1627 108.487 16.1958 108.537 16.2361 108.58C16.3274 108.518 16.4267 108.469 16.5311 108.433H16.5803C16.7115 108.433 16.8262 108.433 16.9245 108.433V108.384C17.1469 108.414 17.3628 108.481 17.5638 108.58C17.7728 108.652 17.9712 108.751 18.1539 108.875C18.7112 110.351 19.2849 111.842 19.875 113.35C20.0431 113.384 20.2077 113.434 20.3668 113.498C20.5939 113.562 20.8096 113.662 21.006 113.793L21.4486 114.924C21.5797 115.284 21.7272 115.645 21.8912 116.006C22.219 116.792 22.5632 117.563 22.9238 118.317C23.0227 118.439 23.1211 118.553 23.2189 118.661C27.4396 118.785 31.6358 119.096 35.8075 119.595C35.3944 119.271 34.9683 118.927 34.529 118.563C31.4648 117.554 28.5529 116.131 25.8743 114.334C25.8087 114.399 25.3989 114.137 24.6449 113.547C23.5325 112.651 22.4963 111.664 21.5469 110.596C19.9624 108.855 18.4688 107.033 17.0721 105.138C17.0136 105.019 16.9479 104.904 16.8754 104.794C16.8462 104.701 16.7956 104.617 16.7278 104.548C16.6295 104.45 16.5147 104.335 16.3836 104.204C16.2226 103.621 15.9914 103.059 15.6952 102.532C15.4706 102.145 15.207 101.783 14.9084 101.45C14.1604 99.9566 13.5195 98.4119 12.9906 96.8276C12.4332 95.2212 11.8267 93.6477 11.1711 92.1068L11.1219 92.0577C10.7286 90.4513 10.3679 88.845 10.0401 87.2386C10.0376 87.1223 10.0211 87.0067 9.99094 86.8944C9.86046 86.1805 9.79463 85.4564 9.79424 84.7307C9.46641 80.8951 9.30249 77.2726 9.30249 73.8631C9.27744 70.5029 9.54067 67.1467 10.0893 63.8315V63.4873L10.1876 63.2906C10.1883 63.2221 10.2052 63.1547 10.2368 63.0939C10.2684 63.0331 10.2853 62.9657 10.286 62.8972C10.3124 62.852 10.3292 62.8017 10.3352 62.7497V62.3563L10.4335 62.1596C10.4315 62.133 10.4347 62.1062 10.4432 62.0809C10.4516 62.0555 10.4651 62.0321 10.4827 62.0121C10.4499 61.8167 10.4499 61.6173 10.4827 61.422C10.4805 61.237 10.5139 61.0534 10.581 60.8811V60.4877C10.6496 60.3823 10.6995 60.2658 10.7286 60.1434C10.8597 59.5206 11.0072 58.9141 11.1711 58.324C11.2695 57.9306 11.3679 57.5536 11.4662 57.193C11.4662 57.1274 11.4662 57.0618 11.4662 56.9963C11.4662 56.9308 11.4662 56.8651 11.4662 56.7996C11.9506 54.5283 12.6419 52.3062 13.5315 50.161C14.1872 48.4891 14.892 46.8335 15.646 45.1944C17.4163 41.7522 20.7438 38.4247 25.6284 35.212C30.4803 31.9664 37.6762 30.4092 47.216 30.5404C56.7231 30.6715 62.329 30.9174 64.0337 31.278C65.8512 31.6706 67.6416 32.1798 69.3937 32.8024C72.0125 33.905 74.4496 35.3971 76.6224 37.2281C77.8681 38.1788 79.0155 39.1295 80.0646 40.0802C82.1627 42.3095 83.3429 43.5716 83.6051 43.8667C84.5806 45.2005 85.4676 46.5968 86.2606 48.0465C86.2695 48.1361 86.3036 48.2213 86.3589 48.2924C87.5391 51.7018 88.2931 53.8654 88.6209 54.7834C88.7193 55.2424 89.1455 57.3569 89.8995 61.1269C90.1293 63.3978 90.2278 65.68 90.1945 67.9622C90.1617 70.3226 90.0962 72.6829 89.9978 75.0433C88.9815 82.6161 88.3914 86.714 88.2275 87.3369C87.6702 89.8284 85.9983 94.4836 83.2117 101.302C81.3055 104.981 78.9609 108.416 76.229 111.531C75.8467 111.816 75.4852 112.128 75.1471 112.465C73.1079 114.441 70.8082 116.128 68.3119 117.481C67.4258 118.462 66.4903 119.398 65.5089 120.284C68.823 120.328 72.1177 120.524 75.393 120.874C75.6748 120.509 75.9534 120.132 76.229 119.743C76.7535 118.563 77.2781 117.383 77.8026 116.202C77.8619 116.145 77.9118 116.079 77.9501 116.006C78.0646 115.887 78.1974 115.787 78.3435 115.711C78.5363 115.549 78.7516 115.417 78.9827 115.317C79.0811 115.317 79.1958 115.317 79.327 115.317C79.3597 115.317 79.3925 115.317 79.4253 115.317V115.268C79.5934 115.302 79.758 115.351 79.9171 115.416C79.9826 115.022 80.0646 114.612 80.1629 114.186C80.1637 114.118 80.1805 114.05 80.2121 113.99C80.2437 113.929 80.2605 113.861 80.2613 113.793C80.3184 113.682 80.3677 113.567 80.4088 113.449C80.4416 113.317 80.4744 113.186 80.5071 113.055C80.5078 112.987 80.5247 112.919 80.5563 112.858C80.5564 112.76 80.5564 112.645 80.5563 112.514C80.5859 112.329 80.6354 112.148 80.7038 111.973C80.7354 111.913 80.7523 111.845 80.753 111.777C80.8124 111.719 80.8622 111.653 80.9006 111.58C80.9128 111.566 80.9279 111.554 80.9448 111.545C80.9616 111.537 80.9801 111.532 80.9989 111.531C81.089 111.439 81.1878 111.357 81.2939 111.285C81.4867 111.123 81.7021 110.991 81.9332 110.892C82.0643 110.892 82.2119 110.892 82.3758 110.892V110.842C82.5812 110.878 82.7801 110.944 82.9659 111.039C83.193 111.104 83.4087 111.203 83.6051 111.334C83.6751 111.472 83.7574 111.604 83.851 111.727C83.9939 111.953 84.0939 112.203 84.1461 112.465C84.1801 112.643 84.1966 112.825 84.1952 113.006C84.1952 113.104 84.1952 113.219 84.1952 113.35C84.2608 113.35 84.3264 113.35 84.3919 113.35C84.4247 113.35 84.4739 113.35 84.5395 113.35C84.8345 112.891 85.1296 112.416 85.4246 111.924C85.6517 111.567 85.8979 111.222 86.1622 110.892C87.8498 106.778 89.3108 102.576 90.5387 98.3028C91.1983 95.8251 91.7236 93.3135 92.1123 90.7791C92.8991 84.1242 93.3417 78.6822 93.44 74.4532C93.5384 70.2242 93.4564 65.9296 93.1942 61.5695C93.0958 60.3237 93.0138 59.1927 92.9483 58.1765C92.6528 55.0116 92.1268 51.8725 91.3747 48.7841C90.6011 45.899 89.5811 43.0858 88.3259 40.3753C86.9163 37.2937 83.9658 34.0154 79.4745 30.5404C76.4942 28.1367 73.3921 25.8881 70.1805 23.8035C68.4759 22.82 65.4434 21.8037 61.0832 20.7547Z" fill="#A8044C"/>
<path d="M61.575 11.8541C61.7868 11.8846 62.0004 11.901 62.2143 11.9033C53.7562 10.9198 47.4619 10.6903 43.3313 11.2148C41.5282 11.4444 39.7579 11.7394 38.0205 12.1C36.4796 12.5589 34.8241 13.0835 33.0538 13.6736C30.2404 14.6949 27.5515 16.0311 25.0384 17.6567C21.5821 19.7197 18.366 22.1606 15.4494 24.9345C9.22059 31.0649 4.94241 40.0311 2.61482 51.833C1.56604 56.9489 0.810782 62.1207 0.352742 67.3229C0.044538 70.8217 -0.0539863 74.3357 0.0576958 77.8463C0.156045 80.5345 0.303567 82.813 0.500265 84.6815C0.506239 84.7336 0.522987 84.7838 0.549441 84.829C0.549441 85.6814 0.582222 86.5338 0.647788 87.3861C0.746137 88.6974 0.877271 89.9924 1.04119 91.2709L1.82798 94.2214C2.02578 94.948 2.17365 95.6874 2.27055 96.4342C2.50009 97.221 2.74596 98.0078 3.00817 98.7946C3.17203 99.2863 3.33595 99.778 3.49991 100.27V100.663C3.6351 101.1 3.79938 101.527 3.99165 101.942C4.51618 103.188 4.99154 104.45 5.41771 105.728C6.15817 107.9 7.04536 110.02 8.07314 112.072C9.3869 114.614 10.8482 117.077 12.4497 119.448C13.279 120.69 14.2529 121.829 15.351 122.841C15.2526 122.448 15.1707 122.071 15.1051 121.71C14.9084 120.464 14.7445 119.235 14.6133 118.022C14.5808 117.86 14.5643 117.695 14.5642 117.53C14.5377 117.485 14.521 117.435 14.515 117.383V117.088L14.4658 117.038V116.94C14.4651 116.871 14.4482 116.804 14.4166 116.743C14.4184 116.594 14.4019 116.446 14.3675 116.301C14.3349 116.139 14.3184 115.974 14.3183 115.809C14.1889 115.36 14.1065 114.898 14.0724 114.432C14.038 113.865 13.939 113.304 13.7774 112.76C13.7445 112.268 13.6954 111.777 13.6299 111.285C13.5634 110.71 13.5967 110.128 13.7282 109.564L13.8266 109.465V109.416C13.8278 109.397 13.8328 109.379 13.8412 109.362C13.8497 109.345 13.8614 109.33 13.8757 109.318C13.8757 109.285 13.8757 109.252 13.8757 109.22V109.17L13.9741 108.974C13.9753 108.955 13.9803 108.936 13.9887 108.92C13.9972 108.903 14.0089 108.888 14.0232 108.875L14.1216 108.777C14.1339 108.763 14.1489 108.751 14.1658 108.742C14.1827 108.734 14.2011 108.729 14.2199 108.728C13.7282 107.515 13.2528 106.203 12.7939 104.794C10.1385 96.9587 8.56488 91.6479 8.07314 88.8614C7.74531 87.0911 7.49943 85.3044 7.33552 83.5013C7.23717 82.649 7.1716 81.813 7.13882 80.9934V80.9443C7.10736 80.7326 7.09093 80.519 7.08965 80.305V79.9116C7.05888 79.766 7.04241 79.6178 7.04047 79.469C6.93753 77.4537 6.95395 75.434 7.08965 73.4206C7.09035 73.352 7.1072 73.2846 7.13882 73.2239V73.1255L7.04047 73.6173C7.99118 60.2418 9.95816 50.3249 12.9414 43.8667C15.5641 38.228 21.1699 32.2943 29.7591 26.0655C29.7919 26.0327 31.8572 24.9345 35.9551 22.7708C39.7665 20.6936 44.0091 19.5319 48.347 19.3778C52.6348 19.2669 56.9182 19.7299 61.0832 20.7547C65.4435 21.8037 68.4759 22.82 70.1805 23.8035C73.3921 25.8881 76.4942 28.1367 79.4745 30.5404C83.9658 34.0154 86.9163 37.2937 88.3259 40.3753C89.5811 43.0858 90.6011 45.8991 91.3747 48.7841C92.1268 51.8725 92.6528 55.0116 92.9483 58.1765C93.0139 59.1927 93.0958 60.3238 93.1942 61.5695C93.4564 65.9296 93.5384 70.2242 93.44 74.4532C93.3417 78.6822 92.8991 84.1242 92.1123 90.7792C91.7236 93.3136 91.1983 95.8251 90.5387 98.3028C89.3108 102.576 87.8498 106.778 86.1622 110.892C85.8979 111.222 85.6517 111.567 85.4246 111.924C85.1296 112.416 84.8345 112.891 84.5395 113.35C84.5915 113.356 84.6417 113.373 84.687 113.399L84.982 113.596C85.3457 114.5 85.4971 115.476 85.4246 116.448C85.3918 117.333 85.3263 118.219 85.2279 119.104C85.228 119.136 85.228 119.169 85.2279 119.202C85.228 119.268 85.228 119.333 85.2279 119.399C85.2244 119.483 85.2078 119.566 85.1787 119.645C85.1787 119.677 85.1787 119.71 85.1787 119.743C85.1775 119.762 85.1725 119.78 85.164 119.797C85.1556 119.814 85.1439 119.829 85.1296 119.841C85.1288 119.91 85.112 119.977 85.0804 120.038C85.0533 120.122 85.0204 120.204 84.982 120.284C84.9821 120.317 84.9821 120.349 84.982 120.382C84.9821 120.415 84.9821 120.448 84.982 120.481C84.9821 120.513 84.9821 120.546 84.982 120.579C84.9677 120.591 84.956 120.606 84.9475 120.623C84.9391 120.64 84.9341 120.658 84.9329 120.677C84.9328 120.743 84.9328 120.808 84.9329 120.874C84.9316 120.893 84.9266 120.911 84.9182 120.928C84.9097 120.945 84.898 120.96 84.8837 120.972V121.021C84.8521 121.082 84.8352 121.15 84.8345 121.218L84.7362 121.415C84.7362 121.579 84.7362 121.726 84.7362 121.857C84.7056 122.143 84.6395 122.424 84.5395 122.693L84.4411 122.89C84.441 122.923 84.441 122.956 84.4411 122.988C84.441 123.021 84.441 123.054 84.4411 123.087C84.4399 123.106 84.4349 123.124 84.4264 123.141C84.418 123.158 84.4063 123.173 84.3919 123.185V123.431L84.2936 123.824C84.228 124.021 84.1624 124.234 84.0969 124.464C85.9862 122.863 87.6269 120.99 88.9652 118.907C91.2519 115.147 93.1783 111.179 94.7186 107.056C96.3743 102.689 97.6253 98.1783 98.4558 93.5821C99.294 88.809 99.7054 83.9708 99.6852 79.1248C100.04 74.7242 100.09 70.3043 99.8327 65.8969C99.6032 62.0613 98.5214 55.226 96.5872 45.3911C94.7699 35.736 89.2226 27.1853 81.1464 21.5907C72.8548 15.631 66.331 12.3855 61.575 11.8541Z" fill="#230110"/>
<path d="M62.1651 45.8337C60.1326 46.0304 58.1164 46.309 56.1166 46.6696C56.0396 46.7048 55.9554 46.7216 55.8708 46.7188C54.409 47.0167 52.9314 47.2301 51.4451 47.3581C49.9883 47.4894 48.522 47.4729 47.0685 47.3089C45.7572 47.3417 44.4295 47.3089 43.0854 47.2105C41.2823 47.0466 39.4629 46.8827 37.627 46.7188C34.0864 46.3582 30.5623 46.1287 27.0545 46.0304C25.4247 45.992 23.7989 46.2076 22.2354 46.6696C20.2903 47.3021 18.5781 48.5006 17.318 50.1118C16.1833 51.5218 15.2407 53.0762 14.515 54.7342C14.2923 55.3121 14.0628 55.9841 13.8266 56.7504C13.8361 56.8156 13.8361 56.8819 13.8266 56.9471C13.7643 57.4454 13.6824 57.9371 13.5807 58.4223C13.5151 58.9141 13.4167 59.7828 13.2857 61.0286C13.1583 61.8924 13.0762 62.7624 13.0398 63.6348C13.0398 71.1421 14.7281 76.7972 18.1048 80.6C19.4 81.9972 20.8711 83.2204 22.4813 84.2389C24.3499 85.3536 25.6285 86.1731 26.3169 86.6977C27.5661 87.2028 28.8938 87.6618 30.3 88.0745C34.0701 89.1564 40.8398 89.6973 50.6091 89.6973C61.0997 89.6973 68.8528 88.763 73.8686 86.8944C77.6759 85.4251 80.9971 82.9214 83.4577 79.6657C85.0906 77.6609 86.2353 75.3042 86.8015 72.7813C87.2536 70.8245 87.5496 68.8348 87.6867 66.8312C87.7905 64.9312 87.7905 63.0269 87.6867 61.1269C87.6345 59.0654 87.1486 57.038 86.2606 55.1768C85.4258 53.5196 84.4205 51.9539 83.261 50.5052C82.5337 49.6145 81.7272 48.7916 80.8514 48.0465C80.5891 47.9154 80.3433 47.8006 80.1138 47.7023C79.7734 47.5649 79.4445 47.4004 79.1303 47.2105C77.0288 46.1278 74.7078 45.5391 72.3442 45.4894C68.9473 45.3907 65.5476 45.5056 62.1651 45.8337ZM57.4935 55.0785C59.4933 54.7506 61.4931 54.3245 63.4928 53.7999C65.9681 53.1467 68.5076 52.7674 71.0657 52.6689C71.6607 52.7353 72.2516 52.8338 72.836 52.964C74.3077 53.2708 75.6478 54.0268 76.6716 55.1276C77.9698 56.0625 78.9697 57.7836 79.6712 60.291L79.7204 60.5368C80.2585 62.2495 80.621 64.0125 80.8022 65.7985C80.7923 66.1472 80.7428 66.4936 80.6547 66.8312C80.6383 67.0302 80.6054 67.2276 80.5564 67.4213C80.3712 68.2364 80.1414 69.0408 79.8679 69.8308C79.8483 69.9809 79.8154 70.1291 79.7696 70.2734C79.6999 70.491 79.6178 70.7044 79.5237 70.9127C78.6512 73.0395 77.3059 74.9398 75.5897 76.4694C74.571 77.4689 73.4112 78.3139 72.1475 78.9773C70.6201 79.9061 68.9627 80.6022 67.2301 81.0426C64.4763 81.5343 58.936 81.7802 50.6091 81.7802C42.5773 81.7802 36.6927 81.1901 32.9555 80.0099C29.7553 79.0365 26.745 77.5231 24.0549 75.535C21.3673 73.5568 20.138 70.4424 20.3668 66.1919C20.3641 66.027 20.3641 65.8631 20.3668 65.7002C20.3469 63.3668 20.8159 61.0551 21.7437 58.9141C22.6043 57.0686 23.8247 55.4134 25.3334 54.0458C25.399 53.7507 26.3989 53.3901 28.3331 52.964C28.4101 52.9288 28.4943 52.9119 28.5789 52.9148H29.9558C32.007 53.1145 34.0435 53.443 36.0535 53.8983C36.7419 54.0622 37.4303 54.1933 38.1188 54.2917C38.3004 54.396 38.501 54.4629 38.7089 54.4884C43.0264 55.3727 47.4344 55.7359 51.8385 55.5702C53.1707 55.6017 54.5033 55.5194 55.8216 55.3243C56.3789 55.2588 56.9362 55.1768 57.4935 55.0785Z" fill="#091628"/>
<path d="M69.9837 60.6352C68.9447 60.5806 67.9031 60.6633 66.8857 60.881C63.3072 61.8328 59.6792 62.588 56.0181 63.1431C49.8716 64.1636 43.5821 63.9295 37.5285 62.4546C36.4681 62.2215 35.4312 61.8924 34.4305 61.4711C29.972 60.6188 26.2675 61.0286 23.317 62.7005C22.1677 63.3269 21.2016 64.2421 20.5141 65.3559L20.4158 65.5526C20.3986 65.5986 20.3822 65.6478 20.3665 65.7001C20.3638 65.863 20.3638 66.0269 20.3665 66.1919C20.1377 70.4424 21.3671 73.5568 24.0546 75.535C26.7447 77.5231 29.755 79.0365 32.9552 80.0099C36.6925 81.1901 42.5771 81.7802 50.6089 81.7802C58.9358 81.7802 64.4761 81.5343 67.2299 81.0426C68.9625 80.6022 70.6198 79.9061 72.1473 78.9773C73.411 78.3139 74.5707 77.4689 75.5895 76.4694C77.3057 74.9398 78.651 73.0395 79.5235 70.9126C79.6176 70.7044 79.6996 70.491 79.7694 70.2734C79.8152 70.129 79.8481 69.9809 79.8677 69.8308C80.1411 69.0408 80.371 68.2364 80.5562 67.4212C80.6052 67.2276 80.6381 67.0302 80.6545 66.8312C79.7436 64.9063 78.1736 63.3712 76.2288 62.5038C75.9647 62.3554 75.6861 62.2079 75.3928 62.0612C74.4129 61.5531 73.3717 61.173 72.2948 60.9302C71.5387 60.8386 70.7683 60.7403 69.9836 60.6352M76.2288 68.3064C76.2916 68.4337 76.3746 68.5499 76.4747 68.6506L76.6714 69.044C76.8025 69.2735 76.9336 69.5194 77.0648 69.7816C77.1663 70.0205 77.2485 70.2672 77.3106 70.5192V71.2569C77.2769 71.6225 77.2111 71.9846 77.1139 72.3387C76.9807 72.7365 76.7991 73.1163 76.573 73.4697C75.6148 74.3937 74.5783 75.2328 73.475 75.9776C72.5116 76.6544 71.4916 77.2467 70.4262 77.7479C65.1117 79.2936 59.4534 79.1908 54.1986 77.4528C53.8845 77.3474 53.6046 77.1594 53.3883 76.9085C53.172 76.6575 53.0272 76.353 52.9693 76.0268V75.6826C52.9714 75.5659 52.9548 75.4497 52.9201 75.3383C52.9199 75.2057 52.9034 75.0736 52.8709 74.9449C52.9034 74.8163 52.9199 74.6842 52.9201 74.5515C52.9529 74.4532 52.9857 74.3385 53.0184 74.2073C53.0199 74.0703 53.0536 73.9355 53.1168 73.8139C53.1824 73.5845 53.2643 73.3386 53.3627 73.0763L53.7069 72.7321C53.8053 72.601 53.8872 72.4862 53.9528 72.3879L54.3462 71.9945C54.5355 71.8676 54.7326 71.7526 54.9362 71.6503L55.428 71.3552C61.2794 71.8801 67.1438 70.5002 72.1473 67.4212C72.3092 67.3887 72.4739 67.3722 72.6391 67.3721C72.9341 67.3393 73.2292 67.3065 73.5242 67.2737V67.1754C74.0429 67.3046 74.5522 67.4689 75.0486 67.6671C75.4617 67.8417 75.857 68.0557 76.2289 68.3064H76.2288Z" fill="#90C3D0"/>
<path d="M76.4748 68.6506C76.3748 68.55 76.2918 68.4337 76.229 68.3064C75.8571 68.0558 75.4619 67.8417 75.0488 67.6672C74.5524 67.469 74.043 67.3047 73.5244 67.1754V67.2738C73.2293 67.3065 72.9343 67.3393 72.6392 67.3721C72.4741 67.3722 72.3094 67.3887 72.1475 67.4213C67.144 70.5003 61.2796 71.8801 55.4282 71.3552L54.9364 71.6503C54.7328 71.7527 54.5357 71.8676 54.3463 71.9945L53.9529 72.3879C53.8874 72.4863 53.8054 72.601 53.7071 72.7321L53.3628 73.0764C53.2645 73.3386 53.1825 73.5845 53.117 73.814C53.0537 73.9356 53.02 74.0703 53.0186 74.2074C52.9858 74.3385 52.953 74.4532 52.9203 74.5516C52.9201 74.6842 52.9036 74.8164 52.8711 74.945C52.9036 75.0736 52.9201 75.2057 52.9203 75.3384C52.955 75.4498 52.9716 75.566 52.9694 75.6826V76.0268C53.0274 76.353 53.1722 76.6576 53.3885 76.9085C53.6048 77.1594 53.8847 77.3475 54.1988 77.4529C59.4536 79.1908 65.1119 79.2937 70.4264 77.7479C71.4917 77.2467 72.5118 76.6544 73.4752 75.9776C74.5785 75.2328 75.615 74.3937 76.5732 73.4698C76.7992 73.1164 76.9809 72.7365 77.1141 72.3387C77.2113 71.9846 77.2771 71.6226 77.3108 71.2569V70.5193C77.2487 70.2672 77.1665 70.0206 77.0649 69.7817C76.9338 69.5194 76.8027 69.2735 76.6715 69.044L76.4748 68.6506Z" fill="white"/>
<path d="M63.4928 53.8C61.4931 54.3245 59.4933 54.7507 57.4936 55.0785C56.9363 55.1768 56.3789 55.2588 55.8216 55.3244C54.5033 55.5195 53.1708 55.6017 51.8385 55.5702C47.4345 55.7359 43.0264 55.3727 38.7089 54.4884C38.501 54.4629 38.3004 54.3961 38.1188 54.2917C37.4304 54.1934 36.7419 54.0622 36.0535 53.8983C34.0436 53.443 32.007 53.1145 29.9558 52.9148H28.579C28.4943 52.912 28.4101 52.9288 28.3331 52.964C26.3989 53.3902 25.399 53.7508 25.3334 54.0458C23.8248 55.4135 22.6043 57.0686 21.7437 58.9141C20.8159 61.0552 20.3469 63.3668 20.3668 65.7002C20.3825 65.6478 20.3989 65.5986 20.416 65.5527L20.5144 65.356C21.2019 64.2422 22.168 63.3269 23.3173 62.7005C26.2678 61.0286 29.9723 60.6188 34.4308 61.4712C35.4315 61.8924 36.4684 62.2216 37.5288 62.4547C43.5824 63.9295 49.8719 64.1637 56.0184 63.1431C59.6795 62.588 63.3075 61.8329 66.886 60.8811C67.9034 60.6634 68.945 60.5807 69.984 60.6352C70.7687 60.7404 71.5391 60.8387 72.2952 60.9303C73.372 61.173 74.4132 61.5531 75.3932 62.0613C75.6864 62.2079 75.9651 62.3554 76.2291 62.5038C78.174 63.3712 79.744 64.9063 80.6548 66.8312C80.7429 66.4937 80.7924 66.1472 80.8024 65.7985C80.6211 64.0125 80.2587 62.2495 79.7205 60.5369L79.6714 60.291C78.9698 57.7836 77.9699 56.0625 76.6717 55.1277C75.648 54.0268 74.3078 53.2708 72.8361 52.964C72.2518 52.8338 71.6608 52.7353 71.0658 52.6689C68.5077 52.7674 65.9681 53.1467 63.4928 53.8Z" fill="#4E7A8D"/>
<path d="M50.9042 126.185C54.1143 126.074 57.2928 125.511 60.3457 124.513C63.247 122.463 65.918 120.105 68.3119 117.481C69.1869 116.547 70.0229 115.58 70.8198 114.58C71.3116 113.989 71.7869 113.399 72.2459 112.809C70.4428 113.793 68.1808 115.006 65.4598 116.448L63.2469 117.137C58.8898 118.284 54.4221 118.96 49.9207 119.153H49.2814C46.6353 118.99 44.0052 118.629 41.4135 118.071C41.3184 118.039 41.2188 118.022 41.1184 118.022C40.6595 117.858 40.2005 117.71 39.7415 117.579C39.4137 117.481 39.0531 117.366 38.6597 117.235C38.1024 117.006 37.5451 116.743 36.9878 116.448C36.3674 116.089 35.6824 115.855 34.9716 115.76C34.9593 115.745 34.9443 115.734 34.9274 115.725C34.9105 115.717 34.8921 115.712 34.8733 115.711C33.7914 115.219 32.2015 114.481 30.1033 113.498C29.1045 113.008 28.1502 112.432 27.2512 111.777C29.5306 114.191 31.9615 116.457 34.529 118.563C35.7538 119.573 36.9996 120.54 38.2663 121.464C40.1022 122.808 41.9872 124.054 43.9214 125.201C46.2024 125.802 48.5461 126.132 50.9042 126.185Z" fill="black"/>
</g>
<defs>
<clipPath id="clip0_1_848">
<rect width="99.9969" height="145.984" fill="white" transform="translate(0.00146484 0.21875)"/>
</clipPath>
</defs>
</svg>
